<svg width="24" height="24" viewBox="0 0 24 24" fill="none" xmlns="http://www.w3.org/2000/svg">
<g clip-path="url(#clip0_1499_24138)">
<path d="M4.5 3C4.10218 3 3.72064 3.15804 3.43934 3.43934C3.15804 3.72064 3 4.10218 3 4.5C3 4.89782 3.15804 5.27936 3.43934 5.56066C3.72064 5.84196 4.10218 6 4.5 6L4.5 12.75C4.5 13.7446 4.89509 14.6984 5.59835 15.4017C6.30161 16.1049 7.25544 16.5 8.25 16.5H11.25V19.5H8.25C8.05109 19.5 7.86032 19.579 7.71967 19.7197C7.57902 19.8603 7.5 20.0511 7.5 20.25C7.5 20.4489 7.57902 20.6397 7.71967 20.7803C7.86032 20.921 8.05109 21 8.25 21L15.75 21C15.9489 21 16.1397 20.921 16.2803 20.7803C16.421 20.6397 16.5 20.4489 16.5 20.25C16.5 20.0511 16.421 19.8603 16.2803 19.7197C16.1397 19.579 15.9489 19.5 15.75 19.5L12.75 19.5V16.5H15.75C16.7446 16.5 17.6984 16.1049 18.4017 15.4017C19.1049 14.6984 19.5 13.7446 19.5 12.75V6C19.8978 6 20.2794 5.84196 20.5607 5.56066C20.842 5.27936 21 4.89782 21 4.5C21 4.10218 20.842 3.72064 20.5607 3.43934C20.2794 3.15804 19.8978 3 19.5 3L4.5 3ZM6 6L18 6V12.75C18 13.3467 17.7629 13.919 17.341 14.341C16.919 14.7629 16.3467 15 15.75 15L8.25 15C7.65326 15 7.08097 14.7629 6.65901 14.341C6.23705 13.919 6 13.3467 6 12.75L6 6Z" fill="#94A3B8"/>
</g>
<defs>
<clipPath id="clip0_1499_24138">
<rect width="24" height="24" fill="white"/>
</clipPath>
</defs>
</svg>
