<svg width="24" height="24" viewBox="0 0 24 24" fill="none" xmlns="http://www.w3.org/2000/svg">
<g clip-path="url(#clip0_1499_24120)">
<path d="M9.84233 16.1745L9.0834 16.9385C8.41048 17.616 7.5155 17.9893 6.56377 17.9893C5.61203 17.9893 4.71705 17.6162 4.04414 16.9385C3.37122 16.2611 3.00038 15.3601 3.00038 14.402C3.00038 13.4438 3.37097 12.5431 4.04414 11.8654L6.62278 9.26947C7.29595 8.59178 8.19092 8.2187 9.14266 8.2187C10.0944 8.2187 10.9894 8.59178 11.6623 9.26947C12.6588 10.2727 12.9746 11.7763 12.467 13.1005C12.3177 13.4897 12.5103 13.9269 12.8968 14.077C13.2827 14.2275 13.7176 14.0337 13.8668 13.6445C14.5883 11.7632 14.1394 9.62669 12.7233 8.20133C11.7671 7.23842 10.4955 6.708 9.14291 6.708C7.79032 6.708 6.51875 7.23816 5.56226 8.20133L2.98337 10.7973C2.02688 11.7602 1.5 13.0403 1.5 14.402C1.5 15.7636 2.02663 17.0438 2.98337 18.0067C3.93961 18.9696 5.21118 19.5 6.56377 19.5C7.91635 19.5 9.18792 18.9698 10.1442 18.0069L10.9031 17.2429C11.1962 16.9481 11.1962 16.4698 10.9031 16.1747C10.6105 15.8797 10.1354 15.8797 9.84233 16.1745ZM21.0191 5.99053C19.0449 4.00328 15.8326 4.00303 13.8578 5.99053L13.0989 6.75457C12.8058 7.04936 12.8058 7.52767 13.0989 7.82271C13.3915 8.11775 13.8666 8.1175 14.1597 7.82271L14.9186 7.05867C16.3082 5.65974 18.5688 5.66025 19.9581 7.05867C21.3475 8.4576 21.3475 10.7333 19.9581 12.132L17.3797 14.728C15.9901 16.1269 13.7296 16.1269 12.3402 14.728C11.3437 13.7248 11.0279 12.2211 11.5355 10.8967C11.6848 10.5078 11.4922 10.0705 11.1056 9.92022C10.7188 9.76993 10.2852 9.96352 10.1357 10.353C9.41423 12.2342 9.86309 14.3708 11.2792 15.7961C12.2662 16.79 13.5628 17.2869 14.8596 17.2869C16.1562 17.2869 17.4532 16.7897 18.4402 15.7961L21.0191 13.1999C22.9936 11.2124 22.9936 7.97828 21.0191 5.99053Z" fill="#94A3B8"/>
</g>
<defs>
<clipPath id="clip0_1499_24120">
<rect width="24" height="24" fill="white"/>
</clipPath>
</defs>
</svg>
