<svg width="53" height="53" viewBox="0 0 53 53" fill="none" xmlns="http://www.w3.org/2000/svg">
<path d="M6.83887 8.06756C6.83887 7.51493 7.0584 6.98494 7.44916 6.59418C7.83992 6.20342 8.36991 5.98389 8.92254 5.98389H44.3449C44.8975 5.98389 45.4275 6.20342 45.8183 6.59418C46.2091 6.98494 46.4286 7.51493 46.4286 8.06756V37.2389C46.4286 37.7916 46.2091 38.3215 45.8183 38.7123C45.4275 39.1031 44.8975 39.3226 44.3449 39.3226H8.92254C8.36991 39.3226 7.83992 39.1031 7.44916 38.7123C7.0584 38.3215 6.83887 37.7916 6.83887 37.2389V8.06756Z" stroke="white" stroke-width="3" stroke-linecap="round" stroke-linejoin="round"/>
<path d="M16.7361 16.4021C17.1506 16.4021 17.5481 16.2375 17.8411 15.9444C18.1342 15.6513 18.2988 15.2538 18.2988 14.8394C18.2988 14.4249 18.1342 14.0274 17.8411 13.7343C17.5481 13.4413 17.1506 13.2766 16.7361 13.2766C16.3216 13.2766 15.9241 13.4413 15.6311 13.7343C15.338 14.0274 15.1733 14.4249 15.1733 14.8394C15.1733 15.2538 15.338 15.6513 15.6311 15.9444C15.9241 16.2375 16.3216 16.4021 16.7361 16.4021Z" stroke="white" stroke-width="3" stroke-linecap="round" stroke-linejoin="round"/>
<path d="M17.2572 22.6533L22.4664 26.8207L28.7174 19.5278L46.4286 33.0717V37.239C46.4286 37.7916 46.2091 38.3216 45.8183 38.7124C45.4275 39.1032 44.8975 39.3227 44.3449 39.3227H8.92254C8.36991 39.3227 7.83992 39.1032 7.44916 38.7124C7.0584 38.3216 6.83887 37.7916 6.83887 37.239V33.0717L17.2572 22.6533Z" stroke="white" stroke-width="3" stroke-linejoin="round"/>
</svg>
