<svg width="20" height="20" viewBox="0 0 20 20" fill="none" xmlns="http://www.w3.org/2000/svg">
<g clip-path="url(#clip0_755_56922)">
<path d="M9.99996 1.66663C14.6025 1.66663 18.3333 5.39829 18.3333 9.99996C18.3333 14.6016 14.6025 18.3333 9.99996 18.3333C5.39746 18.3333 1.66663 14.6016 1.66663 9.99996C1.66663 5.39829 5.39746 1.66663 9.99996 1.66663ZM10.0015 12.5031C9.54184 12.5031 9.16924 12.8757 9.16924 13.3353C9.16924 13.7949 9.54184 14.1675 10.0015 14.1675C10.4611 14.1675 10.8337 13.7949 10.8337 13.3353C10.8337 12.8757 10.4611 12.5031 10.0015 12.5031ZM9.99966 5.83329C9.5723 5.83345 9.22019 6.15527 9.1722 6.56974L9.16663 6.66693L9.16813 10.8343L9.17377 10.9315C9.22205 11.3459 9.5744 11.6675 10.0018 11.6674C10.4291 11.6672 10.7812 11.3454 10.8292 10.9309L10.8348 10.8337L10.8333 6.66633L10.8277 6.56914C10.7794 6.15471 10.427 5.83314 9.99966 5.83329Z" fill="#F43F5E"/>
</g>
<defs>
<clipPath id="clip0_755_56922">
<rect width="20" height="20" fill="white"/>
</clipPath>
</defs>
</svg>
