<svg width="32" height="40" viewBox="0 0 32 40" fill="none" xmlns="http://www.w3.org/2000/svg">
<path d="M30.7211 10.4008L21.4742 1.15391C21.2164 0.896094 20.8684 0.75 20.5031 0.75H2.25C1.48945 0.75 0.875 1.36445 0.875 2.125V37.875C0.875 38.6355 1.48945 39.25 2.25 39.25H29.75C30.5105 39.25 31.125 38.6355 31.125 37.875V11.3762C31.125 11.0109 30.9789 10.6586 30.7211 10.4008ZM27.9539 12.0078H19.8672V3.92109L27.9539 12.0078ZM28.0312 36.1562H3.96875V3.84375H16.9453V13.125C16.9453 13.6036 17.1354 14.0627 17.4739 14.4011C17.8123 14.7396 18.2714 14.9297 18.75 14.9297H28.0312V36.1562ZM12.4336 18.6766C12.352 18.4875 12.1672 18.3672 11.9609 18.3672H10.457C10.1734 18.3672 9.94141 18.5992 9.94141 18.8828V30.5703C9.94141 30.8539 10.1734 31.0859 10.457 31.0859H11.6215C11.9051 31.0859 12.1371 30.8539 12.1371 30.5703V23.0121L15.0074 29.466C15.0482 29.5572 15.1146 29.6345 15.1985 29.6887C15.2824 29.7428 15.3802 29.7715 15.4801 29.7711H16.5156C16.7176 29.7711 16.9023 29.6508 16.9883 29.466L19.8586 22.9949V30.5703C19.8586 30.8539 20.0906 31.0859 20.3742 31.0859H21.543C21.8266 31.0859 22.0586 30.8539 22.0586 30.5703V18.8828C22.0586 18.5992 21.8266 18.3672 21.543 18.3672H20.052C19.8457 18.3672 19.6609 18.4875 19.5793 18.6766L16.0086 26.8836L12.4336 18.6766Z" fill="white"/>
</svg>
