<svg width="16" height="16" viewBox="0 0 16 16" fill="none" xmlns="http://www.w3.org/2000/svg">
<path d="M14.3078 1.52002L8.83862 5.5668L9.85566 3.1819L14.3078 1.52002Z" fill="#E17726" stroke="#E17726" stroke-width="0.171429" stroke-linecap="round" stroke-linejoin="round"/>
<path d="M1.69257 1.52002L7.11302 5.60457L6.1447 3.1819L1.69257 1.52002Z" fill="#E27625" stroke="#E27625" stroke-width="0.171429" stroke-linecap="round" stroke-linejoin="round"/>
<path d="M12.3385 10.9031L10.8833 13.1262L13.9992 13.9841L14.8919 10.9517L12.3385 10.9031Z" fill="#E27625" stroke="#E27625" stroke-width="0.171429" stroke-linecap="round" stroke-linejoin="round"/>
<path d="M1.11359 10.9517L2.00076 13.9841L5.11131 13.1262L3.66152 10.9031L1.11359 10.9517Z" fill="#E27625" stroke="#E27625" stroke-width="0.171429" stroke-linecap="round" stroke-linejoin="round"/>
<path d="M4.94347 7.14775L4.07794 8.45352L7.16143 8.59381L7.05866 5.27545L4.94347 7.14775Z" fill="#E27625" stroke="#E27625" stroke-width="0.171429" stroke-linecap="round" stroke-linejoin="round"/>
<path d="M11.0565 7.14781L8.90896 5.23773L8.83862 8.59387L11.9221 8.45358L11.0565 7.14781Z" fill="#E27625" stroke="#E27625" stroke-width="0.171429" stroke-linecap="round" stroke-linejoin="round"/>
<path d="M5.11127 13.1261L6.97757 12.2251L5.37094 10.9733L5.11127 13.1261Z" fill="#E27625" stroke="#E27625" stroke-width="0.171429" stroke-linecap="round" stroke-linejoin="round"/>
<path d="M9.0224 12.2251L10.8833 13.1261L10.629 10.9733L9.0224 12.2251Z" fill="#E27625" stroke="#E27625" stroke-width="0.171429" stroke-linecap="round" stroke-linejoin="round"/>
<path d="M10.8833 13.1262L9.0224 12.2252L9.17385 13.4338L9.15761 13.9464L10.8833 13.1262Z" fill="#D5BFB2" stroke="#D5BFB2" stroke-width="0.171429" stroke-linecap="round" stroke-linejoin="round"/>
<path d="M5.11127 13.1262L6.84236 13.9464L6.83153 13.4338L6.97757 12.2252L5.11127 13.1262Z" fill="#D5BFB2" stroke="#D5BFB2" stroke-width="0.171429" stroke-linecap="round" stroke-linejoin="round"/>
<path d="M6.87486 10.1747L5.3277 9.72148L6.42044 9.21967L6.87486 10.1747Z" fill="#233447" stroke="#233447" stroke-width="0.171429" stroke-linecap="round" stroke-linejoin="round"/>
<path d="M9.12524 10.1747L9.57967 9.21967L10.6778 9.72148L9.12524 10.1747Z" fill="#233447" stroke="#233447" stroke-width="0.171429" stroke-linecap="round" stroke-linejoin="round"/>
<path d="M5.11127 13.1262L5.38177 10.9031L3.6615 10.9517L5.11127 13.1262Z" fill="#CC6228" stroke="#CC6228" stroke-width="0.171429" stroke-linecap="round" stroke-linejoin="round"/>
<path d="M10.6183 10.9031L10.8834 13.1262L12.3386 10.9517L10.6183 10.9031Z" fill="#CC6228" stroke="#CC6228" stroke-width="0.171429" stroke-linecap="round" stroke-linejoin="round"/>
<path d="M11.9221 8.45349L8.83862 8.59378L9.12532 10.1748L9.57975 9.21968L10.6779 9.7215L11.9221 8.45349Z" fill="#CC6228" stroke="#CC6228" stroke-width="0.171429" stroke-linecap="round" stroke-linejoin="round"/>
<path d="M5.32756 9.7215L6.4203 9.21968L6.87473 10.1748L7.16143 8.59378L4.07794 8.45349L5.32756 9.7215Z" fill="#CC6228" stroke="#CC6228" stroke-width="0.171429" stroke-linecap="round" stroke-linejoin="round"/>
<path d="M4.07819 8.45349L5.3711 10.9733L5.32779 9.7215L4.07819 8.45349Z" fill="#E27525" stroke="#E27525" stroke-width="0.171429" stroke-linecap="round" stroke-linejoin="round"/>
<path d="M10.678 9.7215L10.6293 10.9733L11.9222 8.45349L10.678 9.7215Z" fill="#E27525" stroke="#E27525" stroke-width="0.171429" stroke-linecap="round" stroke-linejoin="round"/>
<path d="M7.16174 8.59375L6.875 10.1747L7.23744 12.0416L7.3186 9.58118L7.16174 8.59375Z" fill="#E27525" stroke="#E27525" stroke-width="0.171429" stroke-linecap="round" stroke-linejoin="round"/>
<path d="M8.83862 8.59375L8.68713 9.57581L8.76288 12.0416L9.12532 10.1747L8.83862 8.59375Z" fill="#E27525" stroke="#E27525" stroke-width="0.171429" stroke-linecap="round" stroke-linejoin="round"/>
<path d="M9.12538 10.1748L8.76294 12.0416L9.02261 12.2251L10.6293 10.9733L10.678 9.7215L9.12538 10.1748Z" fill="#F5841F" stroke="#F5841F" stroke-width="0.171429" stroke-linecap="round" stroke-linejoin="round"/>
<path d="M5.3277 9.7215L5.371 10.9733L6.97763 12.2251L7.23731 12.0416L6.87486 10.1748L5.3277 9.7215Z" fill="#F5841F" stroke="#F5841F" stroke-width="0.171429" stroke-linecap="round" stroke-linejoin="round"/>
<path d="M9.15767 13.9464L9.17387 13.4338L9.03325 13.3151H6.96678L6.83153 13.4338L6.84236 13.9464L5.11127 13.1262L5.71714 13.6226L6.94513 14.4698H9.04945L10.2829 13.6226L10.8833 13.1262L9.15767 13.9464Z" fill="#C0AC9D" stroke="#C0AC9D" stroke-width="0.171429" stroke-linecap="round" stroke-linejoin="round"/>
<path d="M9.02243 12.2251L8.76276 12.0417H7.23725L6.97762 12.2251L6.83154 13.4338L6.96679 13.3151H9.03326L9.17392 13.4338L9.02243 12.2251Z" fill="#161616" stroke="#161616" stroke-width="0.171429" stroke-linecap="round" stroke-linejoin="round"/>
<path d="M14.5402 5.83118L15 3.59737L14.3076 1.52002L9.0224 5.43193L11.0564 7.14774L13.9289 7.98409L14.5618 7.24489L14.286 7.04522L14.7241 6.64597L14.3887 6.38696L14.8269 6.05242L14.5402 5.83118Z" fill="#763E1A" stroke="#763E1A" stroke-width="0.171429" stroke-linecap="round" stroke-linejoin="round"/>
<path d="M1 3.59737L1.46523 5.83118L1.1677 6.05242L1.61129 6.38696L1.27589 6.64597L1.71407 7.04522L1.43818 7.24489L2.07111 7.98409L4.94364 7.14774L6.97763 5.43193L1.69243 1.52002L1 3.59737Z" fill="#763E1A" stroke="#763E1A" stroke-width="0.171429" stroke-linecap="round" stroke-linejoin="round"/>
<path d="M13.9291 7.98408L11.0566 7.14777L11.9222 8.45354L10.6293 10.9733L12.3387 10.9517H14.892L13.9291 7.98408Z" fill="#F5841F" stroke="#F5841F" stroke-width="0.171429" stroke-linecap="round" stroke-linejoin="round"/>
<path d="M4.94358 7.14777L2.07109 7.98408L1.11359 10.9517H3.66152L5.37094 10.9733L4.07806 8.45354L4.94358 7.14777Z" fill="#F5841F" stroke="#F5841F" stroke-width="0.171429" stroke-linecap="round" stroke-linejoin="round"/>
<path d="M8.83859 8.59379L9.02252 5.43188L9.85558 3.18188H6.14459L6.97766 5.43188L7.16159 8.59379L7.23192 9.58659L7.23733 12.0417H8.76284L8.76826 9.58659L8.83859 8.59379Z" fill="#F5841F" stroke="#F5841F" stroke-width="0.171429" stroke-linecap="round" stroke-linejoin="round"/>
</svg>
