<svg width="270" height="180" viewBox="0 0 270 180" fill="none" xmlns="http://www.w3.org/2000/svg">
<g filter="url(#filter0_d_1569_24312)">
</g>
<g filter="url(#filter1_d_1569_24312)">
</g>
<g filter="url(#filter2_ii_1569_24312)">
<path d="M96.5606 116.889C97.4804 113.562 120.167 90.4111 120.167 90.4111L126.781 117.732C126.781 117.732 115.497 126.763 114.939 127.836C114.38 128.909 110.246 142.156 109.833 142.57C109.419 142.984 101.611 147.123 99.935 147.123C98.2586 147.123 95.6407 120.216 96.5606 116.889Z" fill="#04051B"/>
</g>
<path d="M97.3527 117.108C97.3778 117.018 97.4681 116.814 97.6773 116.474C97.8765 116.15 98.1518 115.752 98.4982 115.287C99.1905 114.357 100.139 113.196 101.262 111.883C103.506 109.258 106.419 106.062 109.31 102.963C112.199 99.8657 115.06 96.8712 117.2 94.6507C118.234 93.5769 119.1 92.6843 119.718 92.049L125.859 117.418C125.834 117.439 125.807 117.46 125.78 117.482C125.47 117.732 125.026 118.089 124.492 118.521C123.424 119.386 121.994 120.55 120.545 121.749C119.098 122.946 117.628 124.181 116.483 125.187C115.911 125.689 115.413 126.14 115.037 126.503C114.85 126.684 114.685 126.85 114.555 126.994C114.441 127.119 114.298 127.286 114.21 127.456C114.109 127.651 113.963 128.035 113.802 128.482C113.632 128.956 113.421 129.569 113.185 130.27C112.782 131.461 112.301 132.92 111.811 134.403C111.725 134.666 111.638 134.93 111.551 135.192C110.973 136.942 110.402 138.665 109.949 139.976C109.723 140.632 109.529 141.178 109.38 141.57C109.305 141.767 109.245 141.915 109.201 142.015C109.201 142.015 109.2 142.016 109.2 142.016C109.136 142.057 109.048 142.112 108.937 142.178C108.692 142.324 108.357 142.514 107.953 142.735C107.148 143.175 106.091 143.726 104.995 144.264C103.897 144.803 102.771 145.324 101.822 145.708C101.347 145.901 100.928 146.054 100.585 146.158C100.452 146.199 100.34 146.229 100.247 146.251C100.192 146.122 100.127 145.947 100.056 145.717C99.8408 145.023 99.6116 143.998 99.3799 142.721C98.9183 140.175 98.4651 136.73 98.0916 133.168C97.7184 129.609 97.4264 125.949 97.285 122.978C97.2143 121.491 97.1817 120.185 97.1945 119.154C97.2079 118.089 97.2701 117.407 97.3527 117.108ZM109.158 142.106C109.15 142.121 109.15 142.118 109.159 142.104C109.158 142.105 109.158 142.105 109.158 142.106Z" stroke="url(#paint0_linear_1569_24312)" stroke-width="1.64384"/>
<g filter="url(#filter3_ii_1569_24312)">
<path d="M173.439 116.889C172.52 113.562 149.833 90.4111 149.833 90.4111L143.219 117.732C143.219 117.732 154.503 126.763 155.061 127.836C155.62 128.909 159.754 142.156 160.167 142.57C160.581 142.984 168.389 147.123 170.065 147.123C171.741 147.123 174.359 120.216 173.439 116.889Z" fill="#04051B"/>
</g>
<path d="M172.647 117.108C172.622 117.018 172.532 116.814 172.323 116.474C172.123 116.15 171.848 115.752 171.502 115.287C170.809 114.357 169.861 113.196 168.738 111.883C166.494 109.258 163.581 106.062 160.69 102.963C157.801 99.8657 154.94 96.8712 152.8 94.6507C151.766 93.5769 150.9 92.6843 150.282 92.049L144.141 117.418C144.166 117.439 144.193 117.46 144.22 117.482C144.53 117.732 144.974 118.089 145.508 118.521C146.576 119.386 148.006 120.55 149.455 121.749C150.902 122.946 152.372 124.181 153.517 125.187C154.089 125.689 154.587 126.14 154.963 126.503C155.15 126.684 155.315 126.85 155.445 126.994C155.559 127.119 155.702 127.286 155.79 127.456C155.891 127.651 156.037 128.035 156.198 128.482C156.368 128.956 156.579 129.569 156.815 130.27C157.218 131.461 157.699 132.92 158.189 134.403C158.275 134.666 158.362 134.93 158.449 135.192C159.027 136.942 159.598 138.665 160.051 139.976C160.277 140.632 160.471 141.178 160.62 141.57C160.695 141.767 160.755 141.915 160.799 142.015C160.799 142.015 160.8 142.016 160.8 142.016C160.864 142.057 160.952 142.112 161.063 142.178C161.308 142.324 161.643 142.514 162.047 142.735C162.852 143.175 163.909 143.726 165.005 144.264C166.103 144.803 167.229 145.324 168.178 145.708C168.653 145.901 169.072 146.054 169.415 146.158C169.548 146.199 169.66 146.229 169.753 146.251C169.808 146.122 169.873 145.947 169.944 145.717C170.159 145.023 170.388 143.998 170.62 142.721C171.082 140.175 171.535 136.73 171.908 133.168C172.282 129.609 172.574 125.949 172.715 122.978C172.786 121.491 172.818 120.185 172.805 119.154C172.792 118.089 172.73 117.407 172.647 117.108ZM160.842 142.106C160.85 142.121 160.85 142.118 160.841 142.104C160.842 142.105 160.842 142.105 160.842 142.106Z" stroke="url(#paint1_linear_1569_24312)" stroke-width="1.64384"/>
<g filter="url(#filter4_ii_1569_24312)">
<path d="M135 34.5205C140.77 34.5205 157.192 56.2413 157.192 74.342C157.192 92.4426 157.192 126.575 135 126.575C112.808 126.575 112.808 92.4426 112.808 74.342C112.808 56.2413 129.23 34.5205 135 34.5205Z" fill="#04051B"/>
</g>
<path d="M135 35.3424C135.49 35.3424 136.218 35.585 137.173 36.1851C138.107 36.7725 139.175 37.6488 140.324 38.7823C142.621 41.0475 145.176 44.2753 147.563 48.0803C152.349 55.708 156.37 65.5088 156.37 74.342C156.37 83.4143 156.365 96.3648 153.622 107.042C152.251 112.377 150.214 117.066 147.217 120.411C144.246 123.727 140.305 125.753 135 125.753C129.695 125.753 125.754 123.727 122.782 120.411C119.786 117.066 117.749 112.377 116.378 107.042C113.635 96.3648 113.63 83.4143 113.63 74.342C113.63 65.5088 117.651 55.708 122.437 48.0803C124.824 44.2753 127.379 41.0475 129.675 38.7823C130.825 37.6488 131.892 36.7725 132.827 36.1851C133.782 35.585 134.51 35.3424 135 35.3424Z" stroke="url(#paint2_linear_1569_24312)" stroke-width="1.64384"/>
<path d="M123.493 128.706C123.493 128.706 128.288 132.463 135 132.463C141.712 132.463 146.507 128.706 146.507 128.706L135 141.857L123.493 128.706Z" fill="url(#paint3_radial_1569_24312)"/>
<path d="M144.041 75.6168C144.041 79.5625 142.973 83.0976 141.29 85.6222C139.603 88.1525 137.363 89.5894 135 89.5894C132.637 89.5894 130.397 88.1525 128.71 85.6222C127.027 83.0976 125.959 79.5625 125.959 75.6168C125.959 71.671 127.027 68.136 128.71 65.6114C130.397 63.0811 132.637 61.6442 135 61.6442C137.363 61.6442 139.603 63.0811 141.29 65.6114C142.973 68.136 144.041 71.671 144.041 75.6168Z" stroke="url(#paint4_linear_1569_24312)" stroke-width="1.64384"/>
<path d="M87.3289 35.4683L88.1452 40.4243C88.2025 40.7719 88.4749 41.0444 88.8226 41.1017L93.7786 41.918L88.8226 42.7343C88.4749 42.7916 88.2025 43.0641 88.1452 43.4117L87.3289 48.3677L86.5125 43.4117C86.4553 43.0641 86.1828 42.7916 85.8351 42.7343L80.8792 41.918L85.8351 41.1017C86.1828 41.0444 86.4553 40.7719 86.5125 40.4243L87.3289 35.4683Z" fill="#00FFFF" stroke="#00FFFF" stroke-width="1.64384" stroke-linejoin="round"/>
<path d="M199.11 140.673L199.229 141.395C199.286 141.743 199.558 142.015 199.906 142.073L200.628 142.192L199.906 142.31C199.558 142.368 199.286 142.64 199.229 142.988L199.11 143.71L198.991 142.988C198.934 142.64 198.661 142.368 198.313 142.31L197.592 142.192L198.313 142.073C198.661 142.015 198.934 141.743 198.991 141.395L199.11 140.673Z" fill="#00FFFF" stroke="#00FFFF" stroke-width="1.64384" stroke-linejoin="round"/>
<defs>
<filter id="filter0_d_1569_24312" x="165.411" y="108.493" width="67.3972" height="67.397" filterUnits="userSpaceOnUse" color-interpolation-filters="sRGB">
<feFlood flood-opacity="0" result="BackgroundImageFix"/>
<feColorMatrix in="SourceAlpha" type="matrix" values="0 0 0 0 0 0 0 0 0 0 0 0 0 0 0 0 0 0 127 0" result="hardAlpha"/>
<feMorphology radius="9.86301" operator="dilate" in="SourceAlpha" result="effect1_dropShadow_1569_24312"/>
<feOffset/>
<feGaussianBlur stdDeviation="11.5068"/>
<feColorMatrix type="matrix" values="0 0 0 0 0.612514 0 0 0 0 1 0 0 0 0 1 0 0 0 0.3 0"/>
<feBlend mode="normal" in2="BackgroundImageFix" result="effect1_dropShadow_1569_24312"/>
<feBlend mode="normal" in="SourceGraphic" in2="effect1_dropShadow_1569_24312" result="shape"/>
</filter>
<filter id="filter1_d_1569_24312" x="49.5205" y="4.1094" width="75.6164" height="75.6162" filterUnits="userSpaceOnUse" color-interpolation-filters="sRGB">
<feFlood flood-opacity="0" result="BackgroundImageFix"/>
<feColorMatrix in="SourceAlpha" type="matrix" values="0 0 0 0 0 0 0 0 0 0 0 0 0 0 0 0 0 0 127 0" result="hardAlpha"/>
<feMorphology radius="12.3288" operator="dilate" in="SourceAlpha" result="effect1_dropShadow_1569_24312"/>
<feOffset/>
<feGaussianBlur stdDeviation="12.3288"/>
<feColorMatrix type="matrix" values="0 0 0 0 0.612514 0 0 0 0 1 0 0 0 0 1 0 0 0 0.3 0"/>
<feBlend mode="normal" in2="BackgroundImageFix" result="effect1_dropShadow_1569_24312"/>
<feBlend mode="normal" in="SourceGraphic" in2="effect1_dropShadow_1569_24312" result="shape"/>
</filter>
<filter id="filter2_ii_1569_24312" x="96.3699" y="90.4111" width="30.4109" height="66.5749" filterUnits="userSpaceOnUse" color-interpolation-filters="sRGB">
<feFlood flood-opacity="0" result="BackgroundImageFix"/>
<feBlend mode="normal" in="SourceGraphic" in2="BackgroundImageFix" result="shape"/>
<feColorMatrix in="SourceAlpha" type="matrix" values="0 0 0 0 0 0 0 0 0 0 0 0 0 0 0 0 0 0 127 0" result="hardAlpha"/>
<feOffset dy="4.93151"/>
<feGaussianBlur stdDeviation="4.93151"/>
<feComposite in2="hardAlpha" operator="arithmetic" k2="-1" k3="1"/>
<feColorMatrix type="matrix" values="0 0 0 0 0.301961 0 0 0 0 0.294118 0 0 0 0 0.878431 0 0 0 1 0"/>
<feBlend mode="normal" in2="shape" result="effect1_innerShadow_1569_24312"/>
<feColorMatrix in="SourceAlpha" type="matrix" values="0 0 0 0 0 0 0 0 0 0 0 0 0 0 0 0 0 0 127 0" result="hardAlpha"/>
<feOffset dy="9.86301"/>
<feGaussianBlur stdDeviation="13.1507"/>
<feComposite in2="hardAlpha" operator="arithmetic" k2="-1" k3="1"/>
<feColorMatrix type="matrix" values="0 0 0 0 0.301961 0 0 0 0 0.294118 0 0 0 0 0.878431 0 0 0 0.8 0"/>
<feBlend mode="normal" in2="effect1_innerShadow_1569_24312" result="effect2_innerShadow_1569_24312"/>
</filter>
<filter id="filter3_ii_1569_24312" x="143.219" y="90.4111" width="30.4109" height="66.5749" filterUnits="userSpaceOnUse" color-interpolation-filters="sRGB">
<feFlood flood-opacity="0" result="BackgroundImageFix"/>
<feBlend mode="normal" in="SourceGraphic" in2="BackgroundImageFix" result="shape"/>
<feColorMatrix in="SourceAlpha" type="matrix" values="0 0 0 0 0 0 0 0 0 0 0 0 0 0 0 0 0 0 127 0" result="hardAlpha"/>
<feOffset dy="4.93151"/>
<feGaussianBlur stdDeviation="4.93151"/>
<feComposite in2="hardAlpha" operator="arithmetic" k2="-1" k3="1"/>
<feColorMatrix type="matrix" values="0 0 0 0 0.301961 0 0 0 0 0.294118 0 0 0 0 0.878431 0 0 0 1 0"/>
<feBlend mode="normal" in2="shape" result="effect1_innerShadow_1569_24312"/>
<feColorMatrix in="SourceAlpha" type="matrix" values="0 0 0 0 0 0 0 0 0 0 0 0 0 0 0 0 0 0 127 0" result="hardAlpha"/>
<feOffset dy="9.86301"/>
<feGaussianBlur stdDeviation="13.1507"/>
<feComposite in2="hardAlpha" operator="arithmetic" k2="-1" k3="1"/>
<feColorMatrix type="matrix" values="0 0 0 0 0.301961 0 0 0 0 0.294118 0 0 0 0 0.878431 0 0 0 0.8 0"/>
<feBlend mode="normal" in2="effect1_innerShadow_1569_24312" result="effect2_innerShadow_1569_24312"/>
</filter>
<filter id="filter4_ii_1569_24312" x="112.808" y="34.5205" width="44.3835" height="100.274" filterUnits="userSpaceOnUse" color-interpolation-filters="sRGB">
<feFlood flood-opacity="0" result="BackgroundImageFix"/>
<feBlend mode="normal" in="SourceGraphic" in2="BackgroundImageFix" result="shape"/>
<feColorMatrix in="SourceAlpha" type="matrix" values="0 0 0 0 0 0 0 0 0 0 0 0 0 0 0 0 0 0 127 0" result="hardAlpha"/>
<feOffset dy="4.10959"/>
<feGaussianBlur stdDeviation="4.10959"/>
<feComposite in2="hardAlpha" operator="arithmetic" k2="-1" k3="1"/>
<feColorMatrix type="matrix" values="0 0 0 0 0.301961 0 0 0 0 0.294118 0 0 0 0 0.878431 0 0 0 1 0"/>
<feBlend mode="normal" in2="shape" result="effect1_innerShadow_1569_24312"/>
<feColorMatrix in="SourceAlpha" type="matrix" values="0 0 0 0 0 0 0 0 0 0 0 0 0 0 0 0 0 0 127 0" result="hardAlpha"/>
<feOffset dy="8.21918"/>
<feGaussianBlur stdDeviation="10.274"/>
<feComposite in2="hardAlpha" operator="arithmetic" k2="-1" k3="1"/>
<feColorMatrix type="matrix" values="0 0 0 0 0.301961 0 0 0 0 0.294118 0 0 0 0 0.878431 0 0 0 0.8 0"/>
<feBlend mode="normal" in2="effect1_innerShadow_1569_24312" result="effect2_innerShadow_1569_24312"/>
</filter>
<linearGradient id="paint0_linear_1569_24312" x1="112.421" y1="90.8251" x2="112.421" y2="147.123" gradientUnits="userSpaceOnUse">
<stop stop-color="#4BAAE0"/>
<stop offset="1" stop-color="#4BAAE0" stop-opacity="0"/>
</linearGradient>
<linearGradient id="paint1_linear_1569_24312" x1="157.579" y1="90.8251" x2="157.579" y2="147.123" gradientUnits="userSpaceOnUse">
<stop stop-color="#4BAAE0"/>
<stop offset="1" stop-color="#4BAAE0" stop-opacity="0"/>
</linearGradient>
<linearGradient id="paint2_linear_1569_24312" x1="135.134" y1="34.5205" x2="135.134" y2="126.575" gradientUnits="userSpaceOnUse">
<stop stop-color="#4BAAE0"/>
<stop offset="1" stop-color="#00FFFF" stop-opacity="0.3"/>
</linearGradient>
<radialGradient id="paint3_radial_1569_24312" cx="0" cy="0" r="1" gradientUnits="userSpaceOnUse" gradientTransform="translate(135 129.041) rotate(90) scale(12.8158 22.4276)">
<stop stop-color="#00FFFF" stop-opacity="0.6"/>
<stop offset="1" stop-color="#AD00FF" stop-opacity="0.8"/>
</radialGradient>
<linearGradient id="paint4_linear_1569_24312" x1="135.06" y1="60.8223" x2="135.06" y2="90.4113" gradientUnits="userSpaceOnUse">
<stop stop-color="#4BAAE0"/>
<stop offset="1" stop-color="#AD00FF"/>
</linearGradient>
</defs>
</svg>
