<svg width="270" height="180" viewBox="0 0 270 180" fill="none" xmlns="http://www.w3.org/2000/svg">
<g clip-path="url(#clip0_1569_24338)">
<g filter="url(#filter0_i_1569_24338)">
<path d="M70.8906 144.657H78.0034H187.066H194.178V149.589H70.8906V144.657Z" fill="#04051B"/>
</g>
<path d="M71.7125 145.479H78.0034H187.066H193.356V148.767H71.7125V145.479Z" stroke="url(#paint0_linear_1569_24338)" stroke-opacity="0.55" stroke-width="1.64384"/>
<g filter="url(#filter1_ii_1569_24338)">
<path d="M116.918 64.9317L132.534 64.9316L148.151 64.9317V144.658H116.918V64.9317Z" fill="#04051B"/>
</g>
<path d="M117.74 65.7536L132.534 65.7536L147.329 65.7536V143.836H117.74V65.7536Z" stroke="url(#paint1_linear_1569_24338)" stroke-width="1.64384"/>
<g filter="url(#filter2_ii_1569_24338)">
<path d="M82.3975 92.877L98.0139 92.8769L113.63 92.877V144.658H82.3975V92.877Z" fill="#04051B"/>
</g>
<path d="M83.2194 93.6989L98.0139 93.6989L112.808 93.6989V143.836H83.2194V93.6989Z" stroke="url(#paint2_linear_1569_24338)" stroke-width="1.64384"/>
<g filter="url(#filter3_ii_1569_24338)">
<path d="M151.438 109.315L167.055 109.315L182.671 109.315V144.658H151.438V109.315Z" fill="#04051B"/>
</g>
<path d="M152.26 110.137L167.055 110.137L181.849 110.137V143.836H152.26V110.137Z" stroke="url(#paint3_linear_1569_24338)" stroke-width="1.64384"/>
<path d="M167.055 89.5889L168.91 93.6108L173.308 94.1323L170.057 97.1395L170.92 101.484L167.055 99.3204L163.19 101.484L164.053 97.1395L160.801 94.1323L165.2 93.6108L167.055 89.5889Z" fill="url(#paint4_linear_1569_24338)"/>
<path d="M98.0139 69.8623L100.333 74.8897L105.831 75.5416L101.766 79.3006L102.845 84.7309L98.0139 82.0267L93.1827 84.7309L94.2617 79.3006L90.197 75.5416L95.6949 74.8897L98.0139 69.8623Z" fill="url(#paint5_linear_1569_24338)"/>
<path d="M132.534 38.6309L135.317 44.6638L141.915 45.446L137.037 49.9568L138.332 56.4732L132.534 53.2281L126.737 56.4732L128.032 49.9568L123.154 45.446L129.752 44.6638L132.534 38.6309Z" fill="url(#paint6_linear_1569_24338)"/>
</g>
<defs>
<filter id="filter0_i_1569_24338" x="70.8906" y="144.657" width="123.288" height="9.04123" filterUnits="userSpaceOnUse" color-interpolation-filters="sRGB">
<feFlood flood-opacity="0" result="BackgroundImageFix"/>
<feBlend mode="normal" in="SourceGraphic" in2="BackgroundImageFix" result="shape"/>
<feColorMatrix in="SourceAlpha" type="matrix" values="0 0 0 0 0 0 0 0 0 0 0 0 0 0 0 0 0 0 127 0" result="hardAlpha"/>
<feOffset dy="4.10959"/>
<feGaussianBlur stdDeviation="4.10959"/>
<feComposite in2="hardAlpha" operator="arithmetic" k2="-1" k3="1"/>
<feColorMatrix type="matrix" values="0 0 0 0 0.301961 0 0 0 0 0.294118 0 0 0 0 0.878431 0 0 0 1 0"/>
<feBlend mode="normal" in2="shape" result="effect1_innerShadow_1569_24338"/>
</filter>
<filter id="filter1_ii_1569_24338" x="116.918" y="64.9316" width="31.2329" height="87.9448" filterUnits="userSpaceOnUse" color-interpolation-filters="sRGB">
<feFlood flood-opacity="0" result="BackgroundImageFix"/>
<feBlend mode="normal" in="SourceGraphic" in2="BackgroundImageFix" result="shape"/>
<feColorMatrix in="SourceAlpha" type="matrix" values="0 0 0 0 0 0 0 0 0 0 0 0 0 0 0 0 0 0 127 0" result="hardAlpha"/>
<feOffset dy="4.10959"/>
<feGaussianBlur stdDeviation="4.10959"/>
<feComposite in2="hardAlpha" operator="arithmetic" k2="-1" k3="1"/>
<feColorMatrix type="matrix" values="0 0 0 0 0.301961 0 0 0 0 0.294118 0 0 0 0 0.878431 0 0 0 1 0"/>
<feBlend mode="normal" in2="shape" result="effect1_innerShadow_1569_24338"/>
<feColorMatrix in="SourceAlpha" type="matrix" values="0 0 0 0 0 0 0 0 0 0 0 0 0 0 0 0 0 0 127 0" result="hardAlpha"/>
<feOffset dy="8.21918"/>
<feGaussianBlur stdDeviation="10.274"/>
<feComposite in2="hardAlpha" operator="arithmetic" k2="-1" k3="1"/>
<feColorMatrix type="matrix" values="0 0 0 0 0.301961 0 0 0 0 0.294118 0 0 0 0 0.878431 0 0 0 1 0"/>
<feBlend mode="normal" in2="effect1_innerShadow_1569_24338" result="effect2_innerShadow_1569_24338"/>
</filter>
<filter id="filter2_ii_1569_24338" x="82.3975" y="92.877" width="31.2329" height="60.0004" filterUnits="userSpaceOnUse" color-interpolation-filters="sRGB">
<feFlood flood-opacity="0" result="BackgroundImageFix"/>
<feBlend mode="normal" in="SourceGraphic" in2="BackgroundImageFix" result="shape"/>
<feColorMatrix in="SourceAlpha" type="matrix" values="0 0 0 0 0 0 0 0 0 0 0 0 0 0 0 0 0 0 127 0" result="hardAlpha"/>
<feOffset dy="4.10959"/>
<feGaussianBlur stdDeviation="4.10959"/>
<feComposite in2="hardAlpha" operator="arithmetic" k2="-1" k3="1"/>
<feColorMatrix type="matrix" values="0 0 0 0 0.678431 0 0 0 0 0 0 0 0 0 1 0 0 0 1 0"/>
<feBlend mode="normal" in2="shape" result="effect1_innerShadow_1569_24338"/>
<feColorMatrix in="SourceAlpha" type="matrix" values="0 0 0 0 0 0 0 0 0 0 0 0 0 0 0 0 0 0 127 0" result="hardAlpha"/>
<feOffset dy="8.21918"/>
<feGaussianBlur stdDeviation="10.274"/>
<feComposite in2="hardAlpha" operator="arithmetic" k2="-1" k3="1"/>
<feColorMatrix type="matrix" values="0 0 0 0 0.678431 0 0 0 0 0 0 0 0 0 1 0 0 0 0.6 0"/>
<feBlend mode="normal" in2="effect1_innerShadow_1569_24338" result="effect2_innerShadow_1569_24338"/>
</filter>
<filter id="filter3_ii_1569_24338" x="151.438" y="109.315" width="31.2329" height="43.562" filterUnits="userSpaceOnUse" color-interpolation-filters="sRGB">
<feFlood flood-opacity="0" result="BackgroundImageFix"/>
<feBlend mode="normal" in="SourceGraphic" in2="BackgroundImageFix" result="shape"/>
<feColorMatrix in="SourceAlpha" type="matrix" values="0 0 0 0 0 0 0 0 0 0 0 0 0 0 0 0 0 0 127 0" result="hardAlpha"/>
<feOffset dy="4.10959"/>
<feGaussianBlur stdDeviation="4.10959"/>
<feComposite in2="hardAlpha" operator="arithmetic" k2="-1" k3="1"/>
<feColorMatrix type="matrix" values="0 0 0 0 0.501961 0 0 0 0 0 0 0 0 0 1 0 0 0 1 0"/>
<feBlend mode="normal" in2="shape" result="effect1_innerShadow_1569_24338"/>
<feColorMatrix in="SourceAlpha" type="matrix" values="0 0 0 0 0 0 0 0 0 0 0 0 0 0 0 0 0 0 127 0" result="hardAlpha"/>
<feOffset dy="8.21918"/>
<feGaussianBlur stdDeviation="10.274"/>
<feComposite in2="hardAlpha" operator="arithmetic" k2="-1" k3="1"/>
<feColorMatrix type="matrix" values="0 0 0 0 0.501961 0 0 0 0 0 0 0 0 0 1 0 0 0 0.6 0"/>
<feBlend mode="normal" in2="effect1_innerShadow_1569_24338" result="effect2_innerShadow_1569_24338"/>
</filter>
<linearGradient id="paint0_linear_1569_24338" x1="132.897" y1="144.657" x2="132.897" y2="146.301" gradientUnits="userSpaceOnUse">
<stop stop-color="#00FFFF"/>
<stop offset="1" stop-color="#00FFFF" stop-opacity="0"/>
</linearGradient>
<linearGradient id="paint1_linear_1569_24338" x1="116.918" y1="49.5459" x2="160.745" y2="69.6605" gradientUnits="userSpaceOnUse">
<stop stop-color="#4BAAE0"/>
<stop offset="1" stop-color="#4BAAE0" stop-opacity="0"/>
</linearGradient>
<linearGradient id="paint2_linear_1569_24338" x1="98.1085" y1="92.877" x2="98.1085" y2="144.658" gradientUnits="userSpaceOnUse">
<stop stop-color="#AD00FF"/>
<stop offset="1" stop-color="#AD00FF" stop-opacity="0"/>
</linearGradient>
<linearGradient id="paint3_linear_1569_24338" x1="167.15" y1="109.315" x2="167.15" y2="144.658" gradientUnits="userSpaceOnUse">
<stop stop-color="#8000FF"/>
<stop offset="1" stop-color="#8000FF" stop-opacity="0"/>
</linearGradient>
<linearGradient id="paint4_linear_1569_24338" x1="167.055" y1="89.5889" x2="167.055" y2="102.74" gradientUnits="userSpaceOnUse">
<stop stop-color="#A3FFF4"/>
<stop offset="1" stop-color="#00FFFF" stop-opacity="0.6"/>
</linearGradient>
<linearGradient id="paint5_linear_1569_24338" x1="98.0139" y1="69.8623" x2="98.0139" y2="86.3007" gradientUnits="userSpaceOnUse">
<stop stop-color="#A3FFF4"/>
<stop offset="1" stop-color="#00FFFF" stop-opacity="0.6"/>
</linearGradient>
<linearGradient id="paint6_linear_1569_24338" x1="132.534" y1="38.6309" x2="132.534" y2="58.3569" gradientUnits="userSpaceOnUse">
<stop stop-color="#A3FFF4"/>
<stop offset="1" stop-color="#00FFFF" stop-opacity="0.6"/>
</linearGradient>
<clipPath id="clip0_1569_24338">
<path d="M0.205566 3.28767C0.205566 1.47194 1.67751 0 3.49324 0H266.507C268.323 0 269.795 1.47194 269.795 3.28767V176.712C269.795 178.528 268.323 180 266.507 180H3.49323C1.6775 180 0.205566 178.528 0.205566 176.712V3.28767Z" fill="white"/>
</clipPath>
</defs>
</svg>
