<svg width="19" height="19" viewBox="0 0 19 19" fill="none" xmlns="http://www.w3.org/2000/svg">
<g clip-path="url(#clip0_12_3440)">
<path d="M9.5 0C6.98102 0 4.56297 1.00151 2.7832 2.78246C1.00161 4.56413 0.000509806 6.9804 0 9.5C0 12.0185 1.00195 14.4366 2.7832 16.2175C4.56297 17.9985 6.98102 19 9.5 19C12.019 19 14.437 17.9985 16.2168 16.2175C17.998 14.4366 19 12.0185 19 9.5C19 6.98146 17.998 4.56341 16.2168 2.78246C14.437 1.00151 12.019 0 9.5 0Z" fill="url(#paint0_linear_12_3440)"/>
<path d="M4.30029 9.39954C7.07013 8.19304 8.9167 7.39761 9.83998 7.01326C12.4792 5.91586 13.0269 5.72526 13.3847 5.71881C13.4633 5.71754 13.6385 5.73699 13.7528 5.82939C13.8478 5.90732 13.8745 6.01271 13.8879 6.08671C13.8997 6.16063 13.9161 6.32911 13.9027 6.46062C13.7602 7.96281 13.1412 11.6081 12.8265 13.2907C12.6944 14.0026 12.4317 14.2413 12.1779 14.2646C11.6257 14.3153 11.2071 13.9 10.6727 13.5498C9.83701 13.0017 9.36498 12.6606 8.55303 12.1257C7.6149 11.5076 8.22349 11.1679 8.75787 10.6127C8.8974 10.4674 11.3288 8.25642 11.3748 8.05588C11.3808 8.03079 11.3867 7.93728 11.3303 7.888C11.2754 7.83857 11.1937 7.85549 11.1344 7.86885C11.0497 7.88785 9.71529 8.77076 7.12654 10.5174C6.74803 10.7778 6.40513 10.9047 6.09638 10.898C5.75795 10.8907 5.10482 10.7062 4.61943 10.5486C4.02568 10.3552 3.55217 10.2529 3.59373 9.92441C3.61451 9.75341 3.85053 9.5784 4.30029 9.39954Z" fill="white"/>
</g>
<defs>
<linearGradient id="paint0_linear_12_3440" x1="950" y1="0" x2="950" y2="1900" gradientUnits="userSpaceOnUse">
<stop stop-color="#2AABEE"/>
<stop offset="1" stop-color="#229ED9"/>
</linearGradient>
<clipPath id="clip0_12_3440">
<rect width="19" height="19" fill="white"/>
</clipPath>
</defs>
</svg>
