<svg width="16" height="16" viewBox="0 0 16 16" fill="none" xmlns="http://www.w3.org/2000/svg">
<path d="M15.762 3.29134C15.2054 3.53801 14.6074 3.70468 13.9787 3.78001C14.6274 3.39187 15.1127 2.78099 15.344 2.06134C14.7346 2.42334 14.0676 2.67814 13.372 2.81468C12.9043 2.31525 12.2847 1.98423 11.6096 1.87299C10.9344 1.76176 10.2414 1.87654 9.63819 2.19951C9.03495 2.52249 8.55521 3.03559 8.27346 3.65915C7.99172 4.28271 7.92372 4.98184 8.08003 5.64801C6.84515 5.58601 5.63711 5.26504 4.53431 4.70595C3.43151 4.14685 2.45859 3.36212 1.67869 2.40268C1.41203 2.86268 1.25869 3.39601 1.25869 3.96401C1.2584 4.47534 1.38432 4.97884 1.62528 5.42983C1.86624 5.88083 2.2148 6.26537 2.64003 6.54934C2.14688 6.53365 1.66461 6.4004 1.23336 6.16068V6.20068C1.23331 6.91784 1.48138 7.61293 1.93548 8.16801C2.38958 8.72309 3.02174 9.10396 3.72469 9.24601C3.26722 9.36982 2.78759 9.38806 2.32203 9.29934C2.52036 9.91642 2.90669 10.456 3.42694 10.8426C3.94719 11.2292 4.57531 11.4435 5.22336 11.4553C4.12325 12.319 2.76462 12.7874 1.36603 12.7853C1.11828 12.7854 0.870746 12.7709 0.624695 12.742C2.04435 13.6548 3.69692 14.1392 5.38469 14.1373C11.098 14.1373 14.2214 9.40534 14.2214 5.30134C14.2214 5.16801 14.218 5.03334 14.212 4.90001C14.8196 4.46066 15.344 3.91661 15.7607 3.29334L15.762 3.29134V3.29134Z" fill="#1D9BF0"/>
</svg>
