<svg width="16" height="16" viewBox="0 0 16 16" fill="none" xmlns="http://www.w3.org/2000/svg">
<g clip-path="url(#clip0_2967_156087)">
<path d="M5.32285 9.41813C4.52314 9.41813 3.87107 8.69147 3.87107 7.80179C3.87107 6.91288 4.50699 6.18699 5.32362 6.18699C6.13102 6.18699 6.79232 6.91288 6.77617 7.80179C6.77617 8.69147 6.13102 9.41813 5.32285 9.41813ZM10.6855 9.41813C9.88582 9.41813 9.23221 8.69147 9.23221 7.80179C9.23221 6.91288 9.86967 6.18699 10.6855 6.18699C11.4929 6.18699 12.1542 6.91288 12.1388 7.80179C12.1388 8.69147 11.5014 9.41813 10.6855 9.41813ZM6.55702 2.0954L6.32018 1.66248L5.83267 1.74322C4.72782 1.92744 3.65254 2.25845 2.63536 2.72748L2.46004 2.80898L2.35085 2.9697C0.341575 5.93324 -0.209765 8.85065 0.0632135 11.7173L0.0932027 12.0295L0.346957 12.214C1.52899 13.0813 2.84918 13.7425 4.2517 14.1695L4.85917 14.3556L5.71502 12.2663C7.18372 12.6293 8.8139 12.63 10.2818 12.2663L11.1331 14.3563L11.7405 14.1695C13.1441 13.7436 14.465 13.0821 15.6468 12.2133L15.8983 12.0303L15.929 11.7211C16.2643 8.39927 15.3931 5.50493 13.6545 2.96662L13.5453 2.80745L13.3699 2.72748C12.353 2.26059 11.279 1.92966 10.1757 1.74322L9.7005 1.66401L9.45905 2.08002C9.38754 2.20442 9.3201 2.3311 9.25681 2.45988C8.42267 2.37371 7.58186 2.37371 6.74772 2.45988C6.68646 2.33719 6.62288 2.21568 6.55702 2.0954ZM3.93489 11.5435C4.08637 11.6312 4.24632 11.7173 4.40395 11.7957L4.05869 12.6385C3.12487 12.2981 2.2389 11.8386 1.42272 11.2713C1.24971 8.85757 1.7403 6.42306 3.39432 3.91243C4.09234 3.60501 4.81996 3.36977 5.56584 3.21038C5.61198 3.3065 5.65504 3.40031 5.69041 3.48412L5.90033 3.97856L6.43245 3.9009C7.47522 3.74812 8.53469 3.74812 9.57747 3.9009L10.108 3.97779L10.3172 3.48412C10.3533 3.398 10.3956 3.30419 10.4402 3.21038C11.1915 3.37186 11.9189 3.60946 12.6148 3.91397C14.0566 6.08242 14.784 8.50154 14.5726 11.2705C13.7564 11.8388 12.8698 12.2984 11.9351 12.6377L11.5929 11.7965C11.7513 11.7173 11.9112 11.6312 12.0643 11.5435C12.441 11.3267 12.8463 11.056 13.1047 10.7976L12.1204 9.81337C11.9951 9.93948 11.7182 10.1363 11.3691 10.3378C11.0277 10.5347 10.6886 10.6938 10.4718 10.7653C8.93155 11.2752 7.06684 11.2752 5.52585 10.7653C5.30978 10.6938 4.97067 10.5347 4.62925 10.3378C4.28015 10.1371 4.00333 9.93948 3.87722 9.81337L2.89296 10.7976C3.1521 11.056 3.5581 11.3267 3.93489 11.5435Z" fill="#00FFFF"/>
</g>
<defs>
<clipPath id="clip0_2967_156087">
<rect width="16" height="16" fill="white"/>
</clipPath>
</defs>
</svg>
