<svg width="17" height="16" viewBox="0 0 17 16" fill="none" xmlns="http://www.w3.org/2000/svg">
<g clip-path="url(#clip0_2967_155801)">
<path d="M13.3785 15.1558C13.2535 15.1558 13.1294 15.1188 13.0229 15.0466L8.99988 12.3177L6.84214 13.8703C6.67292 13.992 6.45479 14.0227 6.25829 13.9524C6.06204 13.882 5.913 13.7194 5.8598 13.5178L4.77637 9.41197L0.90517 7.93174C0.661462 7.83851 0.499835 7.60536 0.498062 7.34443C0.496288 7.08349 0.654707 6.84814 0.897232 6.75162L15.617 0.894536C15.6838 0.866163 15.7544 0.84978 15.8257 0.845389C15.8512 0.843869 15.8768 0.843869 15.9022 0.845305C16.0498 0.854087 16.1948 0.914212 16.308 1.02517C16.3197 1.03666 16.3309 1.04839 16.3414 1.06064C16.4352 1.16771 16.4867 1.29827 16.4964 1.43127C16.4987 1.46471 16.4986 1.49857 16.4956 1.53243C16.4936 1.55658 16.4901 1.58065 16.4852 1.60455L14.0006 14.641C13.9607 14.8505 13.8181 15.0258 13.6212 15.1074C13.5431 15.1399 13.4606 15.1558 13.3785 15.1558ZM9.35311 11.0267L12.9367 13.4575L14.87 3.31362L7.88748 10.0326L9.33622 11.0153C9.34205 11.019 9.34762 11.0228 9.35311 11.0267ZM6.36993 10.4862L6.84974 12.3043L7.88352 11.5604L6.52987 10.6422C6.46695 10.5996 6.41308 10.5466 6.36993 10.4862ZM2.874 7.3283L5.53215 8.34459C5.72257 8.41738 5.8663 8.57749 5.91832 8.77458L6.25542 10.0521C6.27087 9.90479 6.33767 9.76613 6.44618 9.66167L13.0995 3.25958L2.874 7.3283Z" fill="#00FFFF"/>
</g>
<defs>
<clipPath id="clip0_2967_155801">
<rect width="16" height="16" fill="white" transform="translate(0.5)"/>
</clipPath>
</defs>
</svg>
