<svg width="17" height="16" viewBox="0 0 17 16" fill="none" xmlns="http://www.w3.org/2000/svg">
<g clip-path="url(#clip0_2967_156363)">
<path d="M7 1C10.0533 1 12.775 3.07667 12.9865 5.95289C14.7145 6.62333 16 8.13844 16 10.044C16 11.4961 15.2305 12.7444 14.11 13.5386C14.0939 13.6516 14.0884 13.7659 14.0935 13.88L14.104 14.2222C14.104 14.4285 14.025 14.6263 13.8843 14.7722C13.7437 14.9181 13.5529 15 13.354 15C12.7855 15 12.259 14.8079 11.8135 14.4478C11.539 14.4882 11.262 14.5085 10.9847 14.5084C8.9095 14.5084 6.99325 13.3488 6.27175 11.591C6.15791 11.5789 6.04437 11.5638 5.93125 11.5459C5.39425 11.9869 4.77625 12.2342 4.08325 12.2342C3.88434 12.2342 3.69357 12.1523 3.55292 12.0064C3.41227 11.8606 3.33325 11.6627 3.33325 11.4564L3.337 11.2986L3.3505 10.9797C3.3583 10.8207 3.34364 10.6614 3.307 10.5068C1.936 9.55867 1 8.05678 1 6.31456C1 3.25244 3.82 1 7 1ZM10.9847 7.13589C8.90875 7.13589 7.46875 8.56467 7.46875 10.0448C7.46875 11.5241 8.90875 12.9537 10.9847 12.9537C11.256 12.9537 11.5267 12.9274 11.7933 12.8751C12.1188 12.8113 12.4075 12.9529 12.6558 13.1551C12.73 12.8183 12.8987 12.5002 13.1852 12.3089C14.0223 11.7489 14.5 10.919 14.5 10.0448C14.5 8.56467 13.0608 7.13589 10.9847 7.13589ZM7 2.55556C4.381 2.55556 2.5 4.36544 2.5 6.31456C2.5 7.46333 3.12775 8.53744 4.198 9.25222C4.59625 9.519 4.768 9.99656 4.8205 10.4648L5.182 10.1988C5.413 10.037 5.6545 9.91411 5.9695 9.97478C6.0115 7.41822 8.37175 5.58033 10.9847 5.58033C11.1287 5.58033 11.272 5.58578 11.4145 5.59667C11.0208 3.94311 9.29425 2.55556 7 2.55556ZM9.715 8.77778C9.91391 8.77778 10.1047 8.85972 10.2453 9.00558C10.386 9.15145 10.465 9.34928 10.465 9.55556C10.465 9.76184 10.386 9.95967 10.2453 10.1055C10.1047 10.2514 9.91391 10.3333 9.715 10.3333C9.51609 10.3333 9.32532 10.2514 9.18467 10.1055C9.04402 9.95967 8.965 9.76184 8.965 9.55556C8.965 9.34928 9.04402 9.15145 9.18467 9.00558C9.32532 8.85972 9.51609 8.77778 9.715 8.77778ZM12.25 8.77778C12.4489 8.77778 12.6397 8.85972 12.7803 9.00558C12.921 9.15145 13 9.34928 13 9.55556C13 9.76184 12.921 9.95967 12.7803 10.1055C12.6397 10.2514 12.4489 10.3333 12.25 10.3333C12.0511 10.3333 11.8603 10.2514 11.7197 10.1055C11.579 9.95967 11.5 9.76184 11.5 9.55556C11.5 9.34928 11.579 9.15145 11.7197 9.00558C11.8603 8.85972 12.0511 8.77778 12.25 8.77778ZM5.5 4.11111C5.69891 4.11111 5.88968 4.19306 6.03033 4.33892C6.17098 4.48478 6.25 4.68261 6.25 4.88889C6.25 5.09517 6.17098 5.293 6.03033 5.43886C5.88968 5.58472 5.69891 5.66667 5.5 5.66667C5.30109 5.66667 5.11032 5.58472 4.96967 5.43886C4.82902 5.293 4.75 5.09517 4.75 4.88889C4.75 4.68261 4.82902 4.48478 4.96967 4.33892C5.11032 4.19306 5.30109 4.11111 5.5 4.11111ZM8.5 4.11111C8.69891 4.11111 8.88968 4.19306 9.03033 4.33892C9.17098 4.48478 9.25 4.68261 9.25 4.88889C9.25 5.09517 9.17098 5.293 9.03033 5.43886C8.88968 5.58472 8.69891 5.66667 8.5 5.66667C8.30109 5.66667 8.11032 5.58472 7.96967 5.43886C7.82902 5.293 7.75 5.09517 7.75 4.88889C7.75 4.68261 7.82902 4.48478 7.96967 4.33892C8.11032 4.19306 8.30109 4.11111 8.5 4.11111Z" fill="#00FFFF"/>
</g>
<defs>
<clipPath id="clip0_2967_156363">
<rect width="16" height="16" fill="white" transform="translate(0.5)"/>
</clipPath>
</defs>
</svg>
