<svg width="16" height="16" viewBox="0 0 16 16" fill="none" xmlns="http://www.w3.org/2000/svg">
<path d="M6.56156 10.783L6.0556 11.2924C5.60699 11.744 5.01034 11.9929 4.37584 11.9929C3.74135 11.9929 3.1447 11.7441 2.69609 11.2924C2.24748 10.8407 2.00025 10.2401 2.00025 9.60132C2.00025 8.96257 2.24731 8.36208 2.69609 7.91029L4.41519 6.17965C4.86397 5.72785 5.46061 5.47913 6.09511 5.47913C6.7296 5.47913 7.32625 5.72785 7.77486 6.17965C8.43919 6.84844 8.64974 7.85087 8.31133 8.73365C8.2118 8.99311 8.34017 9.28463 8.5979 9.38465C8.85513 9.48501 9.14504 9.35579 9.24456 9.09632C9.72551 7.84215 9.42627 6.41779 8.4822 5.46755C7.84471 4.82561 6.997 4.472 6.09527 4.472C5.19355 4.472 4.34584 4.82544 3.70818 5.46755L1.98891 7.19819C1.35125 7.84013 1 8.69354 1 9.60132C1 10.5091 1.35109 11.3625 1.98891 12.0044C2.62641 12.6464 3.47412 13 4.37584 13C5.27757 13 6.12528 12.6466 6.76277 12.0046L7.26873 11.4953C7.46412 11.2987 7.46412 10.9799 7.26873 10.7832C7.07368 10.5865 6.75694 10.5865 6.56156 10.783ZM14.0128 3.99369C12.6966 2.66885 10.5551 2.66869 9.23856 3.99369L8.7326 4.50305C8.53722 4.69957 8.53722 5.01844 8.7326 5.21514C8.92765 5.41183 9.24439 5.41166 9.43978 5.21514L9.94574 4.70578C10.8721 3.77316 12.3792 3.7735 13.3054 4.70578C14.2316 5.6384 14.2316 7.15556 13.3054 8.08802L11.5865 9.81866C10.6601 10.7513 9.15304 10.7513 8.22681 9.81866C7.56247 9.14986 7.35192 8.14743 7.69034 7.26448C7.78986 7.00519 7.6615 6.71367 7.40377 6.61348C7.14587 6.51329 6.8568 6.64235 6.75711 6.90198C6.27615 8.15615 6.57539 9.58051 7.51946 10.5307C8.17746 11.1933 9.04184 11.5246 9.90639 11.5246C10.7708 11.5246 11.6355 11.1932 12.2935 10.5307L14.0128 8.79994C15.3291 7.47494 15.3291 5.31886 14.0128 3.99369Z" fill="black"/>
</svg>
