<svg width="16" height="16" viewBox="0 0 16 16" fill="none" xmlns="http://www.w3.org/2000/svg">
<g clip-path="url(#clip0_1416_554)">
<path d="M8.00002 0.400024C3.80802 0.400024 0.400024 3.80802 0.400024 8.00002C0.400024 12.192 3.80802 15.6 8.00002 15.6C12.192 15.6 15.6 12.192 15.6 8.00002C15.6 3.80802 12.192 0.400024 8.00002 0.400024ZM8.00002 4.75202C9.31202 4.75202 10.384 5.82402 10.384 7.13602C10.384 8.44802 9.31202 9.52002 8.00002 9.52002C6.68802 9.52002 5.61602 8.44802 5.61602 7.13602C5.61602 5.82402 6.68802 4.75202 8.00002 4.75202ZM3.84002 12.608V12.256C3.84002 11.248 4.65602 10.416 5.68002 10.416H10.32C11.328 10.416 12.16 11.232 12.16 12.256V12.608C11.056 13.6 9.60002 14.208 8.00002 14.208C6.40002 14.208 4.94402 13.6 3.84002 12.608Z" fill="black"/>
</g>
<defs>
<clipPath id="clip0_1416_554">
<rect width="16" height="16" fill="white"/>
</clipPath>
</defs>
</svg>
