<svg width="16" height="16" viewBox="0 0 16 16" fill="none" xmlns="http://www.w3.org/2000/svg">
<path d="M12.205 7.6324H14.62V5.47163C14.62 5.05148 14.28 4.71136 13.86 4.71136H8.79499C8.64999 6.99718 6.74999 8.81282 4.42999 8.81282C3.54999 8.81282 2.73499 8.55273 2.04999 8.10257V13.4745C2.04999 14.3148 2.72999 15 3.57499 15H13.86C14.28 15 14.62 14.6599 14.62 14.2398V12.3391H12.205C10.91 12.3391 9.85499 11.2837 9.85499 9.98824C9.85499 8.68778 10.91 7.6324 12.205 7.6324ZM13.475 3.56595V2.80068C13.475 2.38053 13.135 2.04041 12.715 2.04041H8.09999C8.39999 2.49557 8.61499 3.01075 8.72499 3.56595H13.475Z" fill="black"/>
<path d="M4.43 1C2.535 1 1 2.53555 1 4.42622C1 6.3219 2.535 7.85745 4.43 7.85745C6.325 7.85745 7.86 6.3219 7.86 4.42622C7.855 2.53555 6.32 1 4.43 1ZM4.26 3.77099L5.035 4.17113C5.495 4.41122 5.745 4.89639 5.66 5.41658C5.595 5.81672 5.34 6.13683 4.99 6.29189V6.39693C4.99 6.66202 4.775 6.8721 4.515 6.8721C4.25 6.8721 4.04 6.65702 4.04 6.39693V6.3219C3.67 6.19686 3.355 5.92176 3.19 5.54662C3.085 5.30654 3.195 5.02644 3.435 4.9214C3.68 4.81636 3.955 4.9264 4.06 5.16649C4.14 5.34655 4.325 5.46159 4.52 5.44159C4.67 5.41658 4.705 5.33655 4.715 5.26652C4.72 5.22651 4.73 5.09146 4.595 5.02144L3.82 4.62129C3.355 4.38121 3.105 3.87103 3.2 3.35084C3.29 2.89568 3.61 2.55055 4.04 2.43551V2.24544C4.04 1.98035 4.255 1.77028 4.515 1.77028C4.78 1.77028 4.99 1.98535 4.99 2.24544V2.54055C5.29 2.6856 5.53 2.92569 5.67 3.2408C5.775 3.48089 5.665 3.76099 5.425 3.86602C5.18 3.97106 4.9 3.86102 4.795 3.62094C4.72 3.44087 4.53 3.33083 4.335 3.34584C4.195 3.36084 4.155 3.46588 4.145 3.5259C4.135 3.57592 4.125 3.70096 4.26 3.77099ZM14.81 8.58271H12.205C11.435 8.58271 10.81 9.20793 10.81 9.97821C10.81 10.7485 11.435 11.3737 12.205 11.3737H14.81C14.915 11.3737 15 11.2887 15 11.1836V8.76777C15 8.66774 14.915 8.58271 14.81 8.58271ZM12.525 10.5534C12.21 10.5534 11.955 10.2983 11.955 9.98321C11.955 9.6681 12.21 9.413 12.525 9.413C12.84 9.413 13.095 9.6681 13.095 9.98321C13.095 10.2983 12.84 10.5534 12.525 10.5534Z" fill="black"/>
</svg>
