<svg width="26" height="20" viewBox="0 0 26 20" fill="none" xmlns="http://www.w3.org/2000/svg">
<g clip-path="url(#clip0_869_2572)">
<path d="M21.8562 1.78071C20.2106 1.02565 18.446 0.469361 16.601 0.150751C16.5674 0.144602 16.5338 0.159968 16.5165 0.190703C16.2896 0.594343 16.0382 1.12093 15.8621 1.53482C13.8777 1.23773 11.9035 1.23773 9.95971 1.53482C9.78364 1.11173 9.52313 0.594343 9.29516 0.190703C9.27785 0.160994 9.24429 0.145627 9.21069 0.150751C7.36669 0.468343 5.60207 1.02463 3.95549 1.78071C3.94124 1.78685 3.92902 1.79711 3.92091 1.81042C0.5738 6.81092 -0.343113 11.6885 0.106694 16.5057C0.108729 16.5292 0.121958 16.5518 0.140277 16.5661C2.3486 18.1878 4.48775 19.1724 6.58716 19.825C6.62076 19.8352 6.65636 19.8229 6.67775 19.7953C7.17436 19.1171 7.61705 18.402 7.99662 17.65C8.01902 17.6059 7.99764 17.5537 7.95185 17.5363C7.24967 17.2699 6.58106 16.9451 5.93789 16.5763C5.88702 16.5466 5.88295 16.4739 5.92975 16.439C6.06509 16.3376 6.20047 16.2321 6.32971 16.1255C6.35309 16.1061 6.38567 16.102 6.41316 16.1143C10.6385 18.0434 15.2129 18.0434 19.3883 16.1143C19.4158 16.101 19.4484 16.1051 19.4728 16.1245C19.6021 16.2311 19.7374 16.3376 19.8738 16.439C19.9206 16.4739 19.9175 16.5466 19.8667 16.5763C19.2235 16.9523 18.5549 17.2699 17.8517 17.5353C17.8059 17.5527 17.7855 17.6059 17.8079 17.65C18.1956 18.4009 18.6383 19.116 19.1258 19.7942C19.1461 19.8229 19.1828 19.8352 19.2164 19.825C21.326 19.1724 23.4651 18.1878 25.6734 16.5661C25.6928 16.5518 25.705 16.5302 25.707 16.5067C26.2453 10.9375 24.8053 6.09994 21.8897 1.81143C21.8826 1.79711 21.8704 1.78685 21.8562 1.78071ZM8.6276 13.5725C7.35549 13.5725 6.30731 12.4046 6.30731 10.9703C6.30731 9.53605 7.33516 8.36816 8.6276 8.36816C9.93018 8.36816 10.9682 9.54631 10.9479 10.9703C10.9479 12.4046 9.92 13.5725 8.6276 13.5725ZM17.2065 13.5725C15.9344 13.5725 14.8862 12.4046 14.8862 10.9703C14.8862 9.53605 15.914 8.36816 17.2065 8.36816C18.5091 8.36816 19.5471 9.54631 19.5268 10.9703C19.5268 12.4046 18.5091 13.5725 17.2065 13.5725Z" fill="#5865F2"/>
</g>
<defs>
<clipPath id="clip0_869_2572">
<rect width="25.8182" height="20" fill="white"/>
</clipPath>
</defs>
</svg>
