<svg width="25" height="24" viewBox="0 0 25 24" fill="none" xmlns="http://www.w3.org/2000/svg">
<path fill-rule="evenodd" clip-rule="evenodd" d="M12.224 0.0898438C5.49857 0.0898438 0.0449219 5.54248 0.0449219 12.2689C0.0449219 17.65 3.5346 22.2152 8.37373 23.8256C8.9824 23.9384 9.20586 23.5614 9.20586 23.2398C9.20586 22.9493 9.19457 21.9899 9.18932 20.9723C5.80109 21.709 5.08613 19.5353 5.08613 19.5353C4.53211 18.1276 3.73386 17.7532 3.73386 17.7532C2.62885 16.9973 3.81716 17.0129 3.81716 17.0129C5.04015 17.0988 5.68411 18.2679 5.68411 18.2679C6.77037 20.1298 8.53326 19.5916 9.22825 19.2804C9.33756 18.4932 9.65319 17.9559 10.0015 17.6518C7.29635 17.3438 4.45265 16.2995 4.45265 11.6328C4.45265 10.3032 4.92842 9.2167 5.70751 8.36379C5.58106 8.05704 5.16418 6.81832 5.82549 5.14074C5.82549 5.14074 6.84821 4.81341 9.17561 6.38914C10.1471 6.11929 11.189 5.98396 12.224 5.97932C13.259 5.98396 14.3017 6.11929 15.275 6.38914C17.5996 4.81341 18.6209 5.14074 18.6209 5.14074C19.2838 6.81832 18.8668 8.05704 18.7403 8.36379C19.5212 9.2167 19.9938 10.3032 19.9938 11.6328C19.9938 16.3106 17.1446 17.3406 14.4326 17.6421C14.8695 18.0201 15.2587 18.7612 15.2587 19.8975C15.2587 21.5271 15.2446 22.8386 15.2446 23.2398C15.2446 23.5639 15.4638 23.9436 16.0812 23.824C20.9177 22.2118 24.4029 17.6482 24.4029 12.2689C24.4029 5.54248 18.9501 0.0898438 12.224 0.0898438Z" fill="#161514"/>
<path fill-rule="evenodd" clip-rule="evenodd" d="M4.6582 17.5757C4.63138 17.6362 4.53619 17.6543 4.44946 17.6128C4.36113 17.573 4.31151 17.4905 4.34015 17.4298C4.36637 17.3675 4.46177 17.3502 4.5499 17.3919C4.63844 17.4317 4.68886 17.515 4.6582 17.5757Z" fill="#161514"/>
<path fill-rule="evenodd" clip-rule="evenodd" d="M5.15028 18.1268C5.0922 18.1806 4.97865 18.1556 4.90161 18.0705C4.82195 17.9856 4.80702 17.872 4.86591 17.8174C4.92581 17.7635 5.03593 17.7887 5.1158 17.8737C5.19546 17.9596 5.21099 18.0723 5.15028 18.1268Z" fill="#161514"/>
<path fill-rule="evenodd" clip-rule="evenodd" d="M5.63057 18.8287C5.55595 18.8805 5.43393 18.8319 5.3585 18.7236C5.28388 18.6153 5.28388 18.4854 5.36011 18.4334C5.43574 18.3814 5.55595 18.4282 5.63238 18.5357C5.7068 18.6458 5.7068 18.7757 5.63057 18.8287Z" fill="#161514"/>
<path fill-rule="evenodd" clip-rule="evenodd" d="M6.28896 19.5055C6.2222 19.5791 6.08001 19.5593 5.97595 19.4589C5.86946 19.3607 5.83981 19.2213 5.90677 19.1477C5.97433 19.0739 6.11732 19.0947 6.2222 19.1943C6.32788 19.2923 6.36015 19.4327 6.28896 19.5055Z" fill="#161514"/>
<path fill-rule="evenodd" clip-rule="evenodd" d="M7.19695 19.8988C7.1675 19.9942 7.03056 20.0376 6.89261 19.997C6.75487 19.9553 6.66471 19.8436 6.69255 19.7472C6.72118 19.6512 6.85873 19.606 6.99769 19.6493C7.13524 19.6909 7.22559 19.8018 7.19695 19.8988Z" fill="#161514"/>
<path fill-rule="evenodd" clip-rule="evenodd" d="M8.19328 19.9717C8.19671 20.0721 8.07974 20.1554 7.93493 20.1572C7.78932 20.1605 7.67154 20.0792 7.66992 19.9804C7.66992 19.8789 7.78428 19.7964 7.92989 19.794C8.0747 19.7912 8.19328 19.8719 8.19328 19.9717Z" fill="#161514"/>
<path fill-rule="evenodd" clip-rule="evenodd" d="M9.12083 19.8141C9.13817 19.9121 9.03754 20.0127 8.89374 20.0395C8.75236 20.0654 8.62147 20.0048 8.60352 19.9076C8.58597 19.8072 8.68843 19.7066 8.8296 19.6805C8.9736 19.6555 9.10248 19.7144 9.12083 19.8141Z" fill="#161514"/>
</svg>
