<svg fill="none" height="20" viewBox="0 0 25 20" width="25" xmlns="http://www.w3.org/2000/svg"><path d="m21.7594 5.02811c.0147.21275.0147.42549.0147.6402 0 6.54219-4.9804 14.08729-14.08723 14.08729v-.004c-2.69019.004-5.32451-.7666-7.5892138-2.2196.3911768.0471.7843138.0706 1.1784338.0716 2.22941.002 4.3951-.7461 6.14902-2.1235-2.11863-.0402-3.97647-1.4216-4.62549-3.4383.74215.1432 1.50686.1138 2.23529-.0853-2.3098-.4666-3.97157-2.49603-3.97157-4.8529 0-.02156 0-.04215 0-.06274.68824.38333 1.45883.59608 2.24706.61961-2.17549-1.45392-2.846077-4.34804-1.53235-6.61079 2.51372 3.09314 6.22255 4.97353 10.20395 5.17255-.399-1.71961.146-3.52157 1.4323-4.73039 1.9941-1.87451 5.1304-1.778432 7.0049.21471 1.1088-.21863 2.1716-.62549 3.1441-1.201965-.3696 1.146075-1.1431 2.119605-2.1764 2.738235.9813-.11569 1.9402-.37843 2.8431-.77941-.6647.99608-1.5019 1.86372-2.4706 2.5647z" fill="#000"/></svg>