<svg width="25" height="20" viewBox="0 0 25 20" fill="none" xmlns="http://www.w3.org/2000/svg">
<g clip-path="url(#clip0_869_2569)">
<path d="M21.7594 5.02811C21.7741 5.24086 21.7741 5.4536 21.7741 5.66831C21.7741 12.2105 16.7937 19.7556 7.68687 19.7556V19.7516C4.99668 19.7556 2.36236 18.985 0.0976562 17.532C0.488833 17.5791 0.88197 17.6026 1.27609 17.6036C3.5055 17.6056 5.67119 16.8575 7.42511 15.4801C5.30648 15.4399 3.44864 14.0585 2.79962 12.0418C3.54177 12.185 4.30648 12.1556 5.03491 11.9565C2.72511 11.4899 1.06334 9.46047 1.06334 7.1036C1.06334 7.08204 1.06334 7.06145 1.06334 7.04086C1.75158 7.42419 2.52217 7.63694 3.3104 7.66047C1.13491 6.20655 0.464323 3.31243 1.77805 1.04968C4.29177 4.14282 8.0006 6.02321 11.982 6.22223C11.583 4.50262 12.128 2.70066 13.4143 1.49184C15.4084 -0.38267 18.5447 -0.286592 20.4192 1.70655C21.528 1.48792 22.5908 1.08106 23.5633 0.504585C23.1937 1.65066 22.4202 2.62419 21.3869 3.24282C22.3682 3.12713 23.3271 2.86439 24.23 2.46341C23.5653 3.45949 22.7281 4.32713 21.7594 5.02811Z" fill="#1D9BF0"/>
</g>
<defs>
<clipPath id="clip0_869_2569">
<rect width="24.3137" height="20" fill="white"/>
</clipPath>
</defs>
</svg>
