<?xml version="1.0" encoding="utf-8"?>
<!-- Generator: Adobe Illustrator 23.0.1, SVG Export Plug-In . SVG Version: 6.00 Build 0)  -->
<svg version="1.1" xmlns="http://www.w3.org/2000/svg" xmlns:xlink="http://www.w3.org/1999/xlink" x="0px" y="0px"
	 viewBox="0 0 153 60" style="enable-background:new 0 0 153 60;" xml:space="preserve">
<style type="text/css">
	.st0{fill:#102B72;}
	.st1{fill:#987C4D;}
	.st2{display:none;}
	.st3{display:inline;}
	.st4{fill:#00538B;}
	.st5{display:inline;fill:#00538B;}
	.st6{fill:#8E1537;}
	.st7{display:inline;fill:#8E1537;}
	.st8{fill:#006C85;}
	.st9{display:inline;fill:#006C85;}
	.st10{fill:#D5A10F;}
	.st11{fill:#3D1152;}
	.st12{display:inline;fill:#3D1152;}
	.st13{fill:#006241;}
	.st14{display:inline;fill:#006241;}
</style>
<g id="SMU">
	<g id="SMU_Logo_2_">
		<g>
			<g>
				<path class="st0" d="M46.04,33.15c-0.43-0.21-0.46-0.32-0.46-1.11c0-1.47,0.12-2.64,0.15-3.11c0.03-0.32,0.09-0.47,0.25-0.47
					c0.19,0,0.21,0.09,0.21,0.33c0,0.26,0,0.67,0.09,1.08c0.46,2.17,2.49,2.99,4.56,2.99c2.95,0,4.4-2.03,4.4-3.9
					c0-2.02-0.89-3.2-3.54-5.28l-1.39-1.09c-3.26-2.55-4-4.37-4-6.36c0-3.14,2.46-5.28,6.37-5.28c1.2,0,2.09,0.12,2.86,0.29
					c0.58,0.12,0.83,0.15,1.08,0.15c0.24,0,0.31,0.06,0.31,0.2c0,0.15-0.12,1.12-0.12,3.11c0,0.47-0.06,0.67-0.21,0.67
					c-0.19,0-0.21-0.15-0.25-0.38c-0.03-0.35-0.4-1.47-0.4-1.47s-1.01-1.55-3.85-1.55c-2.12,0-3.79,1.26-3.79,3.4
					c0,1.67,0.86,2.67,3.76,4.92l0.86,0.65c3.64,2.73,4.5,4.54,4.5,6.89c0,1.2-0.49,3.43-2.62,4.87c-1.32,0.88-2.99,1.23-4.65,1.23
					C48.72,33.94,47.3,33.74,46.04,33.15z"/>
				<path class="st0" d="M86.53,30.06c0.12,1.06,0.34,2.7,1.66,3.11c0.9,0.27,1.69,0.27,2,0.27c0.15,0,0.24,0.03,0.24,0.14
					c0,0.18-0.28,0.27-0.65,0.27c-0.68,0-4-0.09-5.14-0.18c-0.71-0.05-0.86-0.14-0.86-0.29c0-0.12,0.06-0.18,0.21-0.21
					c0.16-0.03,0.18-0.53,0.12-1.06l-1.48-15.13h-0.09l-7.55,15.25c-0.65,1.29-0.74,1.56-1.02,1.56c-0.21,0-0.37-0.29-0.95-1.35
					c-0.8-1.44-3.45-6.51-3.6-6.8c-0.28-0.53-3.73-7.57-4.07-8.36h-0.12l-1.23,13.61c-0.03,0.47-0.03,1-0.03,1.5
					c0,0.44,0.34,0.82,0.8,0.91c0.52,0.12,0.98,0.15,1.17,0.15c0.12,0,0.25,0.06,0.25,0.14c0,0.21-0.19,0.27-0.56,0.27
					c-1.14,0-2.62-0.09-2.86-0.09c-0.27,0-1.75,0.09-2.58,0.09c-0.31,0-0.53-0.06-0.53-0.27c0-0.09,0.16-0.14,0.31-0.14
					c0.24,0,0.46,0,0.92-0.09c1.02-0.18,1.11-1.32,1.23-2.44l2.22-19.12c0.06-0.32,0.15-0.53,0.34-0.53c0.19,0,0.31,0.12,0.46,0.44
					l9.42,18.45l9.05-18.42c0.12-0.26,0.25-0.47,0.46-0.47c0.22,0,0.31,0.23,0.37,0.79L86.53,30.06z"/>
				<path class="st0" d="M92,19.87c0-4.58,0-5.4-0.06-6.34c-0.06-1-0.31-1.47-1.32-1.67c-0.25-0.06-0.77-0.09-1.05-0.09
					c-0.13,0-0.25-0.06-0.25-0.18c0-0.17,0.16-0.23,0.49-0.23c1.39,0,3.27,0.09,3.54,0.09c0.28,0,2.12-0.09,3.05-0.09
					c0.34,0,0.49,0.06,0.49,0.23c0,0.12-0.12,0.18-0.25,0.18c-0.22,0-0.4,0.03-0.77,0.09c-0.83,0.12-1.08,0.64-1.14,1.67
					c-0.06,0.94-0.06,1.76-0.06,6.34v4.11c0,4.23,0.99,6.04,2.31,7.25c1.51,1.35,2.9,1.61,4.65,1.61c1.88,0,3.73-0.85,4.83-2.11
					c1.42-1.67,1.79-4.17,1.79-7.19v-3.67c0-4.58,0-5.4-0.06-6.34c-0.06-1-0.31-1.47-1.32-1.67c-0.25-0.06-0.77-0.09-1.05-0.09
					c-0.12,0-0.25-0.06-0.25-0.18c0-0.17,0.15-0.23,0.49-0.23c1.39,0,3.08,0.09,3.26,0.09c0.22,0,1.67-0.09,2.59-0.09
					c0.34,0,0.49,0.06,0.49,0.23c0,0.12-0.12,0.18-0.24,0.18c-0.22,0-0.4,0-0.77,0.09c-0.83,0.15-1.08,0.64-1.14,1.67
					c-0.06,0.94-0.06,1.76-0.06,6.34V23c0,3.17-0.37,6.69-2.83,8.77c-2.22,1.88-4.53,2.17-6.35,2.17c-1.04,0-4.15-0.12-6.34-2.08
					C93.17,30.48,92,28.43,92,24.15V19.87z"/>
			</g>
			<g>
				<polygon class="st0" points="28.9,33.87 22.74,28.23 22.74,28.23 22.74,28.23 22.73,28.23 22.73,28.23 16.56,33.87 22.73,31.88 
					22.74,31.88 				"/>
				<g>
					<polygon class="st0" points="22.74,28.22 24.77,22.64 29.31,22.09 					"/>
					<polygon class="st0" points="33.89,23.91 29.31,22.09 29.18,14.59 					"/>
					<polygon class="st0" points="30.3,11.21 34.88,11.21 29.18,14.6 					"/>
				</g>
				<polygon class="st1" points="22.73,28.22 20.7,22.64 16.16,22.09 				"/>
				<polygon class="st1" points="11.58,23.91 16.16,22.09 16.29,14.59 				"/>
				<polygon class="st1" points="15.17,11.21 10.59,11.21 16.29,14.6 				"/>
				<path class="st1" d="M38.44,0c-4.09,3.85-6.9,2.16-8.34,1.85c-0.76-0.31-1.71-0.49-2.75-0.49c-2.5,0-4.52,1.06-4.52,2.38
					c0,0.47,0.27,0.92,0.72,1.28c0.47-0.43,1.19-0.78,2.06-0.99l0,0c0.88-0.15,2.38-0.27,4.15,0.18c0.16,0.04,0.33,0.09,0.51,0.14
					l0,0c0.21,0.07,0.41,0.11,0.57,0.14c0.08,0.02,0.14,0.03,0.22,0.04c4.63,1.03,7.41-1.3,7.41-1.3L38.44,0z"/>
				<path class="st0" d="M22.32,40.46c0,0-2.58-0.01-3.84-0.62c-2.29-1.1-2.72-4.49-3.01-7.29c-0.03-0.31-2.16-0.98-3.17-1.91
					c-1.65-1.51-1.39-6.2-1.39-6.5c0-0.3-2.67-1.61-2.67-4.52c0-1.23,0.02-8.1,0.02-8.1C6.52,9.36,5.42,9.33,4.03,9.76
					c-1.72,0.55-2.22,1.82-4.01,2.08C0.02,12.23,0,32.72,0,32.72c0,6.31,1.16,10.67,7.63,15.52c6,4.5,10.64,4.39,14.69,11.75
					C22.39,60.12,22.34,40.46,22.32,40.46z"/>
			</g>
		</g>
		<g>
			<path class="st0" d="M45.71,45.66c-0.11-0.05-0.14-0.09-0.14-0.24c0-0.39,0.03-0.81,0.04-0.92c0.01-0.11,0.03-0.18,0.09-0.18
				c0.06,0,0.07,0.06,0.07,0.12c0,0.09,0.03,0.24,0.06,0.36c0.16,0.52,0.58,0.71,1.02,0.71c0.64,0,0.95-0.43,0.95-0.8
				c0-0.34-0.11-0.67-0.7-1.12l-0.33-0.25c-0.78-0.6-1.05-1.09-1.05-1.66c0-0.77,0.66-1.32,1.64-1.32c0.46,0,0.76,0.07,0.95,0.12
				c0.07,0.01,0.1,0.03,0.1,0.09c0,0.09-0.03,0.29-0.03,0.84c0,0.15-0.02,0.21-0.08,0.21c-0.05,0-0.07-0.04-0.07-0.13
				c0-0.06-0.04-0.28-0.19-0.46c-0.11-0.13-0.31-0.34-0.78-0.34c-0.53,0-0.85,0.3-0.85,0.72c0,0.32,0.17,0.57,0.76,1.01l0.2,0.15
				c0.86,0.65,1.17,1.12,1.17,1.78c0,0.41-0.16,0.89-0.67,1.22c-0.36,0.22-0.75,0.29-1.13,0.29C46.33,45.84,46.01,45.79,45.71,45.66
				z"/>
			<path class="st0" d="M50.27,42.48c0-1.06,0-1.26-0.01-1.48c-0.02-0.24-0.09-0.36-0.24-0.39c-0.08-0.02-0.17-0.03-0.26-0.03
				c-0.07,0-0.11-0.01-0.11-0.07c0-0.04,0.06-0.05,0.17-0.05c0.27,0,0.72,0.02,0.92,0.02c0.18,0,0.6-0.02,0.87-0.02
				c0.09,0,0.15,0.01,0.15,0.05c0,0.06-0.04,0.07-0.11,0.07c-0.07,0-0.13,0.01-0.21,0.02c-0.19,0.04-0.25,0.16-0.26,0.4
				c-0.01,0.22-0.01,0.42-0.01,1.48v1.23c0,0.68,0,1.23,0.03,1.53c0.02,0.19,0.07,0.32,0.28,0.34c0.1,0.01,0.26,0.03,0.36,0.03
				c0.08,0,0.11,0.02,0.11,0.05c0,0.05-0.06,0.07-0.14,0.07c-0.47,0-0.92-0.02-1.11-0.02c-0.16,0-0.61,0.02-0.89,0.02
				c-0.09,0-0.14-0.02-0.14-0.07c0-0.03,0.03-0.05,0.11-0.05c0.11,0,0.19-0.01,0.26-0.03c0.14-0.03,0.19-0.15,0.21-0.35
				c0.04-0.29,0.04-0.84,0.04-1.52V42.48z"/>
			<path class="st0" d="M53.92,44.79c0.02,0.55,0.11,0.73,0.25,0.77c0.12,0.04,0.25,0.05,0.37,0.05c0.08,0,0.12,0.01,0.12,0.05
				c0,0.06-0.06,0.07-0.16,0.07c-0.46,0-0.75-0.02-0.88-0.02c-0.06,0-0.4,0.02-0.77,0.02c-0.09,0-0.16-0.01-0.16-0.07
				c0-0.04,0.04-0.05,0.11-0.05c0.09,0,0.22-0.01,0.32-0.04c0.19-0.06,0.21-0.26,0.22-0.87l0.06-4.14c0-0.14,0.02-0.24,0.09-0.24
				c0.08,0,0.14,0.09,0.26,0.22c0.09,0.09,1.17,1.23,2.21,2.25c0.48,0.48,1.44,1.48,1.56,1.6h0.04l-0.07-3.14
				c-0.01-0.43-0.07-0.56-0.24-0.63c-0.11-0.04-0.28-0.04-0.38-0.04c-0.09,0-0.11-0.02-0.11-0.06c0-0.06,0.08-0.06,0.19-0.06
				c0.37,0,0.71,0.02,0.86,0.02c0.08,0,0.35-0.02,0.7-0.02c0.09,0,0.16,0.01,0.16,0.06c0,0.04-0.04,0.06-0.13,0.06
				c-0.07,0-0.13,0-0.21,0.02c-0.2,0.06-0.25,0.2-0.26,0.6l-0.08,4.42c0,0.15-0.03,0.22-0.09,0.22c-0.08,0-0.16-0.08-0.24-0.16
				c-0.45-0.42-1.36-1.34-2.1-2.06c-0.78-0.76-1.57-1.63-1.69-1.76h-0.02L53.92,44.79z"/>
			<path class="st0" d="M64.58,45.28c0,0.19-0.01,0.2-0.09,0.25c-0.46,0.24-1.16,0.32-1.71,0.32c-1.74,0-3.29-0.81-3.29-2.74
				c0-1.12,0.59-1.9,1.24-2.29c0.68-0.4,1.32-0.45,1.91-0.45c0.49,0,1.12,0.08,1.26,0.11c0.15,0.03,0.4,0.07,0.56,0.08
				c0.09,0.01,0.1,0.03,0.1,0.08c0,0.08-0.05,0.27-0.05,1.15c0,0.11-0.02,0.15-0.08,0.15c-0.05,0-0.07-0.04-0.07-0.09
				c-0.02-0.16-0.05-0.39-0.24-0.58c-0.21-0.22-0.78-0.55-1.59-0.55c-0.39,0-0.91,0.03-1.41,0.43c-0.4,0.33-0.66,0.85-0.66,1.71
				c0,1.5,0.98,2.63,2.48,2.63c0.19,0,0.43,0,0.6-0.08c0.11-0.05,0.14-0.14,0.14-0.26v-0.66c0-0.35,0-0.62-0.01-0.82
				c-0.01-0.24-0.07-0.35-0.3-0.4c-0.06-0.01-0.18-0.02-0.28-0.02c-0.07,0-0.11-0.01-0.11-0.06c0-0.06,0.05-0.07,0.15-0.07
				c0.37,0,0.82,0.02,1.03,0.02c0.22,0,0.6-0.02,0.83-0.02c0.09,0,0.14,0.01,0.14,0.07c0,0.04-0.04,0.06-0.09,0.06
				c-0.06,0-0.11,0.01-0.19,0.02c-0.19,0.03-0.26,0.15-0.27,0.4c-0.01,0.21-0.01,0.49-0.01,0.84V45.28z"/>
			<path class="st0" d="M66.88,43.92c-0.04,0-0.05,0.01-0.06,0.06l-0.39,1c-0.07,0.17-0.11,0.34-0.11,0.43
				c0,0.13,0.06,0.22,0.28,0.22h0.11c0.09,0,0.11,0.01,0.11,0.05c0,0.06-0.04,0.07-0.12,0.07c-0.23,0-0.53-0.02-0.75-0.02
				c-0.08,0-0.47,0.02-0.84,0.02c-0.09,0-0.14-0.01-0.14-0.07c0-0.04,0.03-0.05,0.09-0.05c0.06,0,0.16-0.01,0.22-0.01
				c0.33-0.04,0.46-0.28,0.6-0.63l1.78-4.4c0.09-0.2,0.13-0.28,0.2-0.28c0.07,0,0.11,0.06,0.18,0.22c0.17,0.38,1.31,3.24,1.76,4.3
				c0.27,0.63,0.48,0.73,0.63,0.76c0.11,0.02,0.21,0.03,0.3,0.03c0.06,0,0.09,0.01,0.09,0.05c0,0.06-0.06,0.07-0.33,0.07
				c-0.26,0-0.77,0-1.34-0.01c-0.13-0.01-0.22-0.01-0.22-0.06c0-0.04,0.03-0.05,0.1-0.06c0.05-0.01,0.1-0.08,0.06-0.16l-0.57-1.48
				c-0.01-0.03-0.04-0.05-0.07-0.05H66.88z M68.34,43.57c0.03,0,0.04-0.02,0.03-0.04l-0.64-1.73c-0.01-0.03-0.01-0.06-0.04-0.06
				c-0.02,0-0.04,0.04-0.04,0.06L67,43.52c-0.01,0.03,0,0.05,0.03,0.05H68.34z"/>
			<path class="st0" d="M71.61,42.48c0-1.06,0-1.26-0.01-1.48c-0.01-0.24-0.07-0.35-0.31-0.4c-0.06-0.01-0.18-0.02-0.28-0.02
				c-0.08,0-0.12-0.01-0.12-0.06c0-0.05,0.05-0.06,0.15-0.06c0.38,0,0.83,0.02,1.03,0.02c0.29,0,0.7-0.02,1.03-0.02
				c0.89,0,1.21,0.29,1.32,0.4c0.16,0.15,0.36,0.46,0.36,0.83c0,0.99-0.74,1.69-1.75,1.69c-0.03,0-0.11,0-0.15-0.01
				c-0.04-0.01-0.09-0.01-0.09-0.06c0-0.06,0.05-0.08,0.2-0.08c0.4,0,0.95-0.44,0.95-1.15c0-0.23-0.02-0.7-0.42-1.05
				c-0.26-0.23-0.55-0.27-0.71-0.27c-0.11,0-0.21,0.01-0.28,0.03c-0.04,0.01-0.06,0.06-0.06,0.13v2.8c0,0.64,0,1.2,0.03,1.5
				c0.02,0.2,0.07,0.35,0.28,0.38c0.1,0.01,0.26,0.03,0.36,0.03c0.08,0,0.11,0.02,0.11,0.05c0,0.05-0.06,0.07-0.13,0.07
				c-0.47,0-0.92-0.02-1.1-0.02c-0.16,0-0.61,0.02-0.9,0.02c-0.09,0-0.14-0.02-0.14-0.07c0-0.03,0.03-0.05,0.11-0.05
				c0.11,0,0.19-0.01,0.26-0.03c0.14-0.03,0.18-0.18,0.21-0.39c0.04-0.29,0.04-0.85,0.04-1.49V42.48z"/>
			<path class="st0" d="M75.53,43.1c0-1.2,0.8-2.74,2.94-2.74c1.77,0,2.87,1.01,2.87,2.62c0,1.6-1.14,2.87-2.94,2.87
				C76.36,45.84,75.53,44.34,75.53,43.1z M80.35,43.23c0-1.57-0.92-2.54-2.08-2.54c-0.82,0-1.75,0.45-1.75,2.19
				c0,1.46,0.82,2.61,2.18,2.61C79.2,45.49,80.35,45.25,80.35,43.23z"/>
			<path class="st0" d="M82.87,42.48c0-1.06,0-1.26-0.01-1.48c-0.02-0.24-0.07-0.35-0.31-0.4c-0.06-0.01-0.18-0.02-0.28-0.02
				c-0.08,0-0.12-0.01-0.12-0.06c0-0.05,0.05-0.06,0.16-0.06c0.38,0,0.83,0.02,0.97,0.02c0.24,0,0.78-0.02,1-0.02
				c0.45,0,0.93,0.04,1.31,0.3c0.2,0.13,0.48,0.49,0.48,0.96c0,0.52-0.22,0.99-0.94,1.57c0.63,0.78,1.13,1.41,1.54,1.84
				c0.4,0.41,0.69,0.45,0.8,0.48c0.08,0.01,0.14,0.02,0.2,0.02c0.06,0,0.09,0.02,0.09,0.05c0,0.06-0.05,0.07-0.14,0.07h-0.68
				c-0.4,0-0.57-0.03-0.76-0.13c-0.31-0.16-0.58-0.49-0.98-1.03c-0.28-0.39-0.61-0.86-0.7-0.97c-0.04-0.04-0.08-0.05-0.13-0.05
				l-0.62-0.01c-0.04,0-0.06,0.01-0.06,0.05v0.1c0,0.65,0,1.2,0.03,1.5c0.02,0.2,0.07,0.36,0.28,0.39c0.11,0.01,0.26,0.03,0.35,0.03
				c0.06,0,0.09,0.02,0.09,0.05c0,0.05-0.05,0.07-0.14,0.07c-0.41,0-0.94-0.02-1.05-0.02c-0.13,0-0.58,0.02-0.87,0.02
				c-0.09,0-0.14-0.02-0.14-0.07c0-0.03,0.03-0.05,0.11-0.05c0.11,0,0.19-0.01,0.25-0.03c0.14-0.03,0.18-0.18,0.21-0.39
				c0.04-0.29,0.04-0.85,0.04-1.49V42.48z M83.71,43.04c0,0.08,0.01,0.1,0.06,0.13c0.15,0.05,0.36,0.07,0.54,0.07
				c0.29,0,0.38-0.03,0.51-0.12c0.21-0.15,0.42-0.47,0.42-1.05c0-0.99-0.67-1.28-1.09-1.28c-0.18,0-0.31,0.01-0.38,0.03
				c-0.05,0.01-0.06,0.04-0.06,0.1V43.04z"/>
			<path class="st0" d="M88.28,42.48c0-1.06,0-1.26-0.01-1.48c-0.01-0.24-0.07-0.35-0.31-0.4c-0.06-0.01-0.18-0.02-0.28-0.02
				c-0.08,0-0.12-0.01-0.12-0.06c0-0.05,0.05-0.06,0.16-0.06c0.19,0,0.4,0.01,0.57,0.01c0.19,0.01,0.35,0.01,0.45,0.01
				c0.23,0,1.65,0,1.78-0.01c0.13-0.01,0.25-0.03,0.31-0.04c0.04-0.01,0.08-0.03,0.11-0.03s0.04,0.03,0.04,0.06
				c0,0.05-0.03,0.13-0.06,0.45c-0.01,0.07-0.02,0.38-0.04,0.46c-0.01,0.04-0.02,0.08-0.07,0.08c-0.05,0-0.06-0.03-0.06-0.1
				c0-0.05-0.01-0.17-0.04-0.25c-0.05-0.13-0.12-0.21-0.48-0.25c-0.12-0.01-0.87-0.03-1.01-0.03c-0.03,0-0.05,0.02-0.05,0.07v1.77
				c0,0.05,0.01,0.08,0.05,0.08c0.16,0,0.98,0,1.14-0.01c0.17-0.02,0.28-0.03,0.34-0.11c0.05-0.06,0.08-0.09,0.11-0.09
				c0.03,0,0.05,0.01,0.05,0.06c0,0.04-0.04,0.15-0.06,0.51c-0.01,0.14-0.03,0.42-0.03,0.47c0,0.06,0,0.13-0.06,0.13
				c-0.05,0-0.07-0.03-0.07-0.06c-0.01-0.07-0.01-0.16-0.03-0.25c-0.03-0.14-0.13-0.24-0.4-0.27c-0.14-0.01-0.84-0.02-1.01-0.02
				c-0.04,0-0.04,0.03-0.04,0.07v0.55c0,0.24-0.01,0.88,0,1.09c0.01,0.48,0.13,0.59,0.86,0.59c0.18,0,0.48,0,0.67-0.08
				c0.19-0.08,0.27-0.23,0.32-0.52c0.01-0.08,0.03-0.1,0.08-0.1c0.06,0,0.06,0.06,0.06,0.13c0,0.16-0.06,0.64-0.09,0.78
				c-0.05,0.18-0.11,0.18-0.38,0.18c-0.53,0-0.92-0.01-1.23-0.02c-0.31-0.01-0.53-0.02-0.74-0.02c-0.08,0-0.24,0.01-0.4,0.01
				c-0.16,0.01-0.35,0.01-0.49,0.01c-0.09,0-0.14-0.02-0.14-0.07c0-0.03,0.03-0.05,0.11-0.05c0.11,0,0.19-0.01,0.26-0.03
				c0.14-0.03,0.18-0.18,0.21-0.39c0.04-0.29,0.04-0.85,0.04-1.49V42.48z"/>
			<path class="st0" d="M95.24,40.48c0.02-0.12,0.06-0.18,0.12-0.18c0.06,0,0.1,0.03,0.19,0.22l1.94,3.95l1.94-4
				c0.05-0.11,0.09-0.17,0.16-0.17c0.06,0,0.11,0.07,0.13,0.22l0.65,4.32c0.07,0.44,0.14,0.64,0.35,0.71
				c0.21,0.06,0.35,0.07,0.44,0.07c0.06,0,0.11,0.01,0.11,0.05c0,0.06-0.09,0.08-0.18,0.08c-0.18,0-1.16-0.02-1.44-0.04
				c-0.16-0.01-0.21-0.03-0.21-0.08c0-0.04,0.03-0.06,0.08-0.08c0.04-0.01,0.07-0.1,0.04-0.3l-0.43-3.08h-0.03l-1.55,3.18
				c-0.16,0.33-0.2,0.39-0.26,0.39s-0.14-0.14-0.25-0.35c-0.17-0.32-0.73-1.39-0.82-1.59c-0.06-0.15-0.49-1.03-0.74-1.55h-0.03
				l-0.37,2.79c-0.01,0.13-0.02,0.22-0.02,0.33c0,0.13,0.09,0.2,0.21,0.22c0.13,0.03,0.23,0.04,0.3,0.04c0.06,0,0.11,0.01,0.11,0.05
				c0,0.06-0.06,0.08-0.17,0.08c-0.3,0-0.62-0.02-0.75-0.02c-0.13,0-0.48,0.02-0.7,0.02c-0.07,0-0.13-0.01-0.13-0.08
				c0-0.03,0.04-0.05,0.11-0.05c0.06,0,0.11,0,0.21-0.02c0.2-0.04,0.26-0.32,0.29-0.55L95.24,40.48z"/>
			<path class="st0" d="M102.79,43.92c-0.04,0-0.05,0.01-0.07,0.06l-0.38,1c-0.07,0.17-0.11,0.34-0.11,0.43
				c0,0.13,0.06,0.22,0.28,0.22h0.1c0.09,0,0.11,0.01,0.11,0.05c0,0.06-0.04,0.07-0.12,0.07c-0.22,0-0.53-0.02-0.75-0.02
				c-0.08,0-0.47,0.02-0.84,0.02c-0.09,0-0.14-0.01-0.14-0.07c0-0.04,0.03-0.05,0.09-0.05c0.07,0,0.16-0.01,0.22-0.01
				c0.33-0.04,0.46-0.28,0.6-0.63l1.78-4.4c0.09-0.2,0.13-0.28,0.2-0.28c0.06,0,0.11,0.06,0.18,0.22c0.17,0.38,1.31,3.24,1.76,4.3
				c0.27,0.63,0.48,0.73,0.63,0.76c0.11,0.02,0.21,0.03,0.3,0.03c0.06,0,0.09,0.01,0.09,0.05c0,0.06-0.07,0.07-0.33,0.07
				c-0.26,0-0.77,0-1.34-0.01c-0.13-0.01-0.22-0.01-0.22-0.06c0-0.04,0.03-0.05,0.1-0.06c0.05-0.01,0.1-0.08,0.06-0.16l-0.57-1.48
				c-0.01-0.03-0.04-0.05-0.07-0.05H102.79z M104.24,43.57c0.04,0,0.04-0.02,0.04-0.04l-0.64-1.73c-0.01-0.03-0.02-0.06-0.04-0.06
				c-0.02,0-0.04,0.04-0.04,0.06l-0.65,1.72c-0.01,0.03,0,0.05,0.03,0.05H104.24z"/>
			<path class="st0" d="M107.91,44.79c0.01,0.55,0.11,0.73,0.25,0.77c0.12,0.04,0.25,0.05,0.37,0.05c0.08,0,0.12,0.01,0.12,0.05
				c0,0.06-0.06,0.07-0.16,0.07c-0.46,0-0.75-0.02-0.88-0.02c-0.07,0-0.4,0.02-0.77,0.02c-0.09,0-0.16-0.01-0.16-0.07
				c0-0.04,0.04-0.05,0.11-0.05c0.09,0,0.22-0.01,0.32-0.04c0.19-0.06,0.21-0.26,0.22-0.87l0.07-4.14c0-0.14,0.02-0.24,0.09-0.24
				c0.08,0,0.14,0.09,0.27,0.22c0.08,0.09,1.17,1.23,2.2,2.25c0.48,0.48,1.45,1.48,1.57,1.6h0.04l-0.07-3.14
				c-0.01-0.43-0.07-0.56-0.24-0.63c-0.11-0.04-0.28-0.04-0.38-0.04c-0.09,0-0.11-0.02-0.11-0.06c0-0.06,0.08-0.06,0.19-0.06
				c0.37,0,0.71,0.02,0.86,0.02c0.08,0,0.35-0.02,0.7-0.02c0.09,0,0.16,0.01,0.16,0.06c0,0.04-0.04,0.06-0.13,0.06
				c-0.07,0-0.13,0-0.21,0.02c-0.2,0.06-0.26,0.2-0.27,0.6l-0.08,4.42c0,0.15-0.03,0.22-0.09,0.22c-0.08,0-0.17-0.08-0.24-0.16
				c-0.45-0.42-1.36-1.34-2.1-2.06c-0.78-0.76-1.57-1.63-1.69-1.76h-0.02L107.91,44.79z"/>
			<path class="st0" d="M114.57,43.92c-0.04,0-0.05,0.01-0.06,0.06l-0.38,1c-0.07,0.17-0.11,0.34-0.11,0.43
				c0,0.13,0.06,0.22,0.28,0.22h0.11c0.09,0,0.11,0.01,0.11,0.05c0,0.06-0.04,0.07-0.12,0.07c-0.23,0-0.53-0.02-0.75-0.02
				c-0.08,0-0.47,0.02-0.84,0.02c-0.09,0-0.13-0.01-0.13-0.07c0-0.04,0.03-0.05,0.08-0.05c0.07,0,0.16-0.01,0.22-0.01
				c0.33-0.04,0.46-0.28,0.6-0.63l1.79-4.4c0.08-0.2,0.13-0.28,0.2-0.28c0.06,0,0.11,0.06,0.18,0.22c0.17,0.38,1.31,3.24,1.76,4.3
				c0.27,0.63,0.48,0.73,0.63,0.76c0.11,0.02,0.21,0.03,0.3,0.03c0.06,0,0.09,0.01,0.09,0.05c0,0.06-0.07,0.07-0.33,0.07
				c-0.25,0-0.77,0-1.34-0.01c-0.13-0.01-0.21-0.01-0.21-0.06c0-0.04,0.03-0.05,0.1-0.06c0.05-0.01,0.1-0.08,0.06-0.16l-0.57-1.48
				c-0.02-0.03-0.04-0.05-0.07-0.05H114.57z M116.02,43.57c0.04,0,0.04-0.02,0.04-0.04l-0.64-1.73c-0.01-0.03-0.01-0.06-0.04-0.06
				c-0.02,0-0.04,0.04-0.04,0.06l-0.66,1.72c-0.01,0.03,0,0.05,0.03,0.05H116.02z"/>
			<path class="st0" d="M123.62,45.28c0,0.19-0.01,0.2-0.09,0.25c-0.46,0.24-1.16,0.32-1.72,0.32c-1.74,0-3.29-0.81-3.29-2.74
				c0-1.12,0.59-1.9,1.24-2.29c0.68-0.4,1.32-0.45,1.92-0.45c0.49,0,1.11,0.08,1.26,0.11c0.15,0.03,0.4,0.07,0.56,0.08
				c0.09,0.01,0.1,0.03,0.1,0.08c0,0.08-0.05,0.27-0.05,1.15c0,0.11-0.02,0.15-0.08,0.15c-0.05,0-0.07-0.04-0.07-0.09
				c-0.02-0.16-0.06-0.39-0.24-0.58c-0.21-0.22-0.78-0.55-1.59-0.55c-0.39,0-0.91,0.03-1.41,0.43c-0.4,0.33-0.65,0.85-0.65,1.71
				c0,1.5,0.97,2.63,2.47,2.63c0.19,0,0.43,0,0.6-0.08c0.11-0.05,0.13-0.14,0.13-0.26v-0.66c0-0.35,0-0.62-0.01-0.82
				c-0.01-0.24-0.07-0.35-0.31-0.4c-0.06-0.01-0.18-0.02-0.28-0.02c-0.06,0-0.11-0.01-0.11-0.06c0-0.06,0.05-0.07,0.15-0.07
				c0.37,0,0.82,0.02,1.03,0.02c0.22,0,0.6-0.02,0.83-0.02c0.09,0,0.14,0.01,0.14,0.07c0,0.04-0.04,0.06-0.09,0.06
				c-0.06,0-0.11,0.01-0.19,0.02c-0.19,0.03-0.26,0.15-0.27,0.4c-0.01,0.21-0.01,0.49-0.01,0.84V45.28z"/>
			<path class="st0" d="M125.64,42.48c0-1.06,0-1.26-0.01-1.48c-0.01-0.24-0.07-0.35-0.31-0.4c-0.06-0.01-0.18-0.02-0.28-0.02
				c-0.08,0-0.12-0.01-0.12-0.06c0-0.05,0.05-0.06,0.16-0.06c0.19,0,0.4,0.01,0.57,0.01c0.19,0.01,0.35,0.01,0.45,0.01
				c0.23,0,1.64,0,1.78-0.01c0.14-0.01,0.25-0.03,0.31-0.04c0.03-0.01,0.08-0.03,0.11-0.03c0.04,0,0.04,0.03,0.04,0.06
				c0,0.05-0.04,0.13-0.06,0.45c-0.01,0.07-0.02,0.38-0.04,0.46c-0.01,0.04-0.02,0.08-0.07,0.08c-0.05,0-0.06-0.03-0.06-0.1
				c0-0.05-0.01-0.17-0.04-0.25c-0.05-0.13-0.12-0.21-0.48-0.25c-0.12-0.01-0.87-0.03-1.01-0.03c-0.03,0-0.05,0.02-0.05,0.07v1.77
				c0,0.05,0.01,0.08,0.05,0.08c0.16,0,0.98,0,1.14-0.01c0.17-0.02,0.28-0.03,0.34-0.11c0.05-0.06,0.08-0.09,0.11-0.09
				c0.03,0,0.05,0.01,0.05,0.06c0,0.04-0.04,0.15-0.06,0.51c-0.01,0.14-0.03,0.42-0.03,0.47c0,0.06,0,0.13-0.06,0.13
				c-0.05,0-0.06-0.03-0.06-0.06c-0.01-0.07-0.01-0.16-0.03-0.25c-0.03-0.14-0.13-0.24-0.4-0.27c-0.13-0.01-0.84-0.02-1.01-0.02
				c-0.03,0-0.04,0.03-0.04,0.07v0.55c0,0.24-0.01,0.88,0,1.09c0.02,0.48,0.13,0.59,0.85,0.59c0.19,0,0.48,0,0.67-0.08
				c0.18-0.08,0.27-0.23,0.32-0.52c0.02-0.08,0.03-0.1,0.08-0.1c0.06,0,0.06,0.06,0.06,0.13c0,0.16-0.06,0.64-0.09,0.78
				c-0.05,0.18-0.11,0.18-0.38,0.18c-0.53,0-0.93-0.01-1.23-0.02c-0.3-0.01-0.52-0.02-0.74-0.02c-0.08,0-0.24,0.01-0.41,0.01
				c-0.16,0.01-0.35,0.01-0.49,0.01c-0.09,0-0.14-0.02-0.14-0.07c0-0.03,0.03-0.05,0.11-0.05c0.11,0,0.19-0.01,0.26-0.03
				c0.14-0.03,0.18-0.18,0.21-0.39c0.04-0.29,0.04-0.85,0.04-1.49V42.48z"/>
			<path class="st0" d="M130.43,40.48c0.02-0.12,0.07-0.18,0.12-0.18c0.06,0,0.1,0.03,0.19,0.22l1.94,3.95l1.94-4
				c0.05-0.11,0.09-0.17,0.16-0.17c0.07,0,0.11,0.07,0.13,0.22l0.65,4.32c0.07,0.44,0.14,0.64,0.35,0.71
				c0.21,0.06,0.35,0.07,0.44,0.07c0.06,0,0.11,0.01,0.11,0.05c0,0.06-0.09,0.08-0.18,0.08c-0.18,0-1.16-0.02-1.45-0.04
				c-0.16-0.01-0.21-0.03-0.21-0.08c0-0.04,0.03-0.06,0.08-0.08c0.04-0.01,0.07-0.1,0.04-0.3l-0.43-3.08h-0.03l-1.55,3.18
				c-0.17,0.33-0.2,0.39-0.27,0.39c-0.06,0-0.13-0.14-0.25-0.35c-0.17-0.32-0.73-1.39-0.82-1.59c-0.06-0.15-0.49-1.03-0.74-1.55
				h-0.03l-0.37,2.79c-0.02,0.13-0.02,0.22-0.02,0.33c0,0.13,0.09,0.2,0.21,0.22c0.13,0.03,0.23,0.04,0.3,0.04
				c0.06,0,0.11,0.01,0.11,0.05c0,0.06-0.07,0.08-0.17,0.08c-0.3,0-0.62-0.02-0.75-0.02c-0.14,0-0.48,0.02-0.71,0.02
				c-0.07,0-0.13-0.01-0.13-0.08c0-0.03,0.04-0.05,0.11-0.05c0.06,0,0.11,0,0.21-0.02c0.2-0.04,0.26-0.32,0.29-0.55L130.43,40.48z"
				/>
			<path class="st0" d="M137.63,42.48c0-1.06,0-1.26-0.02-1.48c-0.01-0.24-0.07-0.35-0.3-0.4c-0.06-0.01-0.18-0.02-0.28-0.02
				c-0.08,0-0.12-0.01-0.12-0.06c0-0.05,0.05-0.06,0.16-0.06c0.19,0,0.4,0.01,0.58,0.01c0.18,0.01,0.35,0.01,0.45,0.01
				c0.23,0,1.64,0,1.78-0.01c0.13-0.01,0.25-0.03,0.31-0.04c0.03-0.01,0.08-0.03,0.11-0.03c0.03,0,0.04,0.03,0.04,0.06
				c0,0.05-0.04,0.13-0.06,0.45c-0.01,0.07-0.02,0.38-0.03,0.46c-0.01,0.04-0.02,0.08-0.07,0.08c-0.05,0-0.07-0.03-0.07-0.1
				c0-0.05-0.01-0.17-0.04-0.25c-0.05-0.13-0.12-0.21-0.48-0.25c-0.12-0.01-0.87-0.03-1.01-0.03c-0.04,0-0.05,0.02-0.05,0.07v1.77
				c0,0.05,0.01,0.08,0.05,0.08c0.16,0,0.98,0,1.14-0.01c0.17-0.02,0.28-0.03,0.34-0.11c0.05-0.06,0.08-0.09,0.11-0.09
				c0.03,0,0.05,0.01,0.05,0.06c0,0.04-0.03,0.15-0.06,0.51c-0.01,0.14-0.03,0.42-0.03,0.47c0,0.06,0,0.13-0.06,0.13
				c-0.05,0-0.06-0.03-0.06-0.06c-0.01-0.07-0.01-0.16-0.03-0.25c-0.04-0.14-0.14-0.24-0.4-0.27c-0.13-0.01-0.84-0.02-1.01-0.02
				c-0.04,0-0.04,0.03-0.04,0.07v0.55c0,0.24-0.01,0.88,0,1.09c0.01,0.48,0.13,0.59,0.85,0.59c0.18,0,0.48,0,0.67-0.08
				c0.19-0.08,0.27-0.23,0.32-0.52c0.01-0.08,0.03-0.1,0.08-0.1c0.06,0,0.06,0.06,0.06,0.13c0,0.16-0.06,0.64-0.09,0.78
				c-0.05,0.18-0.11,0.18-0.39,0.18c-0.53,0-0.92-0.01-1.23-0.02c-0.31-0.01-0.53-0.02-0.74-0.02c-0.08,0-0.23,0.01-0.4,0.01
				c-0.16,0.01-0.35,0.01-0.49,0.01c-0.09,0-0.14-0.02-0.14-0.07c0-0.03,0.03-0.05,0.11-0.05c0.11,0,0.19-0.01,0.26-0.03
				c0.14-0.03,0.18-0.18,0.21-0.39c0.04-0.29,0.04-0.85,0.04-1.49V42.48z"/>
			<path class="st0" d="M142.56,44.79c0.02,0.55,0.11,0.73,0.25,0.77c0.12,0.04,0.26,0.05,0.37,0.05c0.08,0,0.12,0.01,0.12,0.05
				c0,0.06-0.07,0.07-0.17,0.07c-0.46,0-0.75-0.02-0.88-0.02c-0.06,0-0.4,0.02-0.77,0.02c-0.09,0-0.16-0.01-0.16-0.07
				c0-0.04,0.04-0.05,0.11-0.05c0.09,0,0.22-0.01,0.32-0.04c0.18-0.06,0.21-0.26,0.22-0.87l0.07-4.14c0-0.14,0.02-0.24,0.09-0.24
				c0.08,0,0.14,0.09,0.26,0.22c0.09,0.09,1.17,1.23,2.21,2.25c0.48,0.48,1.44,1.48,1.56,1.6h0.04l-0.07-3.14
				c-0.01-0.43-0.07-0.56-0.24-0.63c-0.11-0.04-0.28-0.04-0.38-0.04c-0.09,0-0.11-0.02-0.11-0.06c0-0.06,0.08-0.06,0.19-0.06
				c0.37,0,0.71,0.02,0.86,0.02c0.08,0,0.35-0.02,0.69-0.02c0.09,0,0.16,0.01,0.16,0.06c0,0.04-0.04,0.06-0.13,0.06
				c-0.07,0-0.13,0-0.21,0.02c-0.2,0.06-0.26,0.2-0.27,0.6l-0.08,4.42c0,0.15-0.03,0.22-0.09,0.22c-0.08,0-0.16-0.08-0.24-0.16
				c-0.45-0.42-1.36-1.34-2.1-2.06c-0.78-0.76-1.56-1.63-1.69-1.76h-0.02L142.56,44.79z"/>
			<path class="st0" d="M149.88,40.85l-1.06,0.03c-0.41,0.01-0.58,0.05-0.69,0.2c-0.07,0.1-0.1,0.19-0.12,0.24
				c-0.01,0.06-0.04,0.09-0.08,0.09c-0.05,0-0.07-0.04-0.07-0.11c0-0.11,0.13-0.75,0.15-0.81c0.02-0.09,0.04-0.13,0.09-0.13
				c0.06,0,0.13,0.07,0.31,0.08c0.21,0.02,0.48,0.03,0.71,0.03h2.82c0.23,0,0.39-0.02,0.49-0.03c0.11-0.02,0.16-0.03,0.19-0.03
				c0.05,0,0.06,0.04,0.06,0.15c0,0.15-0.02,0.63-0.02,0.81c-0.01,0.07-0.02,0.11-0.06,0.11c-0.06,0-0.07-0.04-0.08-0.14l-0.01-0.08
				c-0.01-0.18-0.21-0.38-0.84-0.39l-0.9-0.02v2.87c0,0.64,0,1.2,0.04,1.5c0.02,0.2,0.07,0.35,0.28,0.38
				c0.1,0.01,0.26,0.03,0.36,0.03c0.08,0,0.11,0.02,0.11,0.05c0,0.05-0.05,0.07-0.14,0.07c-0.47,0-0.92-0.02-1.11-0.02
				c-0.17,0-0.62,0.02-0.9,0.02c-0.09,0-0.14-0.02-0.14-0.07c0-0.03,0.03-0.05,0.11-0.05c0.11,0,0.19-0.01,0.26-0.03
				c0.14-0.03,0.19-0.18,0.21-0.39c0.04-0.29,0.04-0.85,0.04-1.49V40.85z"/>
			<path class="st0" d="M45.79,50.83c0-1.06,0-1.26-0.02-1.48c-0.01-0.24-0.07-0.35-0.31-0.4c-0.06-0.02-0.18-0.02-0.28-0.02
				c-0.08,0-0.12-0.01-0.12-0.06c0-0.05,0.05-0.06,0.16-0.06c0.38,0,0.83,0.02,1.04,0.02c0.17,0,0.62-0.02,0.87-0.02
				c0.1,0,0.16,0.01,0.16,0.06c0,0.05-0.04,0.06-0.11,0.06c-0.08,0-0.12,0.01-0.21,0.02c-0.19,0.03-0.25,0.15-0.26,0.4
				c-0.02,0.22-0.02,0.42-0.02,1.48v0.98c0,1.01,0.21,1.44,0.55,1.72c0.32,0.26,0.65,0.29,0.89,0.29c0.31,0,0.7-0.1,0.98-0.38
				c0.39-0.39,0.41-1.01,0.41-1.74v-0.87c0-1.06,0-1.26-0.02-1.48c-0.01-0.24-0.07-0.35-0.31-0.4c-0.06-0.02-0.18-0.02-0.26-0.02
				c-0.08,0-0.12-0.01-0.12-0.06c0-0.05,0.05-0.06,0.15-0.06c0.36,0,0.81,0.02,0.82,0.02c0.09,0,0.53-0.02,0.81-0.02
				c0.1,0,0.15,0.01,0.15,0.06c0,0.05-0.04,0.06-0.13,0.06c-0.08,0-0.12,0.01-0.21,0.02c-0.19,0.03-0.25,0.15-0.26,0.4
				c-0.01,0.22-0.01,0.42-0.01,1.48v0.75c0,0.78-0.08,1.6-0.68,2.11c-0.51,0.43-1.02,0.5-1.48,0.5c-0.38,0-1.06-0.02-1.58-0.48
				c-0.36-0.32-0.63-0.84-0.63-1.85V50.83z"/>
			<path class="st0" d="M52.59,53.14c0.01,0.55,0.11,0.73,0.25,0.78c0.12,0.04,0.26,0.05,0.37,0.05c0.08,0,0.12,0.02,0.12,0.06
				c0,0.06-0.07,0.07-0.17,0.07c-0.46,0-0.75-0.02-0.88-0.02c-0.07,0-0.4,0.02-0.77,0.02c-0.09,0-0.16-0.01-0.16-0.07
				c0-0.04,0.04-0.06,0.11-0.06c0.09,0,0.22-0.01,0.32-0.03c0.19-0.06,0.21-0.26,0.22-0.87l0.06-4.14c0-0.14,0.02-0.24,0.09-0.24
				c0.08,0,0.14,0.09,0.26,0.22c0.09,0.09,1.17,1.23,2.2,2.25c0.48,0.48,1.44,1.48,1.56,1.59h0.04l-0.07-3.14
				c-0.01-0.43-0.07-0.56-0.24-0.63c-0.11-0.04-0.28-0.04-0.38-0.04c-0.08,0-0.11-0.02-0.11-0.06c0-0.06,0.08-0.06,0.18-0.06
				c0.37,0,0.71,0.02,0.86,0.02c0.08,0,0.35-0.02,0.7-0.02c0.09,0,0.16,0.01,0.16,0.06c0,0.04-0.04,0.06-0.13,0.06
				c-0.07,0-0.13,0-0.21,0.02c-0.2,0.06-0.26,0.2-0.26,0.59l-0.08,4.42c0,0.15-0.03,0.22-0.09,0.22c-0.08,0-0.16-0.08-0.24-0.15
				c-0.45-0.42-1.36-1.34-2.1-2.06c-0.77-0.76-1.57-1.63-1.69-1.76h-0.02L52.59,53.14z"/>
			<path class="st0" d="M58.97,50.83c0-1.06,0-1.26-0.01-1.48c-0.01-0.24-0.09-0.36-0.24-0.39c-0.08-0.02-0.17-0.03-0.26-0.03
				c-0.07,0-0.11-0.01-0.11-0.07c0-0.04,0.06-0.06,0.17-0.06c0.27,0,0.72,0.02,0.92,0.02c0.18,0,0.6-0.02,0.87-0.02
				c0.09,0,0.15,0.01,0.15,0.06c0,0.06-0.04,0.07-0.11,0.07c-0.07,0-0.13,0.01-0.21,0.02c-0.19,0.03-0.25,0.15-0.26,0.4
				c-0.02,0.22-0.02,0.42-0.02,1.48v1.23c0,0.68,0,1.23,0.03,1.53c0.02,0.19,0.07,0.31,0.29,0.34c0.1,0.01,0.26,0.03,0.36,0.03
				c0.08,0,0.11,0.02,0.11,0.06c0,0.05-0.06,0.07-0.13,0.07c-0.47,0-0.92-0.02-1.11-0.02c-0.16,0-0.61,0.02-0.89,0.02
				c-0.09,0-0.14-0.02-0.14-0.07c0-0.04,0.03-0.06,0.11-0.06c0.11,0,0.19-0.01,0.26-0.03c0.14-0.03,0.18-0.15,0.21-0.35
				c0.04-0.29,0.04-0.85,0.04-1.53V50.83z"/>
			<path class="st0" d="M61.56,49.49c-0.16-0.38-0.28-0.46-0.54-0.53c-0.11-0.03-0.22-0.03-0.28-0.03c-0.06,0-0.09-0.02-0.09-0.06
				c0-0.06,0.08-0.06,0.19-0.06c0.38,0,0.78,0.02,1.03,0.02c0.18,0,0.52-0.02,0.88-0.02c0.09,0,0.16,0.01,0.16,0.06
				c0,0.05-0.04,0.06-0.11,0.06c-0.11,0-0.22,0.01-0.28,0.05c-0.05,0.03-0.07,0.08-0.07,0.15c0,0.09,0.06,0.29,0.17,0.54l1.22,3.18
				h0.03c0.31-0.77,1.23-3.02,1.4-3.48c0.04-0.09,0.07-0.2,0.07-0.26c0-0.06-0.03-0.11-0.09-0.13c-0.09-0.03-0.19-0.04-0.28-0.04
				c-0.06,0-0.12-0.01-0.12-0.06c0-0.06,0.06-0.07,0.2-0.07c0.36,0,0.66,0.02,0.75,0.02c0.12,0,0.45-0.02,0.67-0.02
				c0.09,0,0.15,0.01,0.15,0.06c0,0.05-0.04,0.06-0.11,0.06c-0.07,0-0.22,0-0.35,0.09c-0.09,0.06-0.2,0.18-0.39,0.63
				c-0.28,0.66-0.47,1.04-0.85,1.9c-0.46,1.02-0.79,1.78-0.95,2.13c-0.19,0.41-0.23,0.52-0.33,0.52c-0.09,0-0.14-0.1-0.27-0.43
				L61.56,49.49z"/>
			<path class="st0" d="M67.4,50.83c0-1.06,0-1.26-0.01-1.48c-0.01-0.24-0.07-0.35-0.31-0.4c-0.06-0.02-0.18-0.02-0.28-0.02
				c-0.08,0-0.12-0.01-0.12-0.06c0-0.05,0.05-0.06,0.16-0.06c0.19,0,0.4,0.01,0.57,0.01c0.19,0.01,0.35,0.01,0.45,0.01
				c0.23,0,1.64,0,1.78-0.01c0.13-0.01,0.25-0.03,0.31-0.04c0.04-0.01,0.08-0.03,0.11-0.03c0.03,0,0.04,0.03,0.04,0.06
				c0,0.05-0.03,0.13-0.06,0.46c-0.01,0.07-0.02,0.38-0.04,0.46c-0.01,0.03-0.02,0.07-0.07,0.07c-0.05,0-0.07-0.03-0.07-0.1
				c0-0.05-0.01-0.17-0.04-0.25c-0.05-0.13-0.12-0.21-0.48-0.25c-0.12-0.01-0.87-0.03-1.01-0.03c-0.03,0-0.05,0.02-0.05,0.07v1.77
				c0,0.05,0.01,0.08,0.05,0.08c0.16,0,0.98,0,1.14-0.01c0.17-0.01,0.28-0.03,0.34-0.1c0.05-0.06,0.08-0.09,0.11-0.09
				c0.03,0,0.05,0.01,0.05,0.06c0,0.04-0.03,0.15-0.06,0.51c-0.01,0.14-0.03,0.42-0.03,0.47c0,0.05,0,0.13-0.06,0.13
				c-0.05,0-0.07-0.03-0.07-0.06c-0.01-0.07-0.01-0.16-0.03-0.25c-0.03-0.14-0.14-0.25-0.4-0.27c-0.14-0.01-0.84-0.02-1.01-0.02
				c-0.03,0-0.04,0.03-0.04,0.07v0.55c0,0.24-0.01,0.88,0,1.08c0.01,0.48,0.13,0.59,0.85,0.59c0.19,0,0.48,0,0.67-0.08
				c0.18-0.09,0.27-0.23,0.32-0.52c0.02-0.08,0.03-0.11,0.08-0.11c0.06,0,0.06,0.06,0.06,0.13c0,0.16-0.06,0.63-0.09,0.78
				c-0.05,0.18-0.11,0.18-0.39,0.18c-0.53,0-0.92-0.01-1.23-0.02c-0.31-0.01-0.53-0.02-0.74-0.02c-0.08,0-0.23,0.01-0.4,0.01
				c-0.16,0.01-0.35,0.01-0.49,0.01c-0.09,0-0.14-0.02-0.14-0.07c0-0.04,0.03-0.06,0.11-0.06c0.11,0,0.19-0.01,0.26-0.03
				c0.14-0.03,0.18-0.18,0.21-0.39c0.04-0.29,0.04-0.85,0.04-1.49V50.83z"/>
			<path class="st0" d="M71.93,50.83c0-1.06,0-1.26-0.01-1.48c-0.02-0.24-0.07-0.35-0.31-0.4c-0.06-0.02-0.18-0.02-0.28-0.02
				c-0.08,0-0.12-0.01-0.12-0.06c0-0.05,0.05-0.06,0.16-0.06c0.38,0,0.83,0.02,0.97,0.02c0.24,0,0.78-0.02,1-0.02
				c0.45,0,0.92,0.04,1.31,0.3c0.2,0.13,0.48,0.49,0.48,0.96c0,0.52-0.22,0.99-0.94,1.57c0.63,0.78,1.12,1.41,1.54,1.84
				c0.4,0.41,0.69,0.45,0.8,0.48c0.08,0.01,0.14,0.02,0.2,0.02c0.06,0,0.09,0.02,0.09,0.06c0,0.06-0.05,0.07-0.14,0.07h-0.68
				c-0.4,0-0.57-0.03-0.76-0.13c-0.31-0.16-0.57-0.49-0.97-1.03c-0.29-0.38-0.61-0.86-0.7-0.96c-0.04-0.04-0.08-0.05-0.13-0.05
				l-0.62-0.01c-0.03,0-0.06,0.01-0.06,0.06v0.1c0,0.65,0,1.2,0.04,1.5c0.02,0.2,0.07,0.36,0.28,0.39c0.11,0.01,0.26,0.03,0.35,0.03
				c0.06,0,0.09,0.02,0.09,0.06c0,0.05-0.05,0.07-0.14,0.07c-0.41,0-0.94-0.02-1.05-0.02c-0.13,0-0.58,0.02-0.87,0.02
				c-0.09,0-0.14-0.02-0.14-0.07c0-0.04,0.03-0.06,0.11-0.06c0.11,0,0.19-0.01,0.26-0.03c0.14-0.03,0.18-0.18,0.21-0.39
				c0.04-0.29,0.04-0.85,0.04-1.49V50.83z M72.77,51.39c0,0.08,0.01,0.1,0.06,0.12c0.15,0.05,0.36,0.07,0.54,0.07
				c0.28,0,0.38-0.03,0.51-0.12c0.21-0.15,0.42-0.48,0.42-1.05c0-0.99-0.67-1.28-1.09-1.28c-0.18,0-0.3,0.01-0.38,0.03
				c-0.05,0.01-0.06,0.04-0.06,0.1V51.39z"/>
			<path class="st0" d="M76.84,54.01c-0.11-0.05-0.13-0.08-0.13-0.24c0-0.38,0.03-0.8,0.04-0.92c0.01-0.11,0.03-0.18,0.09-0.18
				c0.07,0,0.07,0.06,0.07,0.12c0,0.09,0.03,0.24,0.06,0.36c0.16,0.52,0.58,0.71,1.02,0.71c0.64,0,0.95-0.43,0.95-0.8
				c0-0.34-0.11-0.67-0.7-1.12l-0.33-0.25c-0.78-0.6-1.05-1.09-1.05-1.66c0-0.77,0.66-1.32,1.64-1.32c0.46,0,0.76,0.07,0.95,0.12
				c0.06,0.01,0.1,0.04,0.1,0.09c0,0.09-0.03,0.29-0.03,0.84c0,0.15-0.02,0.21-0.08,0.21c-0.05,0-0.07-0.04-0.07-0.13
				c0-0.06-0.04-0.28-0.19-0.46c-0.11-0.13-0.31-0.34-0.78-0.34c-0.53,0-0.85,0.3-0.85,0.72c0,0.32,0.16,0.57,0.76,1.01l0.2,0.15
				c0.86,0.65,1.17,1.12,1.17,1.78c0,0.41-0.16,0.89-0.67,1.22c-0.36,0.22-0.76,0.29-1.13,0.29C77.47,54.19,77.15,54.14,76.84,54.01
				z"/>
			<path class="st0" d="M81.41,50.83c0-1.06,0-1.26-0.01-1.48c-0.01-0.24-0.09-0.36-0.24-0.39c-0.08-0.02-0.17-0.03-0.26-0.03
				c-0.07,0-0.11-0.01-0.11-0.07c0-0.04,0.06-0.06,0.17-0.06c0.27,0,0.72,0.02,0.92,0.02c0.18,0,0.6-0.02,0.87-0.02
				c0.09,0,0.15,0.01,0.15,0.06c0,0.06-0.04,0.07-0.11,0.07c-0.07,0-0.13,0.01-0.21,0.02c-0.19,0.03-0.25,0.15-0.26,0.4
				c-0.01,0.22-0.01,0.42-0.01,1.48v1.23c0,0.68,0,1.23,0.03,1.53c0.02,0.19,0.07,0.31,0.28,0.34c0.1,0.01,0.26,0.03,0.36,0.03
				c0.08,0,0.11,0.02,0.11,0.06c0,0.05-0.05,0.07-0.13,0.07c-0.47,0-0.92-0.02-1.11-0.02c-0.17,0-0.61,0.02-0.9,0.02
				c-0.09,0-0.14-0.02-0.14-0.07c0-0.04,0.03-0.06,0.11-0.06c0.11,0,0.19-0.01,0.26-0.03c0.14-0.03,0.18-0.15,0.21-0.35
				c0.04-0.29,0.04-0.85,0.04-1.53V50.83z"/>
			<path class="st0" d="M85.61,49.2l-1.06,0.03c-0.41,0.01-0.58,0.05-0.69,0.2c-0.07,0.11-0.11,0.19-0.12,0.24
				c-0.02,0.06-0.04,0.08-0.08,0.08c-0.05,0-0.07-0.03-0.07-0.11c0-0.11,0.14-0.75,0.15-0.81c0.02-0.09,0.04-0.13,0.09-0.13
				c0.06,0,0.13,0.07,0.31,0.09c0.21,0.02,0.48,0.03,0.71,0.03h2.82c0.23,0,0.38-0.02,0.49-0.03c0.11-0.02,0.16-0.03,0.19-0.03
				c0.05,0,0.06,0.04,0.06,0.15c0,0.15-0.02,0.63-0.02,0.81c-0.01,0.07-0.02,0.11-0.06,0.11c-0.06,0-0.07-0.04-0.08-0.14l-0.01-0.08
				c-0.01-0.18-0.21-0.38-0.84-0.39l-0.9-0.02v2.87c0,0.64,0,1.2,0.04,1.5c0.02,0.2,0.06,0.35,0.28,0.38
				c0.1,0.01,0.25,0.03,0.36,0.03c0.08,0,0.11,0.02,0.11,0.06c0,0.05-0.06,0.07-0.14,0.07c-0.47,0-0.92-0.02-1.12-0.02
				c-0.16,0-0.61,0.02-0.89,0.02c-0.09,0-0.14-0.02-0.14-0.07c0-0.04,0.03-0.06,0.11-0.06c0.11,0,0.19-0.01,0.26-0.03
				c0.14-0.03,0.19-0.18,0.21-0.39c0.04-0.29,0.04-0.85,0.04-1.49V49.2z"/>
			<path class="st0" d="M90.58,52.28c0-0.38-0.07-0.53-0.16-0.73c-0.05-0.11-1-1.65-1.25-2.01c-0.18-0.26-0.36-0.43-0.49-0.51
				c-0.09-0.05-0.21-0.09-0.3-0.09c-0.06,0-0.11-0.01-0.11-0.06c0-0.04,0.05-0.06,0.14-0.06c0.13,0,0.66,0.02,0.9,0.02
				c0.15,0,0.44-0.02,0.76-0.02c0.07,0,0.11,0.02,0.11,0.06c0,0.04-0.05,0.05-0.16,0.08c-0.06,0.02-0.1,0.07-0.1,0.13
				c0,0.06,0.04,0.14,0.09,0.24c0.1,0.21,1.1,1.9,1.21,2.09c0.07-0.17,0.97-1.71,1.07-1.92c0.07-0.15,0.1-0.27,0.1-0.36
				c0-0.07-0.03-0.15-0.15-0.18c-0.06-0.01-0.13-0.03-0.13-0.07c0-0.05,0.04-0.06,0.12-0.06c0.24,0,0.46,0.02,0.67,0.02
				c0.16,0,0.63-0.02,0.76-0.02c0.08,0,0.13,0.01,0.13,0.06c0,0.05-0.06,0.07-0.13,0.07c-0.07,0-0.21,0.03-0.31,0.09
				c-0.15,0.07-0.23,0.15-0.38,0.34c-0.23,0.28-1.23,1.93-1.36,2.23c-0.11,0.25-0.11,0.47-0.11,0.7v0.58c0,0.11,0,0.4,0.02,0.7
				c0.01,0.2,0.08,0.36,0.29,0.39c0.1,0.01,0.26,0.03,0.36,0.03c0.08,0,0.11,0.02,0.11,0.06c0,0.05-0.06,0.07-0.15,0.07
				c-0.45,0-0.9-0.02-1.09-0.02c-0.18,0-0.63,0.02-0.89,0.02c-0.1,0-0.16-0.01-0.16-0.07c0-0.04,0.03-0.06,0.11-0.06
				c0.1,0,0.19-0.01,0.25-0.03c0.14-0.03,0.21-0.18,0.22-0.39c0.02-0.29,0.02-0.59,0.02-0.7V52.28z"/>
		</g>
	</g>
</g>
</svg>
