<svg width="156" height="30" viewBox="0 0 156 30" fill="none" xmlns="http://www.w3.org/2000/svg">
<path fill-rule="evenodd" clip-rule="evenodd" d="M9.07013 11.2853L18.1403 5.64263L27.2104 11.2382L18.1403 16.8809L27.1621 22.5705L36.2323 16.9279L27.1621 11.2853L36.2323 5.64263L27.1621 0L18.1403 5.64263L9.07013 0L0 5.64263L9.07013 11.2382L0 16.8809L9.07013 22.5705L18.1403 16.9279L9.07013 11.2853ZM18.092 18.7147L9.02188 24.3574L18.092 30L27.1621 24.3574L18.092 18.7147ZM111.19 21.1125L110.853 23.8339H107.388V4H111.335V11.6107C112.201 9.67343 113.934 8.61255 116.388 8.61255C120.094 8.65867 122.838 11.1033 122.838 16.0387V16.5C122.838 21.4354 120.239 24.2491 116.292 24.2491C113.693 24.203 112.008 23.0498 111.19 21.1125ZM43.2774 5.47601H50.5933C55.262 5.47601 59.1125 8.05904 59.1125 13.9631V15.2085C59.1125 21.1587 55.5027 23.8339 50.7377 23.8339H43.2774V5.47601ZM47.3685 8.79705V20.4668H50.4971C53.1443 20.4668 54.9251 18.8063 54.9251 15.1162V14.1476C54.9251 10.4576 53.048 8.79705 50.3527 8.79705H47.3685ZM64.5513 8.98155H61.3265V23.8801H65.3695V17.0535C65.3695 13.917 66.1877 12.81 69.5088 12.81H71.1933V8.84317H70.1826C67.2947 8.84317 65.7064 10.0886 65.0807 12.441L64.5513 8.98155ZM72.0116 16.7306V16.3155C72.0116 11.3339 75.3326 8.61255 79.8569 8.61255C84.4775 8.61255 87.7022 11.3339 87.7022 16.3155V16.7306C87.7022 21.6199 84.5737 24.2491 79.8569 24.2491C74.8513 24.203 72.0116 21.6199 72.0116 16.7306ZM83.563 16.3155V16.6845C83.563 19.3598 82.1191 20.8358 79.8088 20.8819C77.4985 20.8819 76.0546 19.3598 76.0546 16.6845V16.3155C76.0546 13.4096 77.5466 11.8875 79.8088 11.8875C82.1191 11.8875 83.563 13.548 83.563 16.3155ZM89.82 8.98155H93.1892L93.5742 11.7952C94.3924 9.90406 96.1252 8.61255 98.6761 8.61255C102.623 8.61255 105.222 11.3339 105.222 16.3616V16.7768C105.222 21.6661 102.334 24.2491 98.6761 24.2491C96.2214 24.2491 94.5368 23.1882 93.7186 21.4815V29H89.7719L89.82 8.98155ZM101.131 16.3616V16.6845C101.131 19.452 99.6868 20.8819 97.3766 20.928C95.1144 20.928 93.6705 19.2675 93.6705 16.6384V16.3616C93.6705 13.5941 95.1625 11.9336 97.4247 11.9336C99.5424 11.9336 101.131 13.4096 101.131 16.3616ZM114.992 11.8875C117.158 11.8875 118.699 13.4096 118.699 16.131V16.5C118.699 19.452 117.303 20.8819 114.944 20.8819C112.73 20.8819 111.238 19.2675 111.238 16.5V16.1771C111.238 13.5941 112.778 11.8875 114.992 11.8875ZM124.571 16.7306V16.3155C124.571 11.3339 127.892 8.61255 132.416 8.61255C137.036 8.61255 140.261 11.3339 140.261 16.3155V16.7306C140.261 21.6199 137.085 24.2491 132.416 24.2491C127.41 24.203 124.571 21.6199 124.571 16.7306ZM132.416 11.8875C134.726 11.8875 136.17 13.548 136.17 16.3155V16.6845C136.17 19.3598 134.726 20.8358 132.416 20.8819C130.106 20.8819 128.662 19.3598 128.662 16.6845V16.3155C128.662 13.4096 130.154 11.8875 132.416 11.8875ZM145.556 16.131L140.117 8.98155H144.785L147.914 13.4557L151.091 8.98155H155.711L150.176 16.0849L156 23.8339H151.428L147.866 18.8985L144.4 23.8339H139.635L145.556 16.131Z" fill="#807E7E"/>
</svg>
