<svg width="126" height="32" viewBox="0 0 126 32" fill="none" xmlns="http://www.w3.org/2000/svg">
<path fill-rule="evenodd" clip-rule="evenodd" d="M8.49325 3.36389C8.49325 5.22542 10.0064 6.72779 11.8814 6.72779H15.2695V3.36389C15.2695 1.50237 13.7563 0 11.8814 0C10.0064 0 8.49325 1.50237 8.49325 3.36389ZM15.2695 11.7964C15.2695 9.93487 13.7563 8.4325 11.8814 8.4325H3.38813C1.51319 8.4325 0 9.93993 0 11.7964C0 13.6529 1.51319 15.1603 3.38813 15.1603H11.8814C13.7563 15.1603 15.2695 13.6579 15.2695 11.7964ZM3.4136 23.5928C5.28854 23.5928 6.80173 22.0904 6.80173 20.2289V16.865H3.4136C1.53867 16.865 0.0254746 18.3724 0.0254746 20.2289C0.0254746 22.0854 1.53867 23.5928 3.4136 23.5928ZM11.8814 16.865C10.0064 16.865 8.49325 18.3674 8.49325 20.2289V28.6361C8.49325 30.4976 10.0064 32 11.8814 32C13.7563 32 15.2695 30.4976 15.2695 28.6361V20.2289C15.2695 18.3674 13.7563 16.865 11.8814 16.865ZM23.7628 11.7964C23.7628 13.6579 22.2496 15.1603 20.3746 15.1603C18.4997 15.1603 16.9865 13.6579 16.9865 11.7964V3.36389C16.9865 1.50237 18.4997 0 20.3746 0C22.2496 0 23.7628 1.50237 23.7628 3.36389V11.7964ZM25.4543 11.7964C25.4543 9.93487 26.9675 8.4325 28.8424 8.4325C30.7173 8.4325 32.2305 9.93487 32.2305 11.7964C32.2305 13.6579 30.7173 15.1603 28.8424 15.1603H25.4543V11.7964ZM16.9865 20.2289C16.9865 22.0904 18.4997 23.5928 20.3746 23.5928H28.8679C30.7428 23.5928 32.256 22.0904 32.256 20.2289C32.256 18.3674 30.7428 16.865 28.8679 16.865H20.3746C18.4997 16.865 16.9865 18.3674 16.9865 20.2289ZM23.7628 28.6361C23.7628 26.7746 22.2496 25.2722 20.3746 25.2722H16.9865V28.6361C16.9865 30.4976 18.4997 32 20.3746 32C22.2496 32 23.7628 30.4976 23.7628 28.6361ZM57.9075 1H63.34V27.6363H57.9075V1ZM41.8923 22.014L40.32 25.6763C42.5021 27.2524 45.3695 27.9899 48.4939 27.9949C52.7573 27.9949 55.7255 25.5248 55.7255 22.014C55.664 18.076 51.9535 17.0769 49.0595 16.2977C47.2056 15.7985 45.6867 15.3896 45.6769 14.356C45.6769 13.5428 46.5638 12.9063 47.9093 12.9063C49.8898 12.9063 51.9711 13.669 53.6442 14.7399L55.1157 11.0019C53.2864 9.5521 50.7264 8.91562 48.1613 8.91562C43.8476 8.91562 40.8038 11.5626 40.829 14.9976C40.8753 19.143 44.592 19.9547 47.4685 20.5828C49.2854 20.9796 50.767 21.3032 50.7768 22.3474C50.7768 23.3123 49.7336 23.9487 48.0857 23.9487C45.8533 23.9487 43.5906 23.287 41.8923 22.014ZM96.7362 23.0041C98.4395 23.0041 99.911 22.0645 100.697 20.6906L105.036 23.1152C103.413 26.04 100.314 28 96.7362 28C91.4801 28 87.2167 23.7265 87.2167 18.4578C87.2167 13.1891 91.4801 8.91562 96.7362 8.91562C100.289 8.91562 103.413 10.9008 105.036 13.8004L100.697 16.215C99.911 14.841 98.4344 13.9014 96.7362 13.9014C94.2265 13.9014 92.1957 15.9371 92.1957 18.4528C92.1957 20.9684 94.2215 23.0041 96.7362 23.0041ZM107.168 27.6363V1H112.595V16.6393L118.738 9.28943H125.39L117.801 18.1446L126 27.6363H119.046L112.6 19.6449V27.6363H107.168ZM80.0249 11.5347V9.38221H85.68V27.6178H80.0249V25.4653C79.0964 26.964 76.7987 28 74.3961 28C69.4282 28 65.52 23.7454 65.52 18.4749C65.52 13.2043 69.4282 9 74.3961 9C76.8039 9 79.1016 10.041 80.0249 11.5347ZM75.6131 23.0312C77.5174 23.0312 79.2066 22.0707 80.0249 20.7782V16.2972C79.2066 14.9796 77.5174 13.9688 75.6131 13.9688C73.0007 13.9688 70.8866 15.9955 70.8866 18.5C70.8866 21.0045 72.9954 23.0312 75.6131 23.0312Z" fill="#807E7E"/>
</svg>
