<svg width="140" height="42" viewBox="0 0 140 42" fill="none" xmlns="http://www.w3.org/2000/svg">
<path fill-rule="evenodd" clip-rule="evenodd" d="M20.9948 0C9.39992 0 0 9.40196 0 20.9996C0 32.5985 9.39992 42 20.9948 42C32.5901 42 41.9895 32.5985 41.9895 20.9996C41.9895 9.4027 32.5906 0.00100306 20.9945 0.00100306L20.9948 0ZM30.6228 30.2875C30.2458 30.9061 29.44 31.1 28.8235 30.7231C23.8934 27.7091 17.6879 27.0283 10.3799 28.6981C9.67568 28.8596 8.97371 28.418 8.81327 27.7139C8.65206 27.0095 9.09154 26.3073 9.79752 26.1468C17.795 24.318 24.655 25.1052 30.1888 28.4875C30.8056 28.8662 31.0011 29.6711 30.6226 30.288L30.6228 30.2875ZM33.1925 24.5703C32.7177 25.3409 31.7104 25.5826 30.941 25.1094C25.2988 21.6403 16.6954 20.6355 10.0204 22.6622C9.15472 22.9238 8.2404 22.4358 7.97766 21.5714C7.71693 20.7055 8.20506 19.7927 9.06923 19.5294C16.6939 17.2153 26.1725 18.3362 32.6533 22.3197C33.4229 22.7936 33.6661 23.8017 33.1923 24.5705L33.1925 24.5703ZM33.4132 18.6161C26.6456 14.5961 15.4827 14.2264 9.02233 16.1877C7.98493 16.5024 6.88784 15.9166 6.57346 14.8789C6.25907 13.8408 6.84422 12.7442 7.88238 12.4287C15.2985 10.1768 27.6269 10.6119 35.4173 15.2378C36.3504 15.7917 36.6565 16.9971 36.1034 17.9292C35.5519 18.8626 34.3435 19.1703 33.4134 18.6161H33.4132ZM57.1198 19.3864C53.4948 18.5218 52.8495 17.915 52.8495 16.6398C52.8495 15.4351 53.9835 14.6244 55.6697 14.6244C57.3043 14.6244 58.9251 15.24 60.6244 16.5074C60.6758 16.5458 60.7402 16.5611 60.8036 16.551C60.8671 16.5415 60.9232 16.5066 60.9603 16.4542L62.7303 13.9586C62.803 13.8558 62.7832 13.7141 62.6852 13.6356C60.6628 12.0124 58.3854 11.2233 55.7234 11.2233C51.8094 11.2233 49.0754 13.5727 49.0754 16.9342C49.0754 20.539 51.4338 21.8154 55.5093 22.8006C58.978 23.5998 59.5634 24.2694 59.5634 25.4663C59.5634 26.7926 58.3796 27.6171 56.4745 27.6171C54.3586 27.6171 52.6327 26.9042 50.702 25.2318C50.6541 25.1904 50.5884 25.1716 50.5278 25.1751C50.4638 25.1804 50.4054 25.21 50.3648 25.2589L48.3802 27.6214C48.297 27.7194 48.3075 27.8658 48.4038 27.9506C50.6501 29.9565 53.4129 31.016 56.3943 31.016C60.6119 31.016 63.3373 28.7109 63.3373 25.1433C63.3448 22.1316 61.5423 20.464 57.1273 19.3897L57.1198 19.3864ZM72.8791 15.8105C71.051 15.8105 69.5515 16.5307 68.315 18.0065V16.3454C68.315 16.2143 68.2087 16.1074 68.0778 16.1074H64.832C64.7009 16.1074 64.5948 16.2143 64.5948 16.3454V34.8023C64.5948 34.9334 64.7008 35.0402 64.832 35.0402H68.0778C68.2087 35.0402 68.315 34.9334 68.315 34.8023V28.9762C69.5517 30.3645 71.0515 31.0428 72.8791 31.0428C76.2759 31.0428 79.7146 28.4273 79.7146 23.4275C79.7196 18.4265 76.2799 15.8103 72.8829 15.8103L72.8791 15.8105ZM75.9402 23.4275C75.9402 25.9736 74.3723 27.7502 72.1272 27.7502C69.9077 27.7502 68.2335 25.8928 68.2335 23.4275C68.2335 20.9625 69.9077 19.1048 72.1272 19.1048C74.3359 19.1046 75.9405 20.9221 75.9405 23.4273L75.9402 23.4275ZM88.5281 15.8105C84.1535 15.8105 80.7264 19.1798 80.7264 23.4819C80.7264 27.7372 84.13 31.0711 88.4744 31.0711C92.8645 31.0711 96.3022 27.7131 96.3022 23.4275C96.3022 19.1567 92.8876 15.811 88.5278 15.811L88.5281 15.8105ZM88.5281 27.7756C86.2013 27.7756 84.4471 25.9056 84.4471 23.4263C84.4471 20.9364 86.1406 19.1297 88.4744 19.1297C90.8163 19.1297 92.5822 20.9996 92.5822 23.4807C92.5822 25.9701 90.8774 27.7756 88.5283 27.7756H88.5281ZM105.644 16.1074H102.072V12.4548C102.072 12.3239 101.966 12.2171 101.835 12.2171H98.5896C98.4582 12.2171 98.3517 12.3239 98.3517 12.4548V16.1074H96.791C96.6604 16.1074 96.5546 16.2143 96.5546 16.3454V19.1357C96.5546 19.2666 96.6604 19.3737 96.791 19.3737H98.3517V26.5935C98.3517 29.5111 99.8035 30.9904 102.667 30.9904C103.831 30.9904 104.797 30.7499 105.707 30.2336C105.781 30.1922 105.827 30.1125 105.827 30.0277V27.3706C105.827 27.2886 105.785 27.2111 105.714 27.1682C105.644 27.1238 105.556 27.1216 105.483 27.1574C104.858 27.4722 104.254 27.6173 103.578 27.6173C102.536 27.6173 102.072 27.1444 102.072 26.0844V19.3749H105.644C105.775 19.3749 105.88 19.2681 105.88 19.137V16.3469C105.885 16.2158 105.78 16.109 105.647 16.109L105.644 16.1074ZM118.089 16.1217V15.6731C118.089 14.3533 118.595 13.7648 119.729 13.7648C120.406 13.7648 120.949 13.8992 121.558 14.1023C121.633 14.1259 121.711 14.1141 121.772 14.0692C121.835 14.0243 121.87 13.9523 121.87 13.8761V11.1403C121.87 11.0357 121.803 10.9432 121.702 10.9123C121.059 10.721 120.236 10.5246 119.005 10.5246C116.007 10.5246 114.422 12.2133 114.422 15.4063V16.0934H112.862C112.732 16.0934 112.624 16.2002 112.624 16.3311V19.1357C112.624 19.2666 112.732 19.3736 112.862 19.3736H114.422V30.5099C114.422 30.641 114.528 30.7479 114.659 30.7479H117.904C118.036 30.7479 118.142 30.641 118.142 30.5099V19.3744H121.173L125.815 30.5079C125.288 31.6777 124.77 31.9104 124.062 31.9104C123.491 31.9104 122.888 31.7397 122.273 31.4026C122.215 31.3708 122.146 31.3655 122.084 31.3848C122.022 31.4066 121.97 31.4528 121.943 31.513L120.843 33.9271C120.791 34.0412 120.836 34.1751 120.945 34.2343C122.094 34.8564 123.131 35.122 124.412 35.122C126.809 35.122 128.133 34.0053 129.301 31.0012L134.932 16.4467C134.961 16.3735 134.952 16.2907 134.907 16.2258C134.863 16.1613 134.791 16.1225 134.712 16.1225H131.333C131.232 16.1225 131.141 16.1869 131.108 16.282L127.647 26.1717L123.855 16.2754C123.821 16.1834 123.732 16.1225 123.634 16.1225H118.088L118.089 16.1217ZM110.873 16.1074H107.628C107.496 16.1074 107.39 16.2143 107.39 16.3454V30.5099C107.39 30.6411 107.496 30.7479 107.628 30.7479H110.873C111.004 30.7479 111.111 30.6411 111.111 30.5099V16.3464C111.111 16.2832 111.086 16.2225 111.042 16.1779C110.997 16.1332 110.936 16.1082 110.873 16.1084L110.873 16.1074ZM109.269 9.658C107.983 9.658 106.94 10.6992 106.94 11.9853C106.94 13.2723 107.983 14.3147 109.269 14.3147C110.554 14.3147 111.597 13.2723 111.597 11.9853C111.597 10.6994 110.554 9.658 109.27 9.658H109.269ZM137.704 20.6616C136.419 20.6616 135.42 19.6297 135.42 18.3766C135.42 17.1235 136.432 16.0798 137.716 16.0798C139 16.0798 140 17.1115 140 18.3636C140 19.6167 138.987 20.6616 137.704 20.6616H137.704ZM137.716 16.307C136.546 16.307 135.661 17.2374 135.661 18.3766C135.661 19.5153 136.54 20.4331 137.705 20.4331C138.874 20.4331 139.761 19.5036 139.761 18.3636C139.761 17.2248 138.881 16.307 137.717 16.307H137.716ZM138.223 18.5985L138.869 19.5033H138.324L137.742 18.6733H137.242V19.5033H136.786V17.105H137.855C138.413 17.105 138.779 17.3901 138.779 17.8701C138.781 18.2633 138.553 18.5035 138.225 18.5985H138.223V18.5985ZM137.837 17.5165H137.242V18.2751H137.837C138.134 18.2751 138.311 18.1299 138.311 17.8954C138.311 17.6487 138.133 17.5165 137.837 17.5165H137.837V17.5165Z" fill="#807E7E"/>
</svg>
