<svg width="124" height="33" viewBox="0 0 124 33" fill="none" xmlns="http://www.w3.org/2000/svg">
<path fill-rule="evenodd" clip-rule="evenodd" d="M16.9741 30.7824C15.1171 31.104 13.2275 31.2004 11.2727 31.4572L5.31044 14.2346V32.1964C3.45346 32.3891 1.75934 32.6462 0 32.9032V0H4.95228L11.7288 18.669V0H16.9741V30.7824ZM27.2368 12.0495C29.2569 12.0495 32.352 11.9531 34.209 11.9531V17.0941C31.8957 17.0941 29.1917 17.0941 27.2368 17.1905V24.8381C30.2995 24.6454 33.362 24.3881 36.4569 24.2917V29.2397L22.0239 30.3646V0H36.4569V5.14114H27.2368V12.0495ZM55.8419 5.14126H50.4337V28.7904C48.6744 28.7904 46.9151 28.7904 45.2212 28.8545V5.14126H39.813V0H55.8422L55.8419 5.14126ZM64.3127 11.6962H71.4478V16.8372H64.3127V28.5013H59.1973V0H73.7609V5.14114H64.3127V11.6962ZM82.2317 24.0026C85.1965 24.0667 88.1937 24.292 91.0935 24.4524V29.5293C86.4346 29.24 81.7756 28.9512 77.019 28.8545V0H82.2317V24.0026ZM95.4917 29.8828C97.1533 29.9794 98.9126 30.0758 100.607 30.2683V0H95.4917V29.8828ZM123.445 0L116.832 15.6484L123.445 32.9032C121.49 32.6462 119.536 32.2927 117.581 31.9713L113.834 22.4604L110.023 31.2004C108.133 30.8788 106.308 30.7824 104.419 30.5253L111.13 15.4554L105.07 0H110.674L114.095 8.64354L117.744 0H123.445Z" fill="#807E7E"/>
</svg>
