<svg width="186" height="64" viewBox="0 0 186 64" fill="none" xmlns="http://www.w3.org/2000/svg">
<g clip-path="url(#clip0_262_1740)">
<path fill-rule="evenodd" clip-rule="evenodd" d="M21.8393 0.0444336H42.6338V20.8389H21.8393V0.0444336ZM21.2617 21.4003H0.467285V42.1948H21.2617V21.4003ZM42.6338 21.4003H21.8393V42.1948H42.6338V21.4003ZM85.3418 42.7211H64.5476V63.5152H85.3418V42.7211ZM43.1753 21.4003H63.97V42.1948H43.1753V21.4003ZM85.3418 21.4003H64.5476V42.1948H85.3418V21.4003ZM28.7336 14.9182V6.02283H32.6603C33.2703 6.02283 33.787 6.11179 34.2107 6.28972C34.6342 6.45914 34.9519 6.70906 35.1637 7.03948C35.384 7.36138 35.4941 7.75109 35.4941 8.20856C35.4941 8.71686 35.367 9.14471 35.1129 9.49205C34.9367 9.74112 34.7017 9.93138 34.4079 10.0628C34.6406 10.1467 34.8501 10.2572 35.0366 10.3943C35.3331 10.6061 35.5619 10.8687 35.7229 11.1822C35.8838 11.4872 35.9643 11.8345 35.9643 12.2242C35.9643 12.6732 35.888 13.0672 35.7355 13.406C35.5831 13.7364 35.3628 14.016 35.0748 14.2447C34.7867 14.4735 34.4478 14.6429 34.0581 14.7531C33.6769 14.8632 33.2533 14.9182 32.7874 14.9182H28.7336ZM30.7668 13.1138H32.7111C32.9483 13.1138 33.1474 13.0756 33.3084 12.9994C33.4778 12.9231 33.6091 12.813 33.7023 12.669C33.7955 12.5165 33.8421 12.3343 33.8421 12.1226C33.8421 11.9277 33.7913 11.7625 33.6896 11.627C33.5964 11.4914 33.4608 11.3897 33.283 11.322C33.105 11.2457 32.8933 11.2076 32.6476 11.2076H30.7668V13.1138ZM30.7668 9.59371H32.3553C32.5756 9.59371 32.7619 9.55981 32.9145 9.49205C33.0754 9.41578 33.194 9.31412 33.2703 9.18707C33.355 9.05151 33.3973 8.89056 33.3973 8.70416C33.3973 8.43309 33.3041 8.22126 33.1178 8.06877C32.9314 7.90781 32.6518 7.82731 32.2791 7.82731H30.7668V9.59371ZM9.7506 27.5232L6.23054 36.4186H8.36545L9.00042 34.7157H12.2562L12.8894 36.4186H15.0751L11.5805 27.5232H9.7506ZM11.6514 33.0892L11.212 31.9073C11.1442 31.7294 11.0764 31.5388 11.0086 31.3355C10.9409 31.1321 10.8731 30.9246 10.8053 30.7128C10.7478 30.526 10.6904 30.3453 10.6329 30.1707C10.5794 30.3514 10.5225 30.5321 10.4622 30.7128C10.4029 30.9077 10.3352 31.1068 10.2589 31.3101C10.1826 31.5049 10.1106 31.7083 10.0429 31.92L9.60694 33.0892H11.6514ZM71.6945 27.5232V36.4186H78.023V34.576H73.7911V32.7714H77.3238V31.0178H73.7911V29.3658H77.8956V27.5232H71.6945ZM71.1169 48.6634V57.559H74.84C75.4927 57.559 76.0898 57.4527 76.632 57.2411C77.1741 57.0206 77.6401 56.7159 78.0299 56.3261C78.4277 55.9278 78.7329 55.4576 78.9444 54.9154C79.1565 54.3648 79.2623 53.7634 79.2623 53.1113C79.2623 52.4587 79.1565 51.8615 78.9444 51.3193C78.7329 50.7771 78.4277 50.3069 78.0299 49.9087C77.6401 49.5106 77.1741 49.2056 76.632 48.9938C76.0898 48.7735 75.4927 48.6634 74.84 48.6634H71.1169ZM73.277 55.6528H74.7765C75.1325 55.6528 75.4498 55.5935 75.7296 55.4745C76.0094 55.3476 76.2464 55.1741 76.441 54.9535C76.6447 54.7335 76.8012 54.4664 76.9112 54.1533C77.0218 53.8396 77.0768 53.4921 77.0768 53.1113C77.0768 52.7298 77.0218 52.3825 76.9112 52.069C76.8012 51.7556 76.6447 51.4887 76.441 51.2684C76.2464 51.0482 76.0094 50.8787 75.7296 50.7602C75.4498 50.633 75.1325 50.5695 74.7765 50.5695H73.277V55.6528ZM54.0743 36.5456C53.4053 36.5456 52.7868 36.4355 52.2192 36.2152C51.6601 35.9865 51.1729 35.6688 50.7578 35.2622C50.3427 34.8471 50.0208 34.3599 49.792 33.8008C49.5718 33.2332 49.4616 32.6105 49.4616 31.9327C49.4616 31.2719 49.5802 30.662 49.8174 30.1029C50.0547 29.5437 50.3808 29.0608 50.7959 28.6542C51.2195 28.239 51.7151 27.9171 52.2827 27.6884C52.8588 27.4597 53.4857 27.3452 54.1637 27.3452C54.5869 27.3452 55.0021 27.4003 55.4088 27.5105C55.8156 27.6206 56.1927 27.7858 56.5397 28.0061C56.8956 28.2179 57.2008 28.472 57.4547 28.7685L56.1329 30.2807C55.9552 30.0944 55.7648 29.9334 55.5612 29.7979C55.3665 29.6539 55.1507 29.5437 54.9132 29.4675C54.6763 29.3912 54.4219 29.3531 54.1505 29.3531C53.812 29.3531 53.4899 29.4166 53.1852 29.5437C52.8885 29.6623 52.6258 29.836 52.3971 30.0647C52.1768 30.285 52.0032 30.5561 51.8761 30.878C51.749 31.2 51.6855 31.56 51.6855 31.9582C51.6855 32.3479 51.749 32.7037 51.8761 33.0256C52.0032 33.3391 52.1811 33.6102 52.4098 33.8389C52.6386 34.0676 52.9139 34.2413 53.236 34.3599C53.5661 34.4785 53.9305 34.5378 54.3288 34.5378C54.5996 34.5378 54.8582 34.4997 55.1036 34.4235C55.3496 34.3472 55.5739 34.2456 55.7775 34.1185C55.9891 33.9829 56.1758 33.8305 56.3366 33.661L57.3785 35.313C57.167 35.5502 56.8829 35.762 56.527 35.9484C56.18 36.1348 55.7902 36.283 55.3581 36.3932C54.9344 36.4948 54.5065 36.5456 54.0743 36.5456ZM141.784 39.2442C142.776 39.6292 143.857 39.8218 145.027 39.8218C145.783 39.8218 146.531 39.7329 147.271 39.5552C148.026 39.3626 148.708 39.1035 149.315 38.7777C149.937 38.4518 150.433 38.0816 150.803 37.6669L148.982 34.779C148.7 35.0752 148.374 35.3418 148.004 35.5787C147.649 35.8009 147.256 35.9786 146.827 36.1119C146.397 36.2452 145.946 36.3118 145.472 36.3118C144.776 36.3118 144.139 36.2081 143.561 36.0008C142.998 35.7935 142.517 35.4899 142.117 35.09C141.717 34.6901 141.406 34.2162 141.184 33.6682C140.962 33.1055 140.851 32.4834 140.851 31.8022C140.851 31.1061 140.962 30.4767 141.184 29.9139C141.406 29.3511 141.71 28.8772 142.095 28.4922C142.495 28.0923 142.954 27.7887 143.472 27.5814C144.005 27.3592 144.568 27.2481 145.161 27.2481C145.635 27.2481 146.079 27.3148 146.494 27.4481C146.908 27.5814 147.286 27.7739 147.626 28.0257C147.982 28.2626 148.315 28.544 148.626 28.8698L150.936 26.2263C150.492 25.7079 149.959 25.2636 149.337 24.8934C148.73 24.5083 148.071 24.2195 147.36 24.027C146.649 23.8344 145.923 23.7382 145.183 23.7382C143.998 23.7382 142.902 23.9381 141.895 24.338C140.903 24.7379 140.036 25.3006 139.296 26.0263C138.57 26.7372 138 27.5814 137.585 28.5588C137.171 29.5363 136.963 30.6026 136.963 31.7578C136.963 32.9426 137.156 34.0311 137.541 35.0233C137.941 36.0008 138.504 36.8524 139.229 37.5781C139.955 38.2889 140.807 38.8443 141.784 39.2442ZM101.431 39.5996L107.584 24.0492H110.783L116.892 39.5996H113.071L111.964 36.6228H106.273L105.163 39.5996H101.431ZM110.139 31.7133L110.907 33.7793H107.333L108.095 31.7355C108.214 31.3653 108.339 31.0099 108.473 30.6692C108.606 30.3138 108.725 29.9658 108.828 29.6251C108.933 29.3092 109.033 28.9933 109.127 28.6774C109.227 28.9826 109.328 29.2986 109.428 29.6251C109.546 29.9954 109.665 30.3582 109.783 30.7137C109.902 31.0691 110.02 31.4023 110.139 31.7133ZM120.609 39.5996V24.0492H127.474C128.54 24.0492 129.444 24.2047 130.184 24.5157C130.925 24.8119 131.48 25.2488 131.85 25.8264C132.235 26.3892 132.428 27.0704 132.428 27.8702C132.428 28.7587 132.206 29.5066 131.761 30.1139C131.454 30.5493 131.043 30.8819 130.529 31.1117C130.936 31.2582 131.302 31.4514 131.628 31.6911C132.146 32.0614 132.546 32.5205 132.828 33.0684C133.109 33.6016 133.25 34.2088 133.25 34.8901C133.25 35.675 133.116 36.3636 132.85 36.956C132.583 37.5336 132.198 38.0224 131.695 38.4222C131.191 38.8221 130.599 39.1183 129.918 39.3108C129.251 39.5033 128.511 39.5996 127.696 39.5996H120.609ZM124.164 36.4451H127.563C127.977 36.4451 128.325 36.3784 128.607 36.2452C128.903 36.1119 129.133 35.9193 129.296 35.6676C129.458 35.401 129.54 35.0826 129.54 34.7123C129.54 34.3717 129.451 34.0829 129.273 33.846C129.11 33.609 128.873 33.4313 128.562 33.3128C128.251 33.1795 127.881 33.1129 127.452 33.1129H124.164V36.4451ZM124.164 30.2916H126.941C127.326 30.2916 127.652 30.2323 127.918 30.1139C128.2 29.9806 128.407 29.8028 128.54 29.5807C128.688 29.3437 128.762 29.0624 128.762 28.7365C128.762 28.2626 128.599 27.8924 128.274 27.6258C127.948 27.3444 127.459 27.2037 126.807 27.2037H124.164V30.2916ZM155.165 39.5996V24.0492H161.674C162.814 24.0492 163.858 24.2417 164.806 24.6268C165.754 24.997 166.568 25.5302 167.25 26.2263C167.946 26.9223 168.479 27.7443 168.849 28.6921C169.219 29.6399 169.404 30.684 169.404 31.8244C169.404 32.9648 169.219 34.0163 168.849 34.9789C168.479 35.9268 167.946 36.7487 167.25 37.4448C166.568 38.126 165.754 38.6592 164.806 39.0442C163.858 39.4145 162.814 39.5996 161.674 39.5996H155.165ZM161.563 36.2674H158.941V27.3814H161.563C162.185 27.3814 162.74 27.4925 163.229 27.7146C163.717 27.922 164.132 28.2182 164.473 28.6032C164.828 28.9883 165.102 29.4548 165.295 30.0028C165.487 30.5507 165.583 31.158 165.583 31.8244C165.583 32.4908 165.487 33.0981 165.295 33.646C165.102 34.194 164.828 34.6605 164.473 35.0456C164.132 35.4306 163.717 35.7342 163.229 35.9564C162.74 36.1637 162.185 36.2674 161.563 36.2674ZM184.943 24.0492H174.102V39.5996H185.165V36.3784H177.768V33.2239H183.944V30.1583H177.768V27.2704H184.943V24.0492Z" fill="white"/>
</g>
<defs>
<clipPath id="clip0_262_1740">
<rect width="185.124" height="64" fill="white" transform="translate(0.271973)"/>
</clipPath>
</defs>
</svg>
