<svg width="118" height="39" viewBox="0 0 118 39" fill="none" xmlns="http://www.w3.org/2000/svg">
<path fill-rule="evenodd" clip-rule="evenodd" d="M15.4393 0H14.3996C11.457 0.176453 8.57328 1.13714 6.1996 2.88206C3.72784 4.64659 1.80535 7.17574 0.804876 10.0382C-0.293687 13.1751 -0.27407 16.7042 0.902962 19.8215C2.15846 23.2133 4.7087 26.0954 7.9063 27.8011C10.5742 29.2519 13.6738 29.8205 16.6752 29.5264C19.7747 29.2715 22.8154 27.9776 25.0125 25.7817C28.3082 22.684 29.3283 17.8021 28.6221 13.4692H14.9096V17.508C17.0804 17.5211 19.2511 17.5167 21.4218 17.5124H21.4225C22.508 17.5102 23.5935 17.508 24.679 17.508C24.4436 19.5078 23.7178 21.5664 22.1484 22.9192C20.1474 24.8406 17.2833 25.6837 14.5369 25.5268C11.5943 25.4288 8.74984 24.0172 6.88621 21.7625C4.9441 19.449 4.10056 16.3121 4.51253 13.332C4.88525 10.3127 6.61156 7.48944 9.1618 5.82294C11.4962 4.23487 14.4977 3.70551 17.2833 4.29368C19.1666 4.64659 20.8929 5.64649 22.3249 6.94047C22.8516 6.39174 23.391 5.8558 23.9323 5.31805L23.9323 5.318L23.9324 5.31795L23.9324 5.3179C24.3387 4.91423 24.7461 4.50953 25.1498 4.09762C22.5996 1.52926 19.0489 0.0784234 15.4393 0ZM97.1259 1.51803H93.3319C93.3319 4.6386 93.3339 7.75917 93.3358 10.879C93.3398 17.1165 93.3437 23.3511 93.3319 29.5769C94.2765 29.6065 95.2311 29.6027 96.1807 29.5991H96.1809H96.1811H96.1813C96.4969 29.5978 96.812 29.5966 97.1259 29.5966V1.51803ZM46.0704 12.4004C43.863 10.858 40.967 10.3113 38.2938 10.7994C34.932 11.3656 31.9551 13.7671 30.902 16.9106C29.8489 19.8393 30.3147 23.2757 32.2386 25.7748C33.9397 28.0397 36.7344 29.4259 39.6101 29.5821C42.7491 29.7774 45.9691 28.4888 47.9335 26.0872C49.7561 23.9395 50.4447 20.9718 49.8979 18.2578C49.4726 15.9149 48.0753 13.7671 46.0704 12.4004ZM36.0661 16.2468C36.7952 15.3877 37.8078 14.7824 38.9013 14.5091C40.643 14.0795 42.5669 14.5677 43.8832 15.7391C45.9286 17.5549 46.3134 20.757 44.9768 23.0804C44.2072 24.4471 42.8099 25.482 41.21 25.7553C39.4886 26.0872 37.6255 25.521 36.3902 24.3105C34.2232 22.2018 34.1017 18.5116 36.0661 16.2468ZM58.7808 10.8009C61.8411 10.2344 65.1851 11.0548 67.4752 13.1253C71.2042 16.3483 71.6096 22.384 68.4277 26.0952C66.5024 28.4392 63.3813 29.7284 60.3008 29.5916C57.3622 29.5135 54.4641 28.1071 52.7211 25.7827C50.7553 23.2239 50.3297 19.7079 51.4443 16.7194C52.559 13.6722 55.4774 11.3478 58.7808 10.8009ZM59.3888 14.5122C58.2944 14.7856 57.2811 15.3912 56.5515 16.2311C54.6059 18.4578 54.687 22.091 56.7744 24.2201C58.0107 25.4897 59.936 26.1148 61.7195 25.7632C63.3003 25.4702 64.7189 24.4545 65.4891 23.0872C66.8064 20.7432 66.4213 17.5398 64.3541 15.7232C63.0368 14.5512 61.1115 14.0824 59.3888 14.5122ZM84.3332 11.364C81.9086 10.1269 78.9171 10.5259 76.6685 11.9626C73.9507 13.6587 72.1519 16.7914 72.0932 20.0439C71.9759 22.9172 73.2273 25.8105 75.339 27.6861C77.4311 29.5618 80.4226 30.5196 83.1405 29.7414C84.3918 29.4421 85.4281 28.6439 86.3275 27.746C86.3862 29.6017 86.3862 31.6769 85.1739 33.1934C84.0399 34.6699 82.026 35.1089 80.2858 34.7897C78.5456 34.4704 77.1573 33.0736 76.473 31.4374C76.0136 31.6416 75.5515 31.8343 75.0908 32.0264L75.0906 32.0264C74.3355 32.3412 73.5843 32.6544 72.8558 33.0138C74.0289 35.8672 76.6685 38.1219 79.6992 38.5809C82.5343 39.0199 85.6823 38.3614 87.7353 36.2263C89.6124 34.2908 90.2772 31.4773 90.2967 28.8235V11.2243C89.6319 11.2143 88.972 11.2143 88.3146 11.2143C87.6571 11.2143 87.0021 11.2143 86.3471 11.2044C86.3373 11.4837 86.3373 11.7631 86.3373 12.0399C86.3373 12.3168 86.3373 12.5911 86.3275 12.8605C85.7214 12.2819 85.0957 11.7032 84.3332 11.364ZM77.6462 16.3325C78.4087 15.3946 79.5232 14.7162 80.7159 14.5167C82.3388 14.2174 84.0594 14.8359 85.1348 16.093C86.875 18.1283 87.0901 21.3009 85.7996 23.6355C85.0371 25.0123 83.6097 26.01 82.0651 26.1697C80.4226 26.3492 78.7216 25.6309 77.6657 24.3339C75.8082 22.139 75.8082 18.5673 77.6462 16.3325ZM103.112 12.9413C105.448 10.755 109.049 10.0132 112.047 11.165C114.888 12.2386 116.699 14.952 117.613 17.7435C115.502 18.6215 113.396 19.4946 111.29 20.3678L111.288 20.3689C109.18 21.2425 107.073 22.1161 104.961 22.9946C105.545 24.1072 106.441 25.1223 107.648 25.5323C109.341 26.1374 111.365 25.9227 112.786 24.7905C113.351 24.361 113.798 23.7949 114.227 23.2483C114.761 23.6091 115.296 23.965 115.831 24.3209L115.832 24.322C116.368 24.6782 116.903 25.0345 117.438 25.3956C115.92 27.6796 113.37 29.2803 110.626 29.534C107.589 29.9049 104.358 28.7337 102.392 26.3521C99.161 22.6041 99.4724 16.3184 103.112 12.9413ZM105.195 16.5527C104.533 17.5092 104.261 18.6805 104.28 19.8322L104.282 19.8316C107.103 18.6606 109.925 17.4895 112.747 16.2989C112.28 15.2058 111.151 14.5421 110.003 14.3664C108.154 14.0345 106.227 15.0301 105.195 16.5527Z" fill="#807E7E"/>
</svg>
