<svg width="271" height="56" viewBox="0 0 271 56" fill="none" xmlns="http://www.w3.org/2000/svg">
<path d="M89.9298 19.0329C89.6048 19.112 89.3531 19.2993 89.1751 19.5957L84.6755 26.9376L79.9682 19.6255C79.7704 19.3488 79.5089 19.1765 79.1839 19.1073C78.858 19.038 78.5572 19.0924 78.2811 19.2697C78.024 19.4473 77.846 19.6946 77.7479 20.0102C77.6097 20.2275 77.5408 20.4542 77.5408 20.6909V35.1678C77.5408 35.5037 77.6587 35.7896 77.8959 36.0265C78.1333 36.2635 78.4187 36.3817 78.754 36.3817C79.0893 36.3817 79.3765 36.2635 79.6129 36.0265C79.8494 35.7896 79.9682 35.5037 79.9682 35.1678V24.1252L83.6687 29.8386C83.7281 29.9179 83.7873 29.9917 83.8467 30.061C83.9061 30.1303 83.9841 30.1942 84.083 30.2531C84.3599 30.4313 84.6652 30.4806 85.0015 30.4015C85.3368 30.3229 85.593 30.1352 85.771 29.8386L88.9979 24.5398V35.1678C88.9979 35.5037 89.1165 35.7896 89.3531 36.0265C89.5894 36.2635 89.8759 36.3817 90.2122 36.3817C90.5474 36.3817 90.8327 36.2635 91.07 36.0265C91.3074 35.7896 91.426 35.5037 91.426 35.1678V20.6909C91.426 20.5926 91.4156 20.5136 91.396 20.4542C91.4552 20.2174 91.4294 19.9804 91.322 19.7437C91.2127 19.5067 91.0502 19.3192 90.8327 19.1811C90.6415 19.0581 90.4384 18.9967 90.2233 18.9967C90.1278 18.9967 90.0301 19.0088 89.9298 19.0329ZM172.523 19.5217C172.279 19.7686 172.157 20.0597 172.157 20.3949V31.2008C172.157 32.0295 171.974 32.696 171.607 33.1989C171.24 33.7025 170.769 34.0726 170.195 34.3094C169.739 34.4869 169.244 34.5755 168.709 34.5755C168.173 34.6155 167.669 34.5267 167.192 34.3094C166.618 34.0923 166.131 33.7274 165.736 33.2141C165.339 32.7007 165.13 32.0295 165.111 31.2008V20.3949C165.111 20.0597 164.989 19.7686 164.745 19.5217C164.501 19.2752 164.214 19.1515 163.883 19.1515C163.551 19.1515 163.268 19.2752 163.034 19.5217C162.8 19.7686 162.683 20.0597 162.683 20.3949V31.2008V31.2304C162.683 32.6319 163.037 33.7762 163.746 34.6645C164.455 35.5528 165.313 36.1846 166.315 36.5593C167.084 36.8554 167.882 37.0032 168.708 37.0032C169.122 37.0032 169.529 36.9636 169.933 36.885C170.337 36.8057 170.735 36.6871 171.13 36.5294C172.114 36.1352 172.936 35.4985 173.595 34.6201C174.255 33.742 174.585 32.6023 174.585 31.2008V20.3949C174.585 20.0597 174.468 19.7686 174.234 19.5217C174 19.2752 173.717 19.1515 173.386 19.1515C173.054 19.1515 172.767 19.2752 172.523 19.5217ZM192.083 19.2109C191.747 19.2109 191.46 19.3279 191.223 19.5616C190.985 19.7962 190.867 20.0785 190.867 20.41C190.867 20.7414 190.985 21.0288 191.225 21.2729C191.462 21.5166 191.751 21.6382 192.088 21.6382H195.692L195.663 35.1654C195.663 35.5015 195.781 35.7888 196.018 36.0261C196.254 36.2635 196.541 36.3817 196.877 36.3817C197.212 36.3817 197.498 36.2635 197.735 36.0261C197.972 35.7888 198.091 35.5015 198.091 35.1654V21.6382H201.695C202.032 21.6382 202.32 21.5166 202.559 21.2729C202.797 21.0288 202.916 20.7414 202.916 20.41C202.916 20.0785 202.798 19.7962 202.56 19.5616C202.322 19.3279 202.035 19.2109 201.699 19.2109H192.083ZM135.095 19.2109C134.759 19.2109 134.472 19.3279 134.235 19.5616C133.996 19.7962 133.878 20.0785 133.878 20.41C133.878 20.7414 133.998 21.0288 134.235 21.2729C134.474 21.5166 134.761 21.6382 135.1 21.6382H138.705L138.674 35.1654C138.674 35.5015 138.792 35.7888 139.03 36.0261C139.267 36.2635 139.552 36.3817 139.888 36.3817C140.223 36.3817 140.51 36.2635 140.747 36.0261C140.983 35.7888 141.102 35.5015 141.102 35.1654V21.6382H144.706C145.044 21.6382 145.332 21.5166 145.569 21.2729C145.808 21.0288 145.927 20.7414 145.927 20.41C145.927 20.0785 145.808 19.7962 145.571 19.5616C145.334 19.3279 145.046 19.2109 144.711 19.2109H135.095ZM107.947 19.2109C107.612 19.2109 107.324 19.3279 107.087 19.5616C106.849 19.7962 106.731 20.0785 106.731 20.41C106.731 20.7414 106.85 21.0288 107.088 21.2729C107.326 21.5166 107.614 21.6382 107.952 21.6382H111.556L111.527 35.1654C111.527 35.5015 111.645 35.7888 111.881 36.0261C112.119 36.2635 112.404 36.3817 112.74 36.3817C113.076 36.3817 113.362 36.2635 113.599 36.0261C113.836 35.7888 113.955 35.5015 113.955 35.1654V21.6382H117.559C117.897 21.6382 118.184 21.5166 118.422 21.2729C118.66 21.0288 118.78 20.7414 118.78 20.41C118.78 20.0785 118.661 19.7962 118.424 19.5616C118.186 19.3279 117.898 19.2109 117.563 19.2109H107.947ZM233.335 19.4473C233.029 19.5857 232.817 19.8134 232.699 20.1282L227.222 34.7535C227.103 35.0691 227.113 35.3805 227.251 35.686C227.389 35.9921 227.616 36.1942 227.932 36.2927C228.247 36.3916 228.558 36.3768 228.864 36.2485C229.17 36.1202 229.372 35.8984 229.471 35.5826L233.882 23.918L238.501 35.4934C238.62 35.8094 238.831 36.0265 239.137 36.1447C239.443 36.2635 239.754 36.2732 240.069 36.1743C240.386 36.0561 240.608 35.8443 240.737 35.5376C240.864 35.2321 240.869 34.9209 240.75 34.6053L234.978 20.1282C234.86 19.7733 234.623 19.5363 234.267 19.4181C234.121 19.3634 233.977 19.336 233.833 19.336C233.665 19.336 233.5 19.3733 233.335 19.4473ZM125.692 19.4473C125.386 19.5857 125.174 19.8134 125.056 20.1282L119.579 34.7535C119.46 35.0691 119.47 35.3805 119.609 35.686C119.746 35.9921 119.974 36.1942 120.289 36.2927C120.605 36.3916 120.915 36.3768 121.223 36.2485C121.528 36.1202 121.73 35.8984 121.829 35.5826L126.24 23.918L130.859 35.4934C130.976 35.8094 131.189 36.0265 131.495 36.1447C131.8 36.2635 132.111 36.2732 132.428 36.1743C132.743 36.0561 132.965 35.8443 133.093 35.5376C133.222 35.2321 133.227 34.9209 133.109 34.6053L127.336 20.1282C127.217 19.7733 126.98 19.5363 126.625 19.4181C126.479 19.3634 126.334 19.336 126.191 19.336C126.023 19.336 125.857 19.3733 125.692 19.4473ZM260.882 19.4473V19.4769C260.191 19.4769 259.555 19.5957 258.972 19.8324C258.391 20.0694 257.892 20.4 257.478 20.8241C257.063 21.2488 256.737 21.7568 256.501 22.3489C256.263 22.9408 256.145 23.5729 256.145 24.2434C256.145 24.9541 256.258 25.6105 256.485 26.2125C256.712 26.8148 257.034 27.3276 257.448 27.7515C257.863 28.1764 258.361 28.5167 258.943 28.773C259.525 29.0298 260.171 29.168 260.882 29.1873C261.672 29.2274 262.461 29.2369 263.25 29.2171C264.04 29.1978 264.819 29.1873 265.589 29.1873C266.22 29.1873 266.729 29.4149 267.114 29.8684C267.499 30.3229 267.691 30.8554 267.691 31.4674C267.691 32.1383 267.488 32.7007 267.084 33.1547C266.679 33.609 266.132 33.8456 265.441 33.8654H258.631C258.296 33.8654 258.005 33.9887 257.759 34.235C257.512 34.4823 257.388 34.7732 257.388 35.1087C257.388 35.4636 257.512 35.7652 257.759 36.0115C258.005 36.2586 258.296 36.3817 258.631 36.3817H265.441C266.151 36.3817 266.798 36.2536 267.38 35.9969C267.962 35.7405 268.461 35.3898 268.875 34.9457C269.29 34.5015 269.615 33.9834 269.852 33.3915C270.089 32.7996 270.208 32.1582 270.208 31.4674C270.208 30.7763 270.089 30.1402 269.852 29.5574C269.615 28.9759 269.285 28.4673 268.86 28.0331C268.436 27.5991 267.933 27.263 267.35 27.0264C266.769 26.7895 266.132 26.6711 265.441 26.6711H261.651H260.882C260.191 26.6518 259.648 26.415 259.254 25.9606C258.858 25.5071 258.661 24.9442 258.661 24.273C258.661 23.6024 258.864 23.0497 259.269 22.6155C259.673 22.1817 260.211 21.9741 260.882 21.9937H267.039C267.395 21.9937 267.696 21.8656 267.943 21.6086C268.189 21.3522 268.313 21.0564 268.313 20.7207C268.313 20.3854 268.189 20.0893 267.943 19.8324C267.696 19.5762 267.395 19.4473 267.039 19.4473H260.882ZM180.831 19.4473V19.4769C180.14 19.4769 179.503 19.5957 178.922 19.8324C178.339 20.0694 177.841 20.4 177.427 20.8241C177.012 21.2488 176.687 21.7568 176.449 22.3489C176.213 22.9408 176.095 23.5729 176.095 24.2434C176.095 24.9541 176.208 25.6105 176.435 26.2125C176.661 26.8148 176.982 27.3276 177.397 27.7515C177.811 28.1764 178.31 28.5167 178.892 28.773C179.474 29.0298 180.12 29.168 180.831 29.1873C181.62 29.2274 182.41 29.2369 183.2 29.2171C183.989 29.1978 184.769 29.1873 185.538 29.1873C186.17 29.1873 186.678 29.4149 187.063 29.8684C187.448 30.3229 187.641 30.8554 187.641 31.4674C187.641 32.1383 187.438 32.7007 187.034 33.1547C186.629 33.609 186.081 33.8456 185.391 33.8654H178.581C178.245 33.8654 177.954 33.9887 177.708 34.235C177.46 34.4823 177.338 34.7732 177.338 35.1087C177.338 35.4636 177.46 35.7652 177.708 36.0115C177.954 36.2586 178.245 36.3817 178.581 36.3817H185.391C186.102 36.3817 186.747 36.2536 187.329 35.9969C187.911 35.7405 188.41 35.3898 188.825 34.9457C189.239 34.5015 189.565 33.9834 189.801 33.3915C190.038 32.7996 190.156 32.1582 190.156 31.4674C190.156 30.7763 190.038 30.1402 189.801 29.5574C189.565 28.9759 189.234 28.4673 188.81 28.0331C188.385 27.5991 187.881 27.263 187.3 27.0264C186.717 26.7895 186.081 26.6711 185.391 26.6711H181.601H180.831C180.14 26.6518 179.598 26.415 179.202 25.9606C178.809 25.5071 178.611 24.9442 178.611 24.273C178.611 23.6024 178.813 23.0497 179.218 22.6155C179.622 22.1817 180.16 21.9741 180.831 21.9937H186.989C187.345 21.9937 187.645 21.8656 187.892 21.6086C188.138 21.3522 188.261 21.0564 188.261 20.7207C188.261 20.3854 188.138 20.0893 187.892 19.8324C187.645 19.5762 187.345 19.4473 186.989 19.4473H180.831ZM242.793 19.4769C242.458 19.4769 242.172 19.5991 241.935 19.8428C241.698 20.0866 241.579 20.3747 241.579 20.7055C241.579 21.0376 241.698 21.3199 241.935 21.5542C242.172 21.7882 242.458 21.9047 242.793 21.9047H249.899C250.451 21.9047 250.895 22.0282 251.231 22.2749C251.566 22.5216 251.813 22.8329 251.971 23.2072C252.109 23.5037 252.178 23.8394 252.178 24.2138C252.178 24.6089 252.119 24.9644 252 25.2795C251.842 25.6747 251.591 26.0005 251.245 26.2567C250.9 26.5134 250.451 26.6518 249.899 26.6711H242.793C242.379 26.6711 242.044 26.8486 241.787 27.2042C241.708 27.3031 241.643 27.4162 241.595 27.5443C241.545 27.6733 241.521 27.806 241.521 27.9441C241.521 28.28 241.638 28.5709 241.875 28.8176C242.112 29.0647 242.398 29.1873 242.734 29.1873H249.899V29.1579C250.451 29.1579 250.895 29.2872 251.231 29.5451C251.566 29.8031 251.813 30.1212 251.971 30.4988C252.109 30.7763 252.178 31.1142 252.178 31.5112C252.178 31.8886 252.119 32.2365 252 32.5537C251.842 32.9514 251.591 33.2836 251.245 33.552C250.9 33.8202 250.451 33.954 249.899 33.954H242.734C242.398 33.954 242.112 34.0761 241.875 34.3197C241.638 34.5636 241.521 34.8516 241.521 35.1826C241.521 35.5143 241.638 35.7968 241.875 36.0308C242.112 36.2651 242.398 36.3817 242.734 36.3817H249.899H249.928C251.053 36.3817 251.975 36.0961 252.697 35.5244C253.416 34.953 253.944 34.2534 254.281 33.4264C254.517 32.7765 254.625 32.1363 254.606 31.5051C254.606 30.7962 254.477 30.1461 254.22 29.555C253.984 28.9242 253.609 28.3724 253.096 27.8999C253.609 27.4466 254.004 26.8661 254.281 26.1562C254.537 25.5456 254.645 24.9053 254.606 24.2353C254.606 23.9002 254.576 23.5706 254.517 23.2451C254.458 22.9205 254.359 22.6102 254.22 22.3142C253.885 21.5066 253.362 20.8322 252.652 20.29C251.942 19.7483 251.023 19.4769 249.899 19.4769H242.793ZM216.445 19.8324C216.208 20.0694 216.091 20.3556 216.091 20.6909V32.1773V32.3259C216.129 32.8393 216.203 33.3228 216.312 33.7762C216.421 34.2309 216.613 34.6452 216.889 35.0197C217.205 35.4541 217.609 35.7896 218.103 36.0265C218.596 36.2635 219.219 36.3817 219.968 36.3817H225.623C225.958 36.3817 226.245 36.2635 226.481 36.0265C226.718 35.7896 226.837 35.5037 226.837 35.1678C226.837 34.8326 226.718 34.5463 226.481 34.3094C226.245 34.0726 225.958 33.954 225.623 33.954H219.968C219.416 33.954 219.05 33.8356 218.873 33.5987C218.754 33.441 218.67 33.2435 218.622 33.007C218.572 32.77 218.538 32.5034 218.518 32.2071V32.1773V20.6909C218.518 20.3556 218.399 20.0694 218.163 19.8324C217.925 19.5957 217.639 19.4769 217.304 19.4769C216.967 19.4769 216.682 19.5957 216.445 19.8324ZM98.8859 19.4769V19.5067C98.1758 19.5067 97.5292 19.6305 96.9462 19.8768C96.3642 20.1241 95.8457 20.4643 95.3924 20.8983C94.9375 21.3325 94.5491 21.8504 94.223 22.4525C93.8972 23.0547 93.6357 23.7107 93.4381 24.421C93.1423 25.4674 92.9946 26.5727 92.9946 27.7369C92.9946 28.3095 93.0237 28.8767 93.0829 29.4395C93.1423 30.0016 93.2506 30.5495 93.4089 31.0826C93.5859 31.813 93.8378 32.4986 94.1638 33.1401C94.4889 33.7815 94.8791 34.3388 95.3332 34.8125C95.7871 35.286 96.3099 35.6667 96.9024 35.9519C97.4947 36.239 98.1551 36.3817 98.8859 36.3817H104.836C105.171 36.3817 105.463 36.2635 105.71 36.0265C105.956 35.7896 106.079 35.5037 106.079 35.1678C106.079 34.8326 105.956 34.5463 105.71 34.3094C105.463 34.0726 105.171 33.954 104.836 33.954H98.8859C98.0966 33.9147 97.4398 33.5642 96.917 32.9032C96.3942 32.2419 96.0038 31.4276 95.7476 30.4603C95.6091 30.0066 95.5301 29.5726 95.5102 29.1579H102.291C102.626 29.1579 102.912 29.0395 103.149 28.8026C103.386 28.5658 103.504 28.28 103.504 27.9441C103.504 27.6088 103.386 27.3226 103.149 27.0856C102.912 26.8486 102.626 26.7306 102.291 26.7306H95.481C95.5205 26.4327 95.56 26.1497 95.5998 25.8815C95.6393 25.6131 95.7078 25.3401 95.8067 25.0623C96.0632 24.1686 96.4475 23.4141 96.9616 22.7985C97.474 22.1831 98.1156 21.8853 98.8859 21.9047H104.836C105.171 21.9047 105.463 21.7882 105.71 21.5542C105.956 21.3199 106.079 21.0376 106.079 20.7055C106.079 20.3747 105.956 20.0866 105.71 19.8428C105.463 19.5991 105.171 19.4769 104.836 19.4769H98.8859ZM148.592 19.5067C148.255 19.5067 147.97 19.6237 147.733 19.8578C147.496 20.0919 147.378 20.3747 147.378 20.7055C147.378 21.0376 147.496 21.3254 147.733 21.5688C147.97 21.8127 148.255 21.9343 148.592 21.9343H156.525V21.9047C157.04 21.9047 157.459 22.0282 157.784 22.2749C158.11 22.5216 158.341 22.8127 158.48 23.1482C158.618 23.4249 158.687 23.7504 158.687 24.1252C158.687 24.4804 158.628 24.8063 158.51 25.1021C158.351 25.4773 158.11 25.7883 157.784 26.0345C157.459 26.2817 157.04 26.415 156.525 26.4341H148.592C148.255 26.4341 147.97 26.5529 147.733 26.7894C147.496 27.0264 147.378 27.3126 147.378 27.6479V27.7369V27.8259V35.1678C147.378 35.5037 147.496 35.7896 147.733 36.0265C147.97 36.2635 148.255 36.3817 148.592 36.3817C148.927 36.3817 149.213 36.2635 149.45 36.0265C149.687 35.7896 149.806 35.5037 149.806 35.1678V28.8619H154.099L158.243 35.7896C158.401 36.0661 158.647 36.2438 158.983 36.3221C159.318 36.4009 159.624 36.3622 159.901 36.2041C160.197 36.0265 160.384 35.7746 160.463 35.449C160.542 35.1232 160.492 34.8226 160.315 34.5463L156.91 28.8323C157.917 28.7537 158.741 28.4488 159.383 27.9179C160.024 27.387 160.482 26.7469 160.759 25.9993C160.996 25.4094 161.115 24.7893 161.115 24.1398C161.115 23.4514 160.986 22.822 160.73 22.2512C160.413 21.4843 159.906 20.8348 159.205 20.3037C158.505 19.7728 157.611 19.5067 156.525 19.5067H148.592Z" fill="white"/>
<path d="M27.4324 0V3.36438C26.4874 3.40087 25.5561 3.49229 24.6407 3.63277L25.0084 5.52325C26.114 5.35743 27.2449 5.27088 28.3959 5.27088C29.5469 5.27088 30.678 5.35743 31.7836 5.52325L32.1511 3.63277C31.2357 3.49229 30.3046 3.40087 29.3594 3.36438V0H27.4324ZM33.6749 5.89096C41.9756 7.87265 48.523 14.4202 50.5047 22.7207L52.3974 22.3528C50.2646 13.2844 43.111 6.13116 34.0428 3.99825L33.6749 5.89096ZM4.39424 22.3528L6.28695 22.7207C8.26864 14.4202 14.8162 7.87265 23.1169 5.89096L22.749 3.99825C13.6806 6.13116 6.52736 13.2844 4.39424 22.3528ZM22.257 10.9958L22.2722 11.1154C22.3533 11.7549 22.5307 12.3011 22.7591 12.7661C23.1086 13.4776 23.5787 14.0006 24.0182 14.3705C24.068 14.4129 24.1195 14.454 24.1684 14.4927C21.8176 17.777 20.6962 22.2142 20.2453 24.4815C18.6693 23.3883 17.3229 21.9843 16.2953 20.3606C15.9071 19.749 15.5642 19.108 15.2739 18.4387C14.9838 17.7787 14.7434 17.0913 14.5571 16.3834C14.3505 15.6076 14.2078 14.8059 14.1373 13.9839C13.5411 14.59 12.9837 15.2339 12.4684 15.9121C11.9701 16.5659 11.5102 17.2532 11.0952 17.9674C10.6482 18.7342 10.2513 19.5343 9.90978 20.3618C9.58585 21.139 9.31097 21.9405 9.08738 22.7625C8.83562 23.6915 8.64811 24.6471 8.53378 25.6246C8.44013 26.4044 8.39249 27.197 8.39249 27.9997C8.39249 33.4336 10.571 38.3703 14.101 41.9786C14.5881 42.477 15.0991 42.9483 15.6351 43.3943C15.8701 42.7481 16.1064 42.1018 16.3416 41.4584C15.8123 40.9855 15.3124 40.4805 14.8411 39.9476C12.0332 36.7657 10.3243 32.5884 10.3195 28.0204V27.9997C10.3195 27.034 10.3953 26.0845 10.5428 25.1585C10.6728 24.3375 10.8574 23.536 11.0952 22.755C11.3458 21.9302 11.6527 21.1311 12.0139 20.3606C12.3463 19.6501 12.7252 18.9641 13.1442 18.3065C13.4039 19.0156 13.712 19.7016 14.0651 20.3606C14.4237 21.0309 14.8283 21.6733 15.2739 22.2823C16.4918 23.951 18.0216 25.3795 19.7753 26.4814C20.3236 26.827 20.894 27.1404 21.4849 27.4179C22.1232 27.72 22.7835 27.9806 23.4632 28.1977C24.0721 28.393 24.6964 28.5521 25.3348 28.6729C26.027 28.8067 26.7349 28.8951 27.4555 28.9362C27.7665 28.9543 28.0799 28.9632 28.3959 28.9632C28.7273 28.9632 29.0561 28.953 29.3825 28.9336C30.0747 28.8926 30.7556 28.8067 31.4224 28.6794C32.0607 28.56 32.685 28.4021 33.2952 28.2081C33.985 27.9898 34.6544 27.726 35.3004 27.4206C35.8913 27.1431 36.4617 26.8309 37.0103 26.4853C38.7663 25.3819 40.2974 23.9522 41.5179 22.2823C41.9637 21.6733 42.3683 21.0309 42.7267 20.3606C43.0798 19.7016 43.3881 19.0156 43.6476 18.3065C44.0666 18.9641 44.4455 19.6501 44.7781 20.3606C45.1391 21.1311 45.446 21.9302 45.6966 22.755C45.9344 23.536 46.119 24.3375 46.2488 25.1585C46.3965 26.0845 46.4726 27.034 46.4726 27.9997V28.0204C46.4673 32.5959 44.7538 36.7787 41.9365 39.963C42.1832 40.6362 42.4313 41.3119 42.6792 41.9901C46.2169 38.3817 48.3993 33.44 48.3993 27.9997C48.3993 27.197 48.3517 26.4044 48.2592 25.6246C48.1435 24.6471 47.956 23.6915 47.7042 22.7625C47.4808 21.9405 47.206 21.139 46.882 20.3618C46.5405 19.5343 46.1438 18.7342 45.6966 17.9674C45.2814 17.2532 44.8217 16.5659 44.3234 15.9121C43.8081 15.2339 43.2507 14.59 42.6547 13.9839C42.584 14.8059 42.4415 15.6076 42.2347 16.3834C42.0484 17.0913 41.808 17.7787 41.5179 18.4387C41.2276 19.108 40.8847 19.749 40.4967 20.3606C39.4306 22.0471 38.0185 23.4963 36.3628 24.6086C36.3847 24.6791 36.4076 24.7499 36.4311 24.8206C36.5233 25.1095 36.6196 25.4075 36.7277 25.7056C36.5967 25.346 36.4668 24.985 36.3371 24.6254C36.3462 24.6203 36.3551 24.6151 36.3628 24.6086C36.196 24.0988 36.0186 23.5808 35.7707 23.053C35.7618 23.0313 35.7512 23.008 35.7399 22.9863C35.4289 22.3325 35.0065 21.6616 34.3615 20.9705C34.206 20.8039 34.0274 20.6304 33.8389 20.4453C32.9794 19.6065 31.9093 18.5619 32.0429 17.3982C32.1033 16.8792 32.3228 16.7432 32.4049 16.693C33.023 16.3139 34.3756 16.6174 34.9317 16.8213L36.8637 17.5447L36.3577 16.1086L36.1777 15.5998C35.8591 14.6957 35.3018 13.7603 34.4847 12.942C33.159 11.6112 31.1499 10.5861 28.3793 10.5002C27.448 10.4706 26.1146 10.3461 25.0546 10.233C24.0976 10.1312 23.3616 10.04 23.3476 10.0376L22.1155 9.88351L22.257 10.9958ZM27.448 27.0042C26.8478 26.9659 26.2571 26.8886 25.679 26.7769C25.0392 26.6547 24.4163 26.4879 23.8102 26.2825C23.2384 26.0896 22.6833 25.8597 22.1464 25.5978C22.1014 25.5771 22.0578 25.5554 22.013 25.5323C22.0989 25.0517 22.2378 24.339 22.4445 23.4884C23.0508 20.9937 24.2351 17.3161 26.325 14.8574L27.2194 13.8193L27.0355 13.75L25.9411 13.3351C25.8973 13.317 25.1615 13.0115 24.6462 12.1946C24.7133 12.179 24.7798 12.1636 24.8467 12.1482C25.9387 12.2652 27.3234 12.3949 28.3189 12.4257C30.7171 12.5015 32.3716 13.4301 33.3773 14.5785C33.3801 14.5811 33.3828 14.585 33.3852 14.5876C32.7171 14.5734 32.0029 14.68 31.4017 15.0488C30.8971 15.3571 30.2673 15.9764 30.1287 17.1772C29.8874 19.2814 31.4546 20.8114 32.4925 21.8237C32.6646 21.9932 32.8277 22.1523 32.9536 22.2861C33.4276 22.7947 33.7424 23.2754 33.9838 23.7736C34.2329 24.2875 34.4052 24.8192 34.5978 25.4142C34.6173 25.4729 34.6363 25.5323 34.6558 25.5927C34.7328 25.8327 34.8137 26.0782 34.9061 26.3336C34.8175 26.0885 34.729 25.8445 34.6402 25.6002C34.0969 25.865 33.5354 26.0963 32.9575 26.2898C32.3512 26.4958 31.728 26.66 31.0883 26.7822C30.5282 26.8901 29.9566 26.9632 29.3746 27.0016C29.0511 27.0249 28.7247 27.0364 28.3959 27.0364C28.0774 27.0364 27.7614 27.0263 27.448 27.0042ZM27.7243 14.2623C27.9505 14.7232 28.3734 15.0826 28.9118 15.2103C29.4506 15.3376 29.9898 15.2055 30.3985 14.8947C30.1722 14.4342 29.7494 14.0745 29.2106 13.947C29.073 13.9144 28.9353 13.8988 28.7997 13.8988C28.405 13.8988 28.0286 14.0312 27.7243 14.2623ZM42.2347 24.3376C40.9386 25.8802 39.3878 27.2047 37.6486 28.2452C37.0936 28.578 36.5195 28.8811 35.9286 29.1521C36.1498 29.7584 36.3707 30.3647 36.59 30.9686C37.1824 30.7024 37.7577 30.4073 38.3179 30.0862C39.9145 29.1702 41.3728 28.0411 42.6547 26.737C42.692 27.1532 42.7111 27.5746 42.7111 27.9997C42.7111 28.3853 42.6959 28.7668 42.6651 29.1444C41.5191 30.1426 40.268 31.0211 38.9307 31.7638C38.368 32.077 37.7889 32.3648 37.1965 32.6282C37.4187 33.2347 37.6397 33.8381 37.8606 34.4408C38.4542 34.1811 39.0347 33.8973 39.6013 33.5915C40.4825 33.1175 41.3288 32.5895 42.1382 32.0115C41.7439 33.3616 41.1555 34.631 40.404 35.7842C39.9891 36.4229 39.5241 37.0264 39.0142 37.5903C39.2595 38.2572 39.505 38.9292 39.7517 39.6022C40.2731 39.0922 40.76 38.5475 41.207 37.9718C42.9539 35.7343 44.1268 33.0289 44.5059 30.0795C44.593 29.3986 44.638 28.7037 44.638 27.9997C44.638 27.7378 44.6315 27.4757 44.6202 27.2162C44.5803 26.3967 44.4801 25.5938 44.3234 24.8103C44.159 23.9881 43.9328 23.1878 43.6476 22.4147C43.2187 23.0864 42.7472 23.7286 42.2347 24.3376ZM12.4684 24.8103C12.3117 25.5938 12.2115 26.3967 12.1718 27.2162C12.1601 27.4757 12.1538 27.7378 12.1538 27.9997C12.1538 28.7037 12.1986 29.3986 12.2861 30.0795C12.6638 33.0224 13.8326 35.7201 15.5709 37.9552C16.019 38.5321 16.5045 39.0768 17.0261 39.588C17.2716 38.9148 17.5181 38.2443 17.7636 37.5751C17.2533 37.01 16.7885 36.4049 16.3736 35.7639C15.6298 34.6154 15.0454 33.3539 14.6536 32.0115C15.4577 32.5858 16.2992 33.1112 17.1737 33.5825C17.7405 33.8896 18.3224 34.1734 18.9158 34.4341C19.1355 33.8331 19.3577 33.2294 19.5798 32.6217C18.9865 32.3584 18.4082 32.0679 17.8444 31.7547C16.5137 31.0148 15.2676 30.1387 14.1267 29.1444C14.0959 28.7668 14.0805 28.3853 14.0805 27.9997C14.0805 27.5746 14.0998 27.1532 14.1373 26.737C15.4152 28.0372 16.8694 29.1637 18.4597 30.0783C19.0198 30.3994 19.5965 30.6949 20.1888 30.9621C20.4097 30.3596 20.6305 29.7546 20.8529 29.1485C20.262 28.876 19.6877 28.5715 19.1329 28.2399C17.3987 27.1996 15.8508 25.8777 14.5571 24.3376C14.0447 23.7286 13.5732 23.0864 13.1442 22.4147C12.8588 23.1878 12.6328 23.9881 12.4684 24.8103ZM50.8724 24.6122C51.0384 25.7178 51.1249 26.8487 51.1249 27.9999C51.1249 29.1509 51.0384 30.2818 50.8724 31.3874L52.7633 31.7549C52.9037 30.8397 52.9949 29.9084 53.0314 28.9632H56.3958V27.0364H53.0314C52.9949 26.0912 52.9035 25.1601 52.7633 24.2447L50.8724 24.6122ZM3.76037 27.0364H0.395996V28.9632H3.76037C3.79686 29.9084 3.88808 30.8397 4.02856 31.7549L5.91923 31.3874C5.75342 30.2818 5.66666 29.1509 5.66666 27.9999C5.66666 26.8487 5.75342 25.7178 5.91923 24.6122L4.02876 24.2447C3.88808 25.1601 3.79686 26.0912 3.76037 27.0364ZM22.7991 31.927C23.4129 32.1066 24.0385 32.2568 24.6744 32.3776C25.5839 32.5497 26.5154 32.6588 27.4647 32.7026C27.4661 33.291 27.4661 33.8793 27.4673 34.4676C27.4673 35.1102 27.4683 35.7536 27.4683 36.3957C27.4711 38.3588 27.4697 40.3228 27.4673 42.2843C27.4673 42.9293 27.4661 43.5727 27.4647 44.2163C27.4647 44.8291 27.4632 45.4417 27.462 46.0532C27.4608 46.6956 27.4582 47.3392 27.4569 47.9814C27.7677 47.9956 28.0813 48.0033 28.3959 48.0033C28.7273 48.0033 29.0561 47.9956 29.3837 47.9788C29.3863 47.3366 29.3876 46.693 29.389 46.0496C29.39 45.438 29.3914 44.8252 29.3914 44.2124C29.3928 43.5688 29.394 42.924 29.394 42.2806C29.3965 40.319 29.3979 38.3563 29.3953 36.3919C29.3953 35.7495 29.394 35.1073 29.394 34.4639C29.3928 33.8756 29.3928 33.2884 29.3914 32.7001C30.3034 32.6551 31.2002 32.5485 32.0763 32.3853C32.7132 32.2659 33.339 32.1167 33.953 31.9384L33.6165 30.0294C33.0035 30.2145 32.3781 30.3673 31.7408 30.4867C30.9715 30.6319 30.1866 30.727 29.3863 30.7705C29.059 30.7886 28.7287 30.7977 28.3959 30.7977C28.0813 30.7977 27.7691 30.79 27.4594 30.7744C26.6271 30.7308 25.8101 30.6319 25.0111 30.4803C24.3739 30.3582 23.7484 30.2042 23.1368 30.0179C23.0239 30.655 22.9108 31.2909 22.7991 31.927ZM33.6749 50.1089L34.0428 52.0014C43.1112 49.8684 50.2646 42.7152 52.3976 33.6468L50.5047 33.2791C48.523 41.5796 41.9756 48.127 33.6749 50.1089ZM4.39424 33.6468C6.52736 42.7152 13.6806 49.8684 22.749 52.0014L23.1169 50.1089C14.8162 48.1268 8.26864 41.5796 6.28695 33.2791L4.39424 33.6468ZM21.3181 40.4398C21.269 40.721 21.2216 40.9999 21.1727 41.2798C21.106 41.6664 21.039 42.0556 20.9712 42.4448C20.8632 43.0704 20.7554 43.6998 20.6461 44.3294C20.533 44.9831 20.4201 45.6383 20.3055 46.2935C20.9017 46.558 21.5133 46.7943 22.1389 47.0013C22.2503 46.3591 22.361 45.718 22.4715 45.0794C22.5781 44.4666 22.6833 43.854 22.7887 43.2451C22.8824 42.6966 22.9777 42.1507 23.0713 41.6072C23.0879 41.5085 23.1048 41.4096 23.1226 41.3104C23.4246 39.5584 23.7303 37.7881 24.0384 36.0118C23.403 35.8934 22.776 35.7495 22.1593 35.5803C21.8753 37.209 21.5954 38.8313 21.3181 40.4398ZM32.7171 36.0181L33.6512 41.3171L33.9915 43.249L34.315 45.0808L34.6529 47.0013C35.2773 46.7958 35.8889 46.5594 36.4848 46.2947L36.1394 44.333L35.8078 42.4513L35.4547 40.4499L34.5978 35.5904C33.9812 35.7574 33.353 35.9013 32.7171 36.0181ZM28.3959 50.7291C27.2449 50.7291 26.114 50.6422 25.0084 50.4764L24.6407 52.367C25.5561 52.5075 26.4874 52.599 27.4324 52.6354V56H29.3594V52.6354C30.3046 52.599 31.2357 52.5075 32.1511 52.367L31.7836 50.4764C30.678 50.6422 29.5469 50.7291 28.3959 50.7291Z" fill="white"/>
</svg>
