<svg width="17" height="17" viewBox="0 0 17 17" fill="none" xmlns="http://www.w3.org/2000/svg">
<g clip-path="url(#clip0_17_370)">
<path d="M11.5495 3.12792C11.5984 3.08392 11.6555 3.04999 11.7175 3.02808C11.7795 3.00616 11.8452 2.9967 11.9109 3.00023C11.9766 3.00376 12.0409 3.02021 12.1002 3.04865C12.1595 3.07708 12.2126 3.11693 12.2565 3.16592L16.7565 8.16592C16.8389 8.25768 16.8844 8.37663 16.8844 8.49992C16.8844 8.62322 16.8389 8.74217 16.7565 8.83392L12.2565 13.8339C12.1673 13.9302 12.0438 13.9876 11.9127 13.9936C11.7816 13.9997 11.6533 13.9539 11.5557 13.8662C11.458 13.7785 11.3987 13.6559 11.3906 13.5249C11.3826 13.3939 11.4263 13.2649 11.5125 13.1659L15.2625 8.99992H1.38452C1.25191 8.99992 1.12474 8.94725 1.03097 8.85348C0.9372 8.75971 0.884521 8.63253 0.884521 8.49992C0.884521 8.36732 0.9372 8.24014 1.03097 8.14637C1.12474 8.0526 1.25191 7.99992 1.38452 7.99992H15.2615L11.5125 3.83392C11.4238 3.73539 11.3779 3.60566 11.3848 3.47326C11.3918 3.34087 11.451 3.21665 11.5495 3.12792Z" fill="white"/>
</g>
<defs>
<clipPath id="clip0_17_370">
<rect width="16" height="16" fill="white" transform="translate(0.884521 0.5)"/>
</clipPath>
</defs>
</svg>
