<svg width="37" height="37" viewBox="0 0 37 37" fill="none" xmlns="http://www.w3.org/2000/svg">
<path d="M29.4211 8.28943C27.3413 7.35149 25.112 6.65823 22.7808 6.26402C22.76 6.26003 22.7385 6.2626 22.7193 6.27137C22.7 6.28014 22.684 6.29467 22.6734 6.31296C22.3879 6.81455 22.0698 7.46839 21.8469 7.98494C19.3744 7.61552 16.8607 7.61552 14.3882 7.98494C14.1399 7.41247 13.8599 6.85428 13.5495 6.31296C13.539 6.29445 13.5231 6.27958 13.5039 6.27035C13.4847 6.26113 13.4632 6.25797 13.4421 6.2613C11.1122 6.65551 8.88293 7.34877 6.80179 8.28807C6.78388 8.29558 6.7687 8.30839 6.75829 8.32477C2.52804 14.5437 1.36852 20.6091 1.93808 26.5983C1.93967 26.613 1.94422 26.6272 1.95147 26.64C1.95871 26.6529 1.9685 26.6641 1.98022 26.6731C4.44931 28.4707 7.20325 29.8401 10.1267 30.7239C10.1471 30.7302 10.1689 30.7302 10.1893 30.7239C10.2096 30.7176 10.2276 30.7053 10.2409 30.6886C10.87 29.8472 11.4275 28.9546 11.9075 28.0202C11.9141 28.0074 11.918 27.9934 11.9187 27.979C11.9195 27.9646 11.9171 27.9502 11.9118 27.9368C11.9066 27.9234 11.8985 27.9113 11.8881 27.9013C11.8777 27.8913 11.8653 27.8836 11.8517 27.8788C10.9736 27.5481 10.1228 27.1491 9.30704 26.6853C9.29239 26.677 9.28003 26.6651 9.2711 26.6508C9.26216 26.6364 9.25692 26.6201 9.25584 26.6033C9.25476 26.5864 9.25788 26.5696 9.26492 26.5543C9.27196 26.5389 9.2827 26.5256 9.29617 26.5154C9.46744 26.389 9.63872 26.2571 9.80184 26.1253C9.81652 26.1134 9.83421 26.1059 9.85293 26.1035C9.87165 26.1011 9.89067 26.1039 9.90787 26.1117C15.246 28.5095 21.0272 28.5095 26.3028 26.1117C26.3201 26.1035 26.3393 26.1002 26.3583 26.1024C26.3773 26.1046 26.3952 26.112 26.4102 26.1239C26.5733 26.2571 26.7432 26.389 26.9159 26.5154C26.9295 26.5254 26.9404 26.5385 26.9477 26.5537C26.9549 26.5689 26.9583 26.5857 26.9575 26.6026C26.9567 26.6194 26.9517 26.6358 26.943 26.6502C26.9343 26.6646 26.9222 26.6767 26.9077 26.6853C26.0948 27.1529 25.2493 27.5485 24.3617 27.8775C24.3481 27.8824 24.3356 27.8902 24.3253 27.9003C24.3149 27.9105 24.3068 27.9227 24.3015 27.9362C24.2962 27.9497 24.2939 27.9642 24.2947 27.9787C24.2954 27.9932 24.2993 28.0073 24.306 28.0202C24.7953 28.9541 25.3554 29.8431 25.9711 30.6872C25.9839 30.7045 26.0018 30.7175 26.0222 30.7243C26.0426 30.7311 26.0647 30.7314 26.0853 30.7253C29.0138 29.8439 31.7722 28.4739 34.2441 26.6731C34.2561 26.6647 34.2662 26.6537 34.2737 26.6411C34.2812 26.6284 34.2859 26.6143 34.2876 26.5997C34.9672 19.6752 33.1484 13.6588 29.4633 8.32749C29.4542 8.31017 29.4393 8.29666 29.4211 8.28943ZM12.7054 22.9512C11.0986 22.9512 9.77329 21.4981 9.77329 19.716C9.77329 17.9326 11.0728 16.4808 12.7054 16.4808C14.3502 16.4808 15.6633 17.9448 15.6375 19.716C15.6375 21.4995 14.3379 22.9512 12.7054 22.9512ZM23.5461 22.9512C21.938 22.9512 20.614 21.4981 20.614 19.716C20.614 17.9326 21.9122 16.4808 23.5461 16.4808C25.1909 16.4808 26.504 17.9448 26.4782 19.716C26.4782 21.4995 25.1922 22.9512 23.5461 22.9512Z" fill="white" fill-opacity="0.3"/>
</svg>
