<svg width="37" height="37" viewBox="0 0 37 37" fill="none" xmlns="http://www.w3.org/2000/svg">
<path d="M32.2474 10.1687C31.5159 11.1444 30.6317 11.9956 29.6289 12.6893C29.6289 12.9442 29.6289 13.199 29.6289 13.4681C29.637 18.0968 27.7881 22.5352 24.4968 25.7882C21.2053 29.0412 16.7468 30.8367 12.1208 30.7722C9.44638 30.7811 6.80617 30.1705 4.40705 28.988C4.27768 28.9314 4.19425 28.8036 4.19474 28.6623V28.5065C4.19474 28.3032 4.3595 28.1384 4.56274 28.1384C7.19165 28.0517 9.72677 27.1402 11.8094 25.5329C9.4299 25.4849 7.28894 24.0752 6.30364 21.9077C6.25388 21.7894 6.26937 21.6535 6.34454 21.5494C6.4197 21.4453 6.54367 21.388 6.67164 21.398C7.39483 21.4706 8.12525 21.4034 8.82301 21.1997C6.19621 20.6545 4.22245 18.4737 3.93997 15.8045C3.92994 15.6765 3.98732 15.5525 4.09139 15.4773C4.19545 15.4021 4.33117 15.3865 4.44952 15.4365C5.15442 15.7475 5.91538 15.9113 6.6858 15.9178C4.38409 14.4071 3.3899 11.5337 4.26551 8.92258C4.3559 8.66886 4.57304 8.48142 4.83715 8.42916C5.10125 8.37689 5.37338 8.4675 5.5535 8.6677C8.65951 11.9734 12.9272 13.9433 17.4567 14.162C17.3408 13.699 17.2838 13.2232 17.2869 12.7459C17.3293 10.2432 18.8778 8.01378 21.2076 7.10132C23.5371 6.18887 26.1869 6.77397 27.9164 8.58273C29.0952 8.35815 30.2348 7.96219 31.2991 7.40741C31.377 7.35874 31.4759 7.35874 31.5539 7.40741C31.6026 7.4854 31.6026 7.5843 31.5539 7.66229C31.0384 8.84273 30.1676 9.83278 29.0629 10.4944C30.0302 10.3822 30.9806 10.154 31.8936 9.8147C31.9705 9.76237 32.0714 9.76237 32.1483 9.8147C32.2127 9.84415 32.2609 9.90049 32.28 9.9687C32.299 10.0369 32.2871 10.1101 32.2474 10.1687Z" fill="white" fill-opacity="0.3"/>
</svg>
