<svg width="128" height="24" viewBox="0 0 128 24" fill="none" xmlns="http://www.w3.org/2000/svg">
<g clip-path="url(#clip0_1439_11968)">
<path fill-rule="evenodd" clip-rule="evenodd" d="M20.5823 0H0V24H20.5823V0ZM1.8731 22.1304V1.86957H18.7092V22.1304H1.8731ZM10.6603 4.75329L10.2869 4.15815L9.09665 4.90477L9.46994 5.49991C11.0142 7.96189 10.1658 9.99866 9.56749 11.435C9.51327 11.5652 9.46109 11.6904 9.41294 11.8106C9.05472 12.7047 8.8658 13.9796 8.9381 15.2962C9.01063 16.6167 9.35009 18.056 10.123 19.2493L10.5049 19.839L11.6842 19.0751L11.3023 18.4855C10.7008 17.5568 10.4046 16.3767 10.3411 15.2192C10.2773 14.0576 10.4518 12.9957 10.7172 12.3332C10.7605 12.225 10.8107 12.1063 10.8651 11.9774L10.8652 11.9772C11.4721 10.5403 12.606 7.8554 10.6603 4.75329ZM7.67275 5.45089L7.27694 4.87048L6.11613 5.66214L6.51197 6.24254C7.0222 6.99068 7.12097 7.55035 7.0977 7.95786C7.07328 8.3861 6.91318 8.72768 6.74362 9.07872L6.43804 9.71134L7.70324 10.3225L8.00882 9.68985L8.0209 9.66482C8.18871 9.31785 8.45935 8.7581 8.50048 8.03795C8.54377 7.27956 8.33256 6.41833 7.67275 5.45089ZM13.8486 4.65797L14.1834 5.27559C15.1939 7.13932 14.7591 8.61182 14.4808 9.498L14.2704 10.1683L12.9298 9.74734L13.1403 9.07709C13.3881 8.28794 13.6776 7.29072 12.9482 5.94524L12.6134 5.32766L13.8486 4.65797ZM7.36534 12.6619L7.56744 11.9891L6.22177 11.5849L6.01967 12.2577C5.61497 13.605 5.40664 14.6768 5.41242 15.7038C5.41819 16.7386 5.64099 17.6804 6.03133 18.7671L6.26882 19.4283L7.59118 18.9533L7.35364 18.2921C6.99475 17.2929 6.82204 16.5164 6.81744 15.696C6.81281 14.8678 6.9791 13.9477 7.36534 12.6619ZM14.157 12.0654L13.946 12.7354C13.5344 14.0417 13.4943 14.9342 13.6717 15.6691C13.8511 16.4125 14.2734 17.0842 14.9663 17.9234L15.4136 18.4651L14.3302 19.3597L13.8829 18.818C13.1479 17.9278 12.5611 17.0563 12.3058 15.9988C12.0485 14.9328 12.1479 13.7667 12.6058 12.3133L12.8169 11.6432L14.157 12.0654Z" fill="white"/>
<path d="M34.0454 13.1876H28.6978V11.383H33.8886C34.6595 11.383 35.2474 11.1934 35.6525 10.8142C36.0575 10.4219 36.26 9.87265 36.26 9.16651C36.26 8.48653 36.0444 7.96343 35.6133 7.59732C35.1951 7.21806 34.5876 7.02846 33.7906 7.02846H28.4431V5.16504H33.9278C35.3258 5.16504 36.4234 5.50503 37.2204 6.185C38.0172 6.86501 38.416 7.78693 38.416 8.95074C38.416 9.82689 38.2067 10.5592 37.7887 11.1476C37.3706 11.723 36.75 12.2923 35.9268 12.5538V11.9971C36.8284 12.2194 37.5078 12.7757 37.9651 13.3641C38.4353 13.9395 38.6708 14.6849 38.6708 15.6002C38.6708 16.3848 38.4877 17.0648 38.122 17.6402C37.756 18.2025 37.2334 18.6405 36.554 18.9544C35.8746 19.2552 35.058 19.4055 34.1042 19.4055H28.4431V17.5421H34.0454C34.8293 17.5421 35.4369 17.3525 35.8681 16.9733C36.2992 16.581 36.5148 16.0318 36.5148 15.3256C36.5148 14.6456 36.2992 14.1226 35.8681 13.7564C35.4369 13.3772 34.8293 13.1876 34.0454 13.1876Z" fill="white"/>
<path d="M59.6996 19.3294L55.4662 5.08887H57.6611L60.758 16.1492L63.9721 5.16482H66.2848L69.4595 16.1492L72.6152 5.08887H74.7512L70.4594 19.3294H68.4406L65.1087 8.42092L61.7575 19.3294H59.6996Z" fill="white"/>
<path d="M95.5458 6.19036V19.4055H93.4291V6.19036H95.5458ZM89.1957 7.12655V5.16504H99.7792V7.12655H89.1957Z" fill="white"/>
<path d="M42.4208 5.16504H52.2729V7.12655H42.4208V5.16504Z" fill="white"/>
<path d="M51.6065 13.2345V11.3711C48.5506 11.3711 46.7848 11.3711 42.7979 11.3711V13.2345C47.0886 13.2345 48.5506 13.2345 51.6065 13.2345Z" fill="white"/>
<path d="M52.2729 19.4048H42.4208V17.4629H52.2729V19.4048Z" fill="white"/>
<path d="M77.7395 19.4055H75.5643L80.7186 5.16504H83.0115L88.1856 19.4055H85.9713C84.7048 15.8677 81.8552 8.35624 81.8552 8.35624C81.8552 8.35624 79.1176 15.5554 77.7395 19.4055Z" fill="white"/>
<path d="M103.097 5.1641L112.918 5.16406V7.12557L103.097 7.12561V5.1641Z" fill="white"/>
<path d="M112.283 11.3799V13.2433H103.474V11.3799H112.283Z" fill="white"/>
<path d="M112.949 19.4048H103.097V17.4629H112.949V19.4048Z" fill="white"/>
<path d="M117.471 5.16504H122.861C124.402 5.16504 125.611 5.55079 126.486 6.32232C127.255 7.09818 127.737 7.95739 127.728 9.17779C127.721 10.0968 127.496 10.7005 127.025 11.3805C126.568 12.0474 125.977 12.4648 125.114 12.7787L127.937 19.4055H125.604L123.017 13.1906H119.588H117.851V11.3272H119.588H122.861C123.723 11.3272 124.389 11.1428 124.86 10.7742C125.346 10.3278 125.588 9.94768 125.585 9.17779C125.585 8.38013 125.343 7.99993 124.86 7.58144C124.376 7.163 123.71 7.12651 122.861 7.12651H119.588H117.471V5.16504Z" fill="white"/>
</g>
<defs>
<clipPath id="clip0_1439_11968">
<rect width="127.937" height="24" fill="white"/>
</clipPath>
</defs>
</svg>
