<svg width="20" height="20" viewBox="0 0 20 20" fill="none" xmlns="http://www.w3.org/2000/svg">
<path d="M16.668 1.66699H8.33464C7.41547 1.66699 6.66797 2.41449 6.66797 3.33366V6.66699H3.33464C2.41547 6.66699 1.66797 7.41449 1.66797 8.33366V16.667C1.66797 17.5862 2.41547 18.3337 3.33464 18.3337H11.668C12.5871 18.3337 13.3346 17.5862 13.3346 16.667V13.3337H16.668C17.5871 13.3337 18.3346 12.5862 18.3346 11.667V3.33366C18.3346 2.41449 17.5871 1.66699 16.668 1.66699ZM3.33464 16.667V8.33366H11.668L11.6696 16.667H3.33464ZM16.668 11.667H13.3346V8.33366C13.3346 7.41449 12.5871 6.66699 11.668 6.66699H8.33464V3.33366H16.668V11.667Z" fill="white"/>
</svg>
