<svg width="16" height="16" viewBox="0 0 16 16" fill="none" xmlns="http://www.w3.org/2000/svg">
<path d="M13.0248 3.46196C12.1004 3.0451 11.1096 2.73698 10.0735 2.56178C10.0643 2.56001 10.0547 2.56115 10.0462 2.56505C10.0376 2.56894 10.0305 2.5754 10.0258 2.58353C9.89892 2.80646 9.75755 3.09706 9.65847 3.32663C8.55958 3.16245 7.44239 3.16245 6.3435 3.32663C6.23315 3.0722 6.1087 2.82412 5.97074 2.58353C5.96607 2.5753 5.95899 2.5687 5.95047 2.5646C5.94194 2.56049 5.93236 2.55909 5.92302 2.56057C4.8875 2.73577 3.8967 3.04389 2.97175 3.46136C2.96379 3.4647 2.95704 3.47039 2.95241 3.47767C1.0723 6.24165 0.556963 8.93737 0.810101 11.5992C0.810806 11.6058 0.812829 11.6121 0.816049 11.6178C0.819269 11.6235 0.823617 11.6285 0.82883 11.6325C1.9262 12.4314 3.15017 13.04 4.4495 13.4328C4.45855 13.4356 4.46824 13.4356 4.47729 13.4328C4.48635 13.43 4.49435 13.4245 4.50024 13.4171C4.77984 13.0432 5.0276 12.6465 5.24093 12.2312C5.24389 12.2255 5.2456 12.2193 5.24593 12.2129C5.24627 12.2065 5.24523 12.2001 5.24288 12.1941C5.24053 12.1882 5.23693 12.1828 5.23232 12.1783C5.22771 12.1739 5.2222 12.1705 5.21616 12.1684C4.82588 12.0214 4.44773 11.844 4.08519 11.6379C4.07868 11.6342 4.07319 11.6289 4.06922 11.6226C4.06525 11.6162 4.06292 11.6089 4.06244 11.6015C4.06196 11.594 4.06335 11.5865 4.06647 11.5797C4.0696 11.5728 4.07437 11.5669 4.08036 11.5624C4.15648 11.5062 4.23261 11.4476 4.3051 11.389C4.31163 11.3837 4.31949 11.3804 4.32781 11.3793C4.33613 11.3782 4.34458 11.3795 4.35223 11.383C6.72472 12.4487 9.29417 12.4487 11.6389 11.383C11.6465 11.3793 11.6551 11.3779 11.6635 11.3788C11.672 11.3798 11.68 11.3831 11.6866 11.3884C11.7591 11.4476 11.8346 11.5062 11.9113 11.5624C11.9174 11.5668 11.9222 11.5727 11.9255 11.5794C11.9287 11.5862 11.9302 11.5936 11.9298 11.6011C11.9295 11.6086 11.9273 11.6159 11.9234 11.6223C11.9195 11.6287 11.9142 11.6341 11.9077 11.6379C11.5464 11.8457 11.1707 12.0215 10.7761 12.1678C10.7701 12.17 10.7646 12.1734 10.76 12.1779C10.7553 12.1824 10.7517 12.1879 10.7494 12.1939C10.7471 12.1999 10.746 12.2063 10.7464 12.2127C10.7467 12.2192 10.7484 12.2255 10.7514 12.2312C10.9689 12.6462 11.2178 13.0414 11.4915 13.4165C11.4971 13.4242 11.5051 13.43 11.5142 13.433C11.5232 13.436 11.533 13.4362 11.5422 13.4334C12.8438 13.0417 14.0697 12.4328 15.1683 11.6325C15.1737 11.6287 15.1782 11.6239 15.1815 11.6183C15.1848 11.6126 15.1869 11.6064 15.1876 11.5999C15.4897 8.52232 14.6814 5.84835 13.0435 3.47888C13.0395 3.47118 13.0329 3.46518 13.0248 3.46196ZM5.59557 9.97831C4.88146 9.97831 4.29242 9.33248 4.29242 8.54044C4.29242 7.7478 4.86998 7.10256 5.59557 7.10256C6.32659 7.10256 6.9102 7.75323 6.89872 8.54044C6.89872 9.33308 6.32115 9.97831 5.59557 9.97831V9.97831ZM10.4137 9.97831C9.69895 9.97831 9.11051 9.33248 9.11051 8.54044C9.11051 7.7478 9.68747 7.10256 10.4137 7.10256C11.1447 7.10256 11.7283 7.75323 11.7168 8.54044C11.7168 9.33308 11.1453 9.97831 10.4137 9.97831V9.97831Z" fill="#5865F2"/>
</svg>
