<svg width="24" height="24" viewBox="0 0 24 24" fill="none" xmlns="http://www.w3.org/2000/svg">
<path d="M20 4.5H4C2.9 4.5 2 5.4 2 6.5V17.5C2 18.6 2.9 19.5 4 19.5H20C21.1 19.5 22 18.6 22 17.5V6.5C22 5.4 21.1 4.5 20 4.5ZM19.6 8.75L13.06 12.84C12.41 13.25 11.59 13.25 10.94 12.84L4.4 8.75C4.29973 8.69371 4.21192 8.61766 4.14189 8.52645C4.07186 8.43525 4.02106 8.33078 3.99258 8.21937C3.96409 8.10796 3.9585 7.99194 3.97616 7.87831C3.99381 7.76468 4.03434 7.65581 4.09528 7.5583C4.15623 7.46079 4.23632 7.37666 4.33073 7.311C4.42513 7.24533 4.53187 7.19951 4.6445 7.1763C4.75712 7.15309 4.87328 7.15297 4.98595 7.17595C5.09863 7.19893 5.20546 7.24453 5.3 7.31L12 11.5L18.7 7.31C18.7945 7.24453 18.9014 7.19893 19.014 7.17595C19.1267 7.15297 19.2429 7.15309 19.3555 7.1763C19.4681 7.19951 19.5749 7.24533 19.6693 7.311C19.7637 7.37666 19.8438 7.46079 19.9047 7.5583C19.9657 7.65581 20.0062 7.76468 20.0238 7.87831C20.0415 7.99194 20.0359 8.10796 20.0074 8.21937C19.9789 8.33078 19.9281 8.43525 19.8581 8.52645C19.7881 8.61766 19.7003 8.69371 19.6 8.75Z" fill="#94A3B8"/>
</svg>
