<svg width="25" height="20" viewBox="0 0 25 20" fill="none" xmlns="http://www.w3.org/2000/svg">
<g clip-path="url(#clip0_976_60046)">
<path d="M22.4457 5.0286C22.4604 5.24135 22.4604 5.45409 22.4604 5.6688C22.4604 12.211 17.48 19.7561 8.37315 19.7561V19.7521C5.68296 19.7561 3.04864 18.9855 0.783936 17.5325C1.17511 17.5796 1.56825 17.6031 1.96237 17.6041C4.19178 17.6061 6.35747 16.858 8.11139 15.4806C5.99276 15.4404 4.13492 14.059 3.4859 12.0423C4.22805 12.1855 4.99276 12.1561 5.72119 11.957C3.41139 11.4904 1.74962 9.46096 1.74962 7.10409C1.74962 7.08252 1.74962 7.06194 1.74962 7.04135C2.43786 7.42468 3.20845 7.63743 3.99668 7.66096C1.82119 6.20703 1.1506 3.31292 2.46433 1.05017C4.97805 4.14331 8.68688 6.0237 12.6683 6.22272C12.2692 4.50311 12.8143 2.70115 14.1006 1.49233C16.0947 -0.382182 19.231 -0.286103 21.1055 1.70703C22.2143 1.48841 23.2771 1.08154 24.2496 0.505073C23.88 1.65115 23.1065 2.62468 22.0732 3.24331C23.0545 3.12762 24.0133 2.86488 24.9163 2.4639C24.2516 3.45998 23.4143 4.32762 22.4457 5.0286Z" fill="white" fill-opacity="0.2"/>
</g>
<defs>
<clipPath id="clip0_976_60046">
<rect width="24.3137" height="20" fill="white" transform="translate(0.686279)"/>
</clipPath>
</defs>
</svg>
