<svg width="27" height="20" viewBox="0 0 27 20" fill="none" xmlns="http://www.w3.org/2000/svg">
<g clip-path="url(#clip0_976_60043)">
<path d="M22.7242 1.78095C21.0787 1.0259 19.314 0.469606 17.469 0.150995C17.4354 0.144846 17.4019 0.160213 17.3846 0.190947C17.1576 0.594587 16.9062 1.12117 16.7302 1.53506C14.7458 1.23797 12.7715 1.23797 10.8278 1.53506C10.6517 1.11197 10.3912 0.594587 10.1632 0.190947C10.1459 0.161238 10.1123 0.145871 10.0787 0.150995C8.23473 0.468587 6.47011 1.02488 4.82353 1.78095C4.80928 1.7871 4.79706 1.79735 4.78895 1.81066C1.44184 6.81117 0.524929 11.6888 0.974736 16.5059C0.976771 16.5295 0.99 16.552 1.00832 16.5663C3.21665 18.1881 5.35579 19.1726 7.45521 19.8252C7.48881 19.8355 7.52441 19.8232 7.54579 19.7955C8.04241 19.1173 8.4851 18.4022 8.86466 17.6502C8.88706 17.6062 8.86568 17.5539 8.8199 17.5365C8.11771 17.2702 7.4491 16.9454 6.80593 16.5766C6.75506 16.5469 6.75099 16.4741 6.79779 16.4393C6.93313 16.3379 7.06851 16.2323 7.19775 16.1258C7.22113 16.1063 7.25372 16.1022 7.28121 16.1145C11.5065 18.0436 16.0809 18.0436 20.2564 16.1145C20.2839 16.1012 20.3164 16.1053 20.3408 16.1248C20.4701 16.2313 20.6055 16.3379 20.7418 16.4393C20.7886 16.4741 20.7856 16.5469 20.7347 16.5766C20.0915 16.9526 19.4229 17.2702 18.7197 17.5355C18.6739 17.5529 18.6536 17.6062 18.676 17.6502C19.0637 18.4012 19.5064 19.1163 19.9938 19.7945C20.0142 19.8232 20.0508 19.8355 20.0844 19.8252C22.194 19.1726 24.3331 18.1881 26.5415 16.5663C26.5608 16.552 26.573 16.5305 26.5751 16.5069C27.1134 10.9378 25.6734 6.10019 22.7578 1.81168C22.7507 1.79735 22.7385 1.7871 22.7242 1.78095ZM9.49564 13.5728C8.22353 13.5728 7.17535 12.4049 7.17535 10.9706C7.17535 9.5363 8.20321 8.36841 9.49564 8.36841C10.7982 8.36841 11.8363 9.54655 11.8159 10.9706C11.8159 12.4049 10.788 13.5728 9.49564 13.5728ZM18.0745 13.5728C16.8024 13.5728 15.7543 12.4049 15.7543 10.9706C15.7543 9.5363 16.7821 8.36841 18.0745 8.36841C19.3771 8.36841 20.4151 9.54655 20.3948 10.9706C20.3948 12.4049 19.3771 13.5728 18.0745 13.5728Z" fill="white" fill-opacity="0.2"/>
</g>
<defs>
<clipPath id="clip0_976_60043">
<rect width="25.8182" height="20" fill="white" transform="translate(0.868042)"/>
</clipPath>
</defs>
</svg>
