<svg width="24" height="24" viewBox="0 0 24 24" fill="none" xmlns="http://www.w3.org/2000/svg">
<path fill-rule="evenodd" clip-rule="evenodd" d="M12 1.09473C5.99156 1.09473 1.125 5.96129 1.125 11.9697C1.125 16.7819 4.23797 20.8464 8.56078 22.2874C9.10453 22.3825 9.30844 22.0563 9.30844 21.7708C9.30844 21.5125 9.29484 20.6561 9.29484 19.7453C6.5625 20.2483 5.85563 19.0793 5.63812 18.4675C5.51578 18.1549 4.98563 17.1897 4.52344 16.9314C4.14281 16.7275 3.59906 16.2246 4.50984 16.211C5.36625 16.1974 5.97797 16.9994 6.18187 17.3257C7.16062 18.9705 8.72391 18.5083 9.34922 18.2229C9.44438 17.516 9.72984 17.0402 10.0425 16.7683C7.62281 16.4964 5.09438 15.5585 5.09438 11.3988C5.09438 10.2161 5.51578 9.23738 6.20906 8.47613C6.10031 8.20426 5.71969 7.08957 6.31781 5.59426C6.31781 5.59426 7.22859 5.30879 9.30844 6.70895C10.1784 6.46426 11.1028 6.34191 12.0272 6.34191C12.9516 6.34191 13.8759 6.46426 14.7459 6.70895C16.8258 5.2952 17.7366 5.59426 17.7366 5.59426C18.3347 7.08957 17.9541 8.20426 17.8453 8.47613C18.5386 9.23738 18.96 10.2025 18.96 11.3988C18.96 15.5721 16.418 16.4964 13.9983 16.7683C14.3925 17.1082 14.7323 17.7607 14.7323 18.7802C14.7323 20.2347 14.7188 21.4038 14.7188 21.7708C14.7188 22.0563 14.9227 22.3961 15.4664 22.2874C17.6253 21.5585 19.5012 20.171 20.8302 18.3202C22.1592 16.4693 22.8743 14.2483 22.875 11.9697C22.875 5.96129 18.0084 1.09473 12 1.09473Z" fill="white"/>
</svg>
