<svg width="20" height="20" viewBox="0 0 20 20" fill="none" xmlns="http://www.w3.org/2000/svg">
<g clip-path="url(#clip0_1832_48856)">
<path d="M1.25 10C1.25 7.67936 2.17187 5.45376 3.81282 3.81282C5.45376 2.17187 7.67936 1.25 10 1.25C12.3206 1.25 14.5462 2.17187 16.1872 3.81282C17.8281 5.45376 18.75 7.67936 18.75 10C18.75 12.3206 17.8281 14.5462 16.1872 16.1872C14.5462 17.8281 12.3206 18.75 10 18.75C7.67936 18.75 5.45376 17.8281 3.81282 16.1872C2.17187 14.5462 1.25 12.3206 1.25 10ZM9.45312 2.42797C8.72031 2.65109 7.99297 3.32484 7.38922 4.45687C7.1903 4.83323 7.01922 5.22365 6.87734 5.625H9.45312V2.42797ZM5.72344 5.625C5.90574 5.04402 6.14002 4.48065 6.42344 3.94172C6.61256 3.58412 6.83096 3.2428 7.07641 2.92125C5.72125 3.48325 4.55532 4.42146 3.71641 5.625H5.72344ZM5.08687 9.45312C5.11969 8.49391 5.23781 7.57406 5.42812 6.71875H3.08094C2.6731 7.5774 2.42973 8.50486 2.36344 9.45312H5.08687ZM6.55141 6.71875C6.33628 7.61541 6.21242 8.53153 6.18172 9.45312H9.45312V6.71875H6.55141ZM10.5469 6.71875V9.45312H13.8172C13.7869 8.53157 13.6634 7.61544 13.4486 6.71875H10.5469ZM6.18281 10.5469C6.21316 11.4684 6.33665 12.3846 6.55141 13.2812H9.45312V10.5469H6.18281ZM10.5469 10.5469V13.2812H13.4486C13.6531 12.4445 13.7833 11.5225 13.8183 10.5469H10.5469ZM6.87734 14.375C7.02828 14.7972 7.2 15.1888 7.38922 15.5431C7.99297 16.6752 8.72141 17.3478 9.45312 17.572V14.375H6.87734ZM7.07641 17.0788C6.83094 16.7572 6.61254 16.4159 6.42344 16.0583C6.14002 15.5194 5.90574 14.956 5.72344 14.375H3.71641C4.55527 15.5786 5.72122 16.5168 7.07641 17.0788ZM5.42812 13.2812C5.23034 12.3823 5.1161 11.4669 5.08687 10.5469H2.36344C2.43125 11.5203 2.68172 12.4423 3.08094 13.2812H5.42812ZM12.9236 17.0788C14.2788 16.5168 15.4447 15.5786 16.2836 14.375H14.2766C14.0942 14.956 13.86 15.5193 13.5766 16.0583C13.3875 16.4159 13.1691 16.7572 12.9236 17.0788ZM10.5469 14.375V17.572C11.2797 17.3489 12.007 16.6752 12.6108 15.5431C12.8 15.1888 12.9717 14.7972 13.1227 14.375H10.5469ZM14.5719 13.2812H16.9191C17.3183 12.4423 17.5688 11.5203 17.6366 10.5469H14.9131C14.8839 11.4669 14.7697 12.3823 14.5719 13.2812ZM17.6366 9.45312C17.5702 8.50486 17.3269 7.57741 16.9191 6.71875H14.5719C14.7622 7.57406 14.8803 8.49391 14.9131 9.45312H17.6366ZM13.5766 3.94172C13.8467 4.44922 14.0819 5.01359 14.2766 5.625H16.2836C15.4447 4.42142 14.2788 3.4832 12.9236 2.92125C13.162 3.23188 13.3808 3.57531 13.5766 3.94172ZM13.1227 5.625C12.9808 5.22364 12.8097 4.83322 12.6108 4.45687C12.007 3.32484 11.2797 2.65219 10.5469 2.42797V5.625H13.1227Z" fill="#94A3B8"/>
</g>
<defs>
<clipPath id="clip0_1832_48856">
<rect width="20" height="20" fill="white"/>
</clipPath>
</defs>
</svg>
