<svg width="20" height="20" viewBox="0 0 20 20" fill="none" xmlns="http://www.w3.org/2000/svg">
<g clip-path="url(#clip0_1174_53769)">
<path d="M11.4062 9.23828C11.6536 9.33594 11.8945 9.44336 12.1289 9.56055C12.3633 9.67773 12.5911 9.8112 12.8125 9.96094C12.6693 10.1172 12.5391 10.2799 12.4219 10.4492C12.3047 10.6185 12.1973 10.8008 12.0996 10.9961C11.5983 10.6706 11.0645 10.4232 10.498 10.2539C9.93164 10.0846 9.34896 10 8.75 10C8.17708 10 7.6237 10.0749 7.08984 10.2246C6.55599 10.3743 6.05794 10.5827 5.5957 10.8496C5.13346 11.1165 4.71354 11.4421 4.33594 11.8262C3.95833 12.2103 3.63281 12.6335 3.35938 13.0957C3.08594 13.5579 2.87435 14.056 2.72461 14.5898C2.57487 15.1237 2.5 15.6771 2.5 16.25H1.25C1.25 15.4688 1.36393 14.7168 1.5918 13.9941C1.81966 13.2715 2.14844 12.6042 2.57812 11.9922C3.00781 11.3802 3.51562 10.8366 4.10156 10.3613C4.6875 9.88607 5.35156 9.51172 6.09375 9.23828C5.35807 8.75651 4.78516 8.15104 4.375 7.42188C3.96484 6.69271 3.75651 5.88542 3.75 5C3.75 4.3099 3.88021 3.66211 4.14062 3.05664C4.40104 2.45117 4.75586 1.92057 5.20508 1.46484C5.6543 1.00911 6.1849 0.651042 6.79688 0.390625C7.40885 0.130208 8.0599 0 8.75 0C9.4401 0 10.0879 0.130208 10.6934 0.390625C11.2988 0.651042 11.8294 1.00586 12.2852 1.45508C12.7409 1.9043 13.099 2.4349 13.3594 3.04688C13.6198 3.65885 13.75 4.3099 13.75 5C13.75 5.42969 13.6979 5.84961 13.5938 6.25977C13.4896 6.66992 13.3333 7.05729 13.125 7.42188C12.9167 7.78646 12.6725 8.12175 12.3926 8.42773C12.1126 8.73372 11.7839 9.00391 11.4062 9.23828ZM5 5C5 5.52083 5.09766 6.00586 5.29297 6.45508C5.48828 6.9043 5.75521 7.30143 6.09375 7.64648C6.43229 7.99154 6.82943 8.26172 7.28516 8.45703C7.74089 8.65234 8.22917 8.75 8.75 8.75C9.26432 8.75 9.74935 8.65234 10.2051 8.45703C10.6608 8.26172 11.0579 7.99479 11.3965 7.65625C11.735 7.31771 12.0052 6.92057 12.207 6.46484C12.4089 6.00911 12.5065 5.52083 12.5 5C12.5 4.48568 12.4023 4.00065 12.207 3.54492C12.0117 3.08919 11.7448 2.69206 11.4062 2.35352C11.0677 2.01497 10.6673 1.74479 10.2051 1.54297C9.74284 1.34115 9.25781 1.24349 8.75 1.25C8.22917 1.25 7.74414 1.34766 7.29492 1.54297C6.8457 1.73828 6.44857 2.00521 6.10352 2.34375C5.75846 2.68229 5.48828 3.08268 5.29297 3.54492C5.09766 4.00716 5 4.49219 5 5Z" fill="white"/>
<path fill-rule="evenodd" clip-rule="evenodd" d="M15.1268 10.6282L15.1262 10.6301L14.2999 12.6159C14.2888 12.6424 14.2707 12.6654 14.2475 12.6823C14.2243 12.6992 14.1969 12.7094 14.1683 12.7118L12.024 12.8834H12.0221L11.9626 12.8884L11.5911 12.9185C11.5182 12.9243 11.4486 12.9515 11.3911 12.9968C11.3336 13.0421 11.2908 13.1034 11.2682 13.173C11.2455 13.2425 11.244 13.3173 11.2638 13.3877C11.2836 13.4582 11.3238 13.5212 11.3794 13.5688L11.6625 13.8112L11.7083 13.85L11.7095 13.8513L13.3433 15.2508C13.365 15.2695 13.3812 15.2938 13.39 15.3211C13.3988 15.3484 13.4 15.3776 13.3934 15.4055L12.8948 17.4979L12.8941 17.4997L12.8803 17.558L12.7939 17.9207C12.777 17.9918 12.7815 18.0664 12.8069 18.1349C12.8323 18.2035 12.8774 18.263 12.9366 18.3059C12.9958 18.3488 13.0663 18.3733 13.1393 18.3762C13.2124 18.3791 13.2847 18.3604 13.347 18.3223L13.6647 18.1281L13.716 18.0967L13.7179 18.0961L15.5534 16.9748C15.5779 16.9598 15.6061 16.9519 15.6348 16.9519C15.6636 16.9519 15.6917 16.9598 15.7163 16.9748L17.5518 18.0961L17.5537 18.0974L17.605 18.1287L17.9226 18.3229C17.9851 18.3611 18.0574 18.3799 18.1306 18.377C18.2037 18.374 18.2743 18.3495 18.3335 18.3065C18.3927 18.2634 18.4378 18.2038 18.4631 18.1352C18.4884 18.0665 18.4929 17.9919 18.4758 17.9207L18.3893 17.558L18.3756 17.4997V17.4979L17.8763 15.4055C17.8697 15.3776 17.8708 15.3484 17.8797 15.3211C17.8885 15.2938 17.9047 15.2695 17.9264 15.2508L19.5602 13.8513L19.5614 13.85L19.6072 13.8112L19.8903 13.5688C19.9459 13.5212 19.9861 13.4582 20.0059 13.3877C20.0257 13.3173 20.0242 13.2425 20.0015 13.173C19.9788 13.1034 19.9361 13.0421 19.8786 12.9968C19.8211 12.9515 19.7515 12.9243 19.6786 12.9185L19.3071 12.8884L19.2476 12.8834H19.2457L17.102 12.7118C17.0733 12.7095 17.0457 12.6994 17.0224 12.6824C16.9991 12.6655 16.9809 12.6425 16.9698 12.6159L16.1435 10.6301L16.1429 10.6282L16.1197 10.5725L15.9769 10.2285C15.9489 10.1609 15.9014 10.1031 15.8405 10.0624C15.7796 10.0217 15.7081 10 15.6348 10C15.5616 10 15.49 10.0217 15.4292 10.0624C15.3683 10.1031 15.3208 10.1609 15.2928 10.2285L15.15 10.5731L15.1268 10.6282ZM15.6348 11.8535L15.1675 12.9761C15.09 13.1623 14.9627 13.3234 14.7996 13.4419C14.6365 13.5604 14.4438 13.6316 14.2429 13.6477L13.0307 13.7448L13.9541 14.536C14.1073 14.6672 14.2214 14.8382 14.2838 15.03C14.3461 15.2219 14.3543 15.4273 14.3074 15.6235L14.0255 16.8063L15.0635 16.1723C15.2356 16.0672 15.4333 16.0117 15.6348 16.0117C15.8364 16.0117 16.0341 16.0672 16.2062 16.1723L17.2442 16.8063L16.9623 15.6229C16.9155 15.4268 16.9238 15.2215 16.9861 15.0298C17.0484 14.838 17.1625 14.6672 17.3156 14.536L18.239 13.7448L17.0268 13.6477C16.8258 13.6316 16.6332 13.5604 16.4701 13.4419C16.3069 13.3234 16.1796 13.1623 16.1022 12.9761L15.6348 11.8535Z" fill="white"/>
</g>
<defs>
<clipPath id="clip0_1174_53769">
<rect width="20" height="20" fill="white"/>
</clipPath>
</defs>
</svg>
