<svg width="16" height="16" viewBox="0 0 16 16" fill="none" xmlns="http://www.w3.org/2000/svg">
<path d="M3.39366 5.08808C5.93768 2.59727 10.0624 2.59727 12.6064 5.08808L12.9126 5.38785C13.0398 5.51239 13.0398 5.71431 12.9126 5.83885L11.8652 6.86432C11.8016 6.92659 11.6985 6.92659 11.6349 6.86432L11.2135 6.4518C9.43876 4.71414 6.56128 4.71414 4.78651 6.4518L4.33529 6.89357C4.27169 6.95584 4.16857 6.95584 4.10497 6.89357L3.0576 5.86811C2.9304 5.74357 2.9304 5.54165 3.0576 5.41711L3.39366 5.08808ZM14.7724 7.20885L15.7046 8.12152C15.8318 8.24606 15.8318 8.44798 15.7046 8.57252L11.5014 12.6879C11.3742 12.8124 11.168 12.8124 11.0408 12.6879C11.0408 12.6879 11.0408 12.6879 11.0408 12.6879L8.05762 9.76708C8.02582 9.73595 7.97426 9.73595 7.94246 9.76708C7.94246 9.76708 7.94246 9.76708 7.94246 9.76708L4.95936 12.6879C4.83216 12.8124 4.62592 12.8124 4.49872 12.6879C4.49872 12.6879 4.49872 12.6879 4.49872 12.6879L0.295413 8.57246C0.168212 8.44792 0.168212 8.246 0.295413 8.12146L1.22758 7.2088C1.35478 7.08426 1.56101 7.08426 1.68821 7.2088L4.67142 10.1296C4.70323 10.1607 4.75478 10.1607 4.78658 10.1296C4.78658 10.1296 4.78658 10.1296 4.78659 10.1296L7.76965 7.2088C7.89684 7.08425 8.10308 7.08425 8.23028 7.20879C8.23028 7.20879 8.23029 7.20879 8.23029 7.20879L11.2135 10.1296C11.2453 10.1607 11.2969 10.1607 11.3287 10.1296L14.3118 7.20885C14.439 7.08431 14.6452 7.08431 14.7724 7.20885Z" fill="#3B99FC"/>
</svg>
