<svg width="24" height="24" viewBox="0 0 24 24" fill="none" xmlns="http://www.w3.org/2000/svg">
<path d="M19.5 7.51321H3.875V6.90932L17.625 5.84648V6.90932H19.5V5.09766C19.5 3.76911 18.3862 2.83671 17.0262 3.02392L4.475 4.75586C3.11375 4.94428 2 6.18466 2 7.51321V18.5845C2 19.2251 2.26339 19.8395 2.73223 20.2925C3.20107 20.7455 3.83696 21 4.5 21H19.5C20.163 21 20.7989 20.7455 21.2678 20.2925C21.7366 19.8395 22 19.2251 22 18.5845V9.92875C22 9.28811 21.7366 8.67371 21.2678 8.2207C20.7989 7.7677 20.163 7.51321 19.5 7.51321ZM17.625 15.9749C17.3787 15.9748 17.1348 15.9278 16.9073 15.8367C16.6797 15.7455 16.473 15.612 16.2989 15.4436C16.1248 15.2753 15.9867 15.0755 15.8925 14.8556C15.7984 14.6357 15.7499 14.4 15.75 14.162C15.7501 13.924 15.7987 13.6884 15.893 13.4685C15.9873 13.2487 16.1256 13.0489 16.2998 12.8807C16.474 12.7125 16.6808 12.5791 16.9084 12.4881C17.136 12.3971 17.3799 12.3503 17.6263 12.3503C18.1237 12.3505 18.6007 12.5416 18.9523 12.8816C19.304 13.2215 19.5014 13.6826 19.5012 14.1632C19.5011 14.6438 19.3033 15.1047 18.9515 15.4445C18.5996 15.7842 18.1224 15.975 17.625 15.9749Z" fill="#94A3B8"/>
</svg>
