<svg width="20" height="20" viewBox="0 0 20 20" fill="none" xmlns="http://www.w3.org/2000/svg">
<g clip-path="url(#clip0_755_56893)">
<path d="M8.35802 3.04907C9.07154 1.75921 10.9258 1.7592 11.6394 3.04903L18.0942 14.7169C18.7855 15.9666 17.8817 17.4996 16.4535 17.4996H3.54431C2.11617 17.4996 1.21231 15.9666 1.90361 14.717L8.35802 3.04907ZM10.8311 14.1674C10.8311 13.7078 10.4585 13.3352 9.99885 13.3352C9.53922 13.3352 9.16663 13.7078 9.16663 14.1674C9.16663 14.627 9.53922 14.9996 9.99885 14.9996C10.4585 14.9996 10.8311 14.627 10.8311 14.1674ZM10.6151 7.62299C10.5734 7.31796 10.3118 7.08304 9.99535 7.08329C9.65017 7.08357 9.37057 7.36362 9.37084 7.70879L9.37385 11.4601L9.37962 11.5449C9.42125 11.85 9.68293 12.0849 9.99934 12.0846C10.3445 12.0843 10.6241 11.8043 10.6238 11.4591L10.6208 7.70779L10.6151 7.62299Z" fill="#F59E0B"/>
</g>
<defs>
<clipPath id="clip0_755_56893">
<rect width="20" height="20" fill="white"/>
</clipPath>
</defs>
</svg>
