<svg width="16" height="16" viewBox="0 0 16 16" fill="none" xmlns="http://www.w3.org/2000/svg">
<path d="M10.3623 7.57141L10.3623 14.0952M10.3623 1.90474L10.3623 4.23808" stroke="white" stroke-width="1.5" stroke-linecap="square" stroke-linejoin="round"/>
<path d="M10.3621 4.57161C11.0985 4.57161 11.6955 5.16857 11.6955 5.90495C11.6955 6.64133 11.0985 7.23828 10.3621 7.23828C9.62576 7.23828 9.02881 6.64133 9.02881 5.90495C9.02881 5.16857 9.62576 4.57161 10.3621 4.57161Z" stroke="white" stroke-width="1.5" stroke-linecap="round" stroke-linejoin="round"/>
<path d="M5.82813 8.57145L5.82812 1.90479M5.82813 14.0953L5.82813 11.5715" stroke="white" stroke-width="1.5" stroke-linecap="square" stroke-linejoin="round"/>
<path d="M5.82829 11.4284C5.09191 11.4284 4.49495 10.8314 4.49495 10.0951C4.49495 9.35867 5.09191 8.76172 5.82829 8.76172C6.56467 8.76172 7.16162 9.35867 7.16162 10.0951C7.16162 10.8314 6.56467 11.4284 5.82829 11.4284Z" stroke="white" stroke-width="1.5" stroke-linecap="round" stroke-linejoin="round"/>
</svg>
