<svg width="20" height="20" viewBox="0 0 20 20" fill="none" xmlns="http://www.w3.org/2000/svg">
<g clip-path="url(#clip0_755_56914)">
<path d="M9.99996 1.66663C14.6023 1.66663 18.3333 5.39759 18.3333 9.99996C18.3333 14.6023 14.6023 18.3333 9.99996 18.3333C5.39759 18.3333 1.66663 14.6023 1.66663 9.99996C1.66663 5.39759 5.39759 1.66663 9.99996 1.66663ZM12.683 7.47468L8.95829 11.1994L7.3169 9.55802C7.07282 9.31394 6.67709 9.31394 6.43302 9.55802C6.18894 9.8021 6.18894 10.1978 6.43302 10.4419L8.51635 12.5252C8.76043 12.7693 9.15616 12.7693 9.40023 12.5252L13.5669 8.35857C13.811 8.11449 13.811 7.71876 13.5669 7.47468C13.3228 7.23061 12.9271 7.23061 12.683 7.47468Z" fill="#10B981"/>
</g>
<defs>
<clipPath id="clip0_755_56914">
<rect width="20" height="20" fill="white"/>
</clipPath>
</defs>
</svg>
