<svg width="24" height="24" viewBox="0 0 24 24" fill="none" xmlns="http://www.w3.org/2000/svg">
<g clip-path="url(#clip0_1499_24101)">
<path fill-rule="evenodd" clip-rule="evenodd" d="M11.9999 20.1004C16.4734 20.1004 20.0999 16.4739 20.0999 12.0004C20.0999 7.52688 16.4734 3.90039 11.9999 3.90039C7.5264 3.90039 3.8999 7.52688 3.8999 12.0004C3.8999 16.4739 7.5264 20.1004 11.9999 20.1004ZM11.9999 21.6004C17.3018 21.6004 21.5999 17.3023 21.5999 12.0004C21.5999 6.69846 17.3018 2.40039 11.9999 2.40039C6.69797 2.40039 2.3999 6.69846 2.3999 12.0004C2.3999 17.3023 6.69797 21.6004 11.9999 21.6004Z" fill="#94A3B8"/>
<path d="M10.8 15.9L15.47 12.4C15.74 12.2 15.74 11.8 15.47 11.6L10.8 8.1C10.7257 8.04429 10.6374 8.01036 10.5449 8.00202C10.4524 7.99368 10.3594 8.01126 10.2764 8.05279C10.1933 8.09431 10.1235 8.15815 10.0747 8.23713C10.0259 8.31612 10 8.40714 10 8.5L10 15.5C10 15.91 10.47 16.15 10.8 15.9Z" fill="#94A3B8"/>
</g>
<defs>
<clipPath id="clip0_1499_24101">
<rect width="24" height="24" fill="white"/>
</clipPath>
</defs>
</svg>
