<svg width="192" height="37" viewBox="0 0 192 37" fill="none" xmlns="http://www.w3.org/2000/svg">
<g clip-path="url(#clip0_40_8525)">
<path fill-rule="evenodd" clip-rule="evenodd" d="M30.9669 0.5H0.115356V36.5H30.9669V0.5ZM2.92301 33.6956V3.30435H28.1593V33.6956H2.92301ZM16.0944 7.62994L15.5348 6.73723L13.7507 7.85716L14.3102 8.74987C16.625 12.4428 15.3533 15.498 14.4564 17.6525C14.3752 17.8478 14.2969 18.0356 14.2248 18.2159C13.6878 19.5571 13.4046 21.4694 13.513 23.4443C13.6217 25.425 14.1306 27.584 15.2892 29.3739L15.8616 30.2584L17.6293 29.1127L17.0569 28.2282C16.1552 26.8352 15.7113 25.0651 15.616 23.3287C15.5204 21.5864 15.7819 19.9936 16.1798 18.9997C16.2448 18.8375 16.3199 18.6594 16.4015 18.4662L16.4016 18.4658C17.3113 16.3104 19.011 12.2831 16.0944 7.62994ZM11.6163 8.67633L11.023 7.80572L9.28306 8.99321L9.87641 9.86382C10.6412 10.986 10.7893 11.8255 10.7544 12.4368C10.7178 13.0792 10.4778 13.5915 10.2236 14.1181L9.76558 15.067L11.662 15.9837L12.1201 15.0348L12.1382 14.9972C12.3897 14.4768 12.7954 13.6372 12.8571 12.5569C12.9219 11.4193 12.6053 10.1275 11.6163 8.67633ZM20.8736 7.48696L21.3755 8.41339C22.89 11.209 22.2383 13.4177 21.8213 14.747L21.5058 15.7524L19.4964 15.121L19.8119 14.1156C20.1832 12.9319 20.6173 11.4361 19.524 9.41786L19.022 8.49149L20.8736 7.48696ZM11.1556 19.4929L11.4585 18.4837L9.44141 17.8773L9.13847 18.8866C8.53186 20.9076 8.21959 22.5153 8.22824 24.0557C8.23689 25.6078 8.57085 27.0206 9.15595 28.6506L9.51194 29.6424L11.4941 28.9299L11.138 27.9382C10.6001 26.4393 10.3412 25.2745 10.3343 24.0439C10.3273 22.8018 10.5766 21.4216 11.1556 19.4929ZM21.3359 18.598L21.0195 19.6031C20.4027 21.5626 20.3424 22.9012 20.6084 24.0036C20.8773 25.1188 21.5103 26.1263 22.5489 27.3851L23.2194 28.1977L21.5954 29.5396L20.9249 28.727C19.8232 27.3918 18.9436 26.0844 18.5611 24.4982C18.1754 22.8992 18.3244 21.15 19.0107 18.9699L19.3271 17.9648L21.3359 18.598Z" fill="white"/>
<path d="M51.1468 20.2809H43.1312V17.574H50.9118C52.0673 17.574 52.9486 17.2896 53.5557 16.7207C54.1629 16.1323 54.4664 15.3085 54.4664 14.2493C54.4664 13.2293 54.1433 12.4447 53.497 11.8955C52.8702 11.3266 51.9595 11.0422 50.7649 11.0422H42.7493V8.24707H50.9705C53.0661 8.24707 54.7113 8.75705 55.9059 9.77701C57.1004 10.797 57.6981 12.1799 57.6981 13.9256C57.6981 15.2398 57.3844 16.3382 56.7578 17.2209C56.1311 18.084 55.2008 18.938 53.967 19.3303V18.4952C55.3184 18.8286 56.3368 19.663 57.0222 20.5457C57.7271 21.4088 58.08 22.5268 58.08 23.8998C58.08 25.0768 57.8056 26.0968 57.2575 26.9598C56.7089 27.8033 55.9255 28.4603 54.9071 28.9311C53.8887 29.3823 52.6646 29.6078 51.2349 29.6078H42.7493V26.8127H51.1468C52.3219 26.8127 53.2326 26.5283 53.8789 25.9594C54.5252 25.371 54.8483 24.5472 54.8483 23.488C54.8483 22.468 54.5252 21.6834 53.8789 21.1342C53.2326 20.5653 52.3219 20.2809 51.1468 20.2809Z" fill="white"/>
<path d="M89.602 29.4941L83.2563 8.1333H86.5464L91.1884 24.7238L96.0062 8.24722H99.4728L104.231 24.7238L108.962 8.1333H112.163L105.73 29.4941H102.704L97.7099 13.1314L92.6866 29.4941H89.602Z" fill="white"/>
<path d="M143.333 9.78505V29.6078H140.16V9.78505H143.333ZM133.814 11.1893V8.24707H149.678V11.1893H133.814Z" fill="white"/>
<path d="M63.701 8.24707H78.4688V11.1893H63.701V8.24707Z" fill="white"/>
<path d="M77.4709 20.3515V17.5564C72.8904 17.5564 70.2435 17.5564 64.2673 17.5564V20.3515C70.6989 20.3515 72.8904 20.3515 77.4709 20.3515Z" fill="white"/>
<path d="M78.4688 29.6076H63.701V26.6948H78.4688V29.6076Z" fill="white"/>
<path d="M116.642 29.6078H113.381L121.107 8.24707H124.544L132.3 29.6078H128.981C127.082 24.301 122.811 13.0339 122.811 13.0339C122.811 13.0339 118.708 23.8326 116.642 29.6078Z" fill="white"/>
<path d="M154.652 8.24713L169.372 8.24707V11.1893L154.652 11.1894V8.24713Z" fill="white"/>
<path d="M168.42 17.5698V20.365H155.216V17.5698H168.42Z" fill="white"/>
<path d="M169.419 29.6076H154.652V26.6948H169.419V29.6076Z" fill="white"/>
<path d="M176.196 8.24707H184.275C186.586 8.24707 188.398 8.82569 189.71 9.98299C190.861 11.1468 191.585 12.4356 191.57 14.2662C191.56 15.6447 191.223 16.5503 190.517 17.5703C189.832 18.5706 188.946 19.1967 187.653 19.6675L191.883 29.6078H188.387L184.51 20.2854H179.369H176.765V17.4902H179.369H184.275C185.567 17.4902 186.566 17.2138 187.271 16.6608C188.001 15.9912 188.363 15.421 188.358 14.2662C188.358 13.0697 187.996 12.4994 187.271 11.8717C186.546 11.244 185.547 11.1893 184.275 11.1893H179.369H176.196V8.24707Z" fill="white"/>
</g>
<defs>
<clipPath id="clip0_40_8525">
<rect width="191.769" height="36" fill="white" transform="translate(0.115356 0.5)"/>
</clipPath>
</defs>
</svg>
