<svg width="138" height="148" viewBox="0 0 138 148" fill="none" xmlns="http://www.w3.org/2000/svg">
<g clip-path="url(#clip0_17_229)">
<path fill-rule="evenodd" clip-rule="evenodd" d="M68.6876 19.9187L70.4799 22.7692C79.8222 37.6265 74.3779 50.4856 71.4641 57.3679C71.2028 57.9851 70.9617 58.5543 70.7536 59.0726C69.479 62.2461 68.6412 67.332 68.9475 72.8949C69.2528 78.4391 70.6748 84.0911 73.5628 88.5385L75.3965 91.3625L69.7343 95.0216L67.9007 92.1976C64.1895 86.4818 62.5597 79.5884 62.2115 73.2639C61.8643 66.9582 62.7714 60.8523 64.4914 56.5699C64.7225 55.9943 64.973 55.3944 65.2334 54.771C68.106 47.8916 72.1795 38.1366 64.765 26.345L62.9727 23.4946L68.6876 19.9187Z" fill="white"/>
<path fill-rule="evenodd" clip-rule="evenodd" d="M54.236 23.3303L56.1365 26.1101C59.3045 30.7437 60.3186 34.8686 60.1107 38.5009C59.9133 41.9501 58.6137 44.6309 57.8081 46.2928C57.7884 46.3333 57.769 46.3733 57.75 46.4126L56.2829 49.4425L50.2083 46.5155L51.6754 43.4857C52.4895 41.8043 53.2581 40.1682 53.3755 38.1173C53.4872 36.1655 53.013 33.485 50.5631 29.9018L48.6626 27.122L54.236 23.3303Z" fill="white"/>
<path fill-rule="evenodd" clip-rule="evenodd" d="M85.7901 22.3147L87.398 25.2727C92.2494 34.1989 90.1615 41.2516 88.8252 45.4957L87.8149 48.7059L81.3789 46.69L82.3893 43.4798C83.5789 39.7002 84.9694 34.9241 81.467 28.4801L79.8594 25.5221L85.7901 22.3147Z" fill="white"/>
<path fill-rule="evenodd" clip-rule="evenodd" d="M55.63 57.4249L54.6597 60.6474C52.8053 66.8056 52.0068 71.2124 52.029 75.1787C52.0511 79.1081 52.8803 82.8271 54.6037 87.6129L55.7439 90.7794L49.395 93.0543L48.2547 89.8878C46.3805 84.6831 45.3109 80.1722 45.283 75.2164C45.2553 70.2976 46.2556 65.1643 48.1987 58.7115L49.1691 55.4889L55.63 57.4249Z" fill="white"/>
<path fill-rule="evenodd" clip-rule="evenodd" d="M87.2693 57.7918L86.2559 61.0011C84.28 67.2575 84.0871 71.5317 84.9389 75.0517C85.8004 78.6122 87.828 81.8294 91.1552 85.8486L93.3025 88.4435L88.1006 92.7275L85.9528 90.1336C82.4238 85.87 79.6066 81.6956 78.381 76.6307C77.1457 71.5253 77.623 65.9403 79.8214 58.9791L80.8349 55.7699L87.2693 57.7918Z" fill="white"/>
<path fill-rule="evenodd" clip-rule="evenodd" d="M19.2961 0H117.775V113.746H19.2961V0ZM28.2583 8.86074V104.886H108.813V8.86074H28.2583Z" fill="white"/>
<path d="M8.09654 139.74H1.00991V136.212H7.88852C8.65128 136.212 9.23199 136.03 9.6307 135.668C10.0294 135.304 10.2288 134.777 10.2288 134.085C10.2288 133.411 10.0294 132.9 9.6307 132.555C9.23199 132.209 8.65128 132.036 7.88852 132.036H0.316406V128.353H8.33058C10.2721 128.353 11.789 128.828 12.8811 129.779C13.9905 130.731 14.5453 132.028 14.5453 133.67C14.5453 134.794 14.2679 135.745 13.7132 136.523C13.1585 137.302 12.3523 137.854 11.2949 138.183V137.82C12.4217 138.063 13.2798 138.564 13.8692 139.325C14.4759 140.086 14.7793 141.063 14.7793 142.256C14.7793 143.38 14.5279 144.339 14.0252 145.135C13.5398 145.931 12.8118 146.536 11.841 146.951C10.8876 147.348 9.71739 147.548 8.33058 147.548H0.316406V143.864H8.09654C8.87663 143.864 9.46604 143.691 9.86475 143.346C10.2635 142.982 10.4628 142.446 10.4628 141.737C10.4628 141.08 10.2548 140.587 9.8387 140.258C9.43999 139.912 8.85933 139.74 8.09654 139.74Z" fill="white"/>
<path d="M42.757 147.548L36.9844 128.353H41.3788L44.8632 140.855L48.1916 128.353H52.8981L56.1224 140.855L59.7108 128.353H64.0013L58.1247 147.548H54.0162L50.5058 134.941L46.8914 147.548H42.757Z" fill="white"/>
<path d="M93.6461 130.376V147.548H89.4344V130.376H93.6461ZM83.9734 132.244V128.353H99.1075V132.244H83.9734Z" fill="white"/>
<path d="M19.321 128.353H32.8097V132.244H19.321V128.353Z" fill="white"/>
<path d="M23.5336 136.005H31.8997V139.687H23.5336H20.0435V136.005H23.5336Z" fill="white"/>
<path d="M32.8097 147.548H19.321V143.657H32.8097V147.548Z" fill="white"/>
<path fill-rule="evenodd" clip-rule="evenodd" d="M64.7651 147.548H69.1596C70.6713 143.109 73.6581 134.007 73.6581 134.007C73.6581 134.007 76.6199 143.104 78.1046 147.548H82.5771L75.7383 128.353H71.6298L64.7651 147.548Z" fill="white"/>
<path d="M103.971 128.353H117.46V132.244H107.013H103.971V128.353Z" fill="white"/>
<path d="M108.184 136.005H116.55V139.687H108.184H104.694V136.005H108.184Z" fill="white"/>
<path d="M117.46 147.548H103.971V143.657H107.013H117.46V147.548Z" fill="white"/>
<path d="M122.613 128.353H130.049C132.39 128.353 134.193 128.898 135.458 129.986C136.741 131.058 137.383 132.589 137.383 134.578C137.383 135.823 137.114 136.886 136.576 137.768C136.056 138.65 135.259 139.368 134.184 139.921L137.565 147.548H132.962L130.076 140.829H126.825H123.336V137.146H126.825H130.024C130.943 137.146 131.653 136.921 132.156 136.471C132.676 136.021 132.936 135.39 132.936 134.578C132.936 133.765 132.684 133.151 132.182 132.736C131.697 132.304 130.986 132.088 130.049 132.088H126.825H122.613V128.353Z" fill="white"/>
</g>
<defs>
<clipPath id="clip0_17_229">
<rect width="138" height="148" fill="white"/>
</clipPath>
</defs>
</svg>
