<svg fill="none" height="20" viewBox="0 0 26 20" width="26" xmlns="http://www.w3.org/2000/svg" xmlns:xlink="http://www.w3.org/1999/xlink"><clipPath id="a"><path d="m0 0h25.8182v20h-25.8182z"/></clipPath><g clip-path="url(#a)"><path d="m21.8562 1.78168c-1.6456-.75505-3.4102-1.311342-5.2552-1.629953-.0336-.006149-.0672.009218-.0845.039953-.2269.40364-.4783.93022-.6544 1.34411-1.9844-.29709-3.9586-.29709-5.90239 0-.17607-.42309-.43658-.94047-.66455-1.34411-.01731-.02971-.05087-.045076-.08447-.039953-1.844.317593-3.60862.873883-5.2552 1.629953-.01425.00615-.02647.0164-.03458.02971-3.34711 5.00051-4.264023 9.87811-3.814216 14.69521.002035.0236.015264.0461.033583.0605 2.208323 1.6217 4.347473 2.6063 6.446883 3.2588.0336.0103.0692-.002.09059-.0297.49661-.6782.9393-1.3932 1.31887-2.1452.0224-.0441.00102-.0963-.04477-.1138-.70218-.2663-1.37079-.5911-2.01396-.9599-.05087-.0297-.05494-.1025-.00814-.1373.13534-.1014.27072-.2069.39996-.3135.02338-.0194.05596-.0235.08345-.0113 4.22534 1.9292 8.79974 1.9292 12.97514 0 .0275-.0133.0601-.0092.0845.0103.1293.1065.2646.2131.401.3145.0468.0348.0437.1076-.0071.1373-.6432.376-1.3118.6936-2.015.9589-.0458.0174-.0662.0707-.0438.1148.3877.7509.8304 1.466 1.3179 2.1442.0203.0287.057.041.0906.0307 2.1096-.6525 4.2487-1.6371 6.457-3.2588.0194-.0144.0316-.0359.0336-.0595.5383-5.5691-.9017-10.40668-3.8173-14.69519-.0071-.01433-.0193-.02458-.0335-.03073zm-13.2286 11.79182c-1.27211 0-2.32029-1.1679-2.32029-2.6022 0-1.43427 1.02785-2.60216 2.32029-2.60216 1.30258 0 2.3406 1.17814 2.3203 2.60216 0 1.4343-1.0279 2.6022-2.3203 2.6022zm8.5789 0c-1.2721 0-2.3203-1.1679-2.3203-2.6022 0-1.43427 1.0278-2.60216 2.3203-2.60216 1.3026 0 2.3406 1.17814 2.3203 2.60216 0 1.4343-1.0177 2.6022-2.3203 2.6022z" fill="#5865f2"/></g></svg>