<svg fill="none" height="24" viewBox="0 0 25 24" width="25" xmlns="http://www.w3.org/2000/svg" xmlns:xlink="http://www.w3.org/1999/xlink"><clipPath id="a"><path d="m0 0h24.4034v24h-24.4034z"/></clipPath><g clip-path="url(#a)" clip-rule="evenodd" fill="#161514" fill-rule="evenodd"><path d="m12.224.0898438c-6.72543 0-12.1790781 5.4526362-12.1790781 12.1790562 0 5.3811 3.4896781 9.9463 8.3288081 11.5567.60867.1128.83213-.2642.83213-.5858 0-.2905-.01129-1.2499-.01654-2.2675-3.38823.7367-4.10319-1.437-4.10319-1.437-.55402-1.4077-1.35227-1.7821-1.35227-1.7821-1.10501-.7559.0833-.7403.0833-.7403 1.22299.0859 1.86695 1.255 1.86695 1.255 1.08626 1.8619 2.84915 1.3237 3.54414 1.0125.10931-.7872.42494-1.3245.77325-1.6286-2.70515-.308-5.54885-1.3523-5.54885-6.019 0-1.3296.47577-2.4161 1.25486-3.26901-.12645-.30675-.54333-1.54547.11798-3.22305 0 0 1.02272-.32733 3.35012 1.2484.97149-.26985 2.01339-.40518 3.04839-.40982 1.035.00464 2.0777.13997 3.051.40982 2.3246-1.57573 3.3459-1.2484 3.3459-1.2484.6629 1.67758.2459 2.9163.1194 3.22305.7809.85291 1.2535 1.93941 1.2535 3.26901 0 4.6778-2.8492 5.7078-5.5612 6.0093.4369.378.8261 1.1191.8261 2.2554 0 1.6296-.0141 2.9411-.0141 3.3423 0 .3241.2192.7038.8366.5842 4.8365-1.6122 8.3217-6.1758 8.3217-11.5551 0-6.72642-5.4528-12.1790562-12.1789-12.1790562z"/><path d="m4.6582 17.5757c-.02682.0605-.12201.0786-.20874.0371-.08833-.0398-.13795-.1223-.10931-.183.02622-.0623.12162-.0796.20975-.0379.08854.0398.13896.1231.1083.1838z"/><path d="m5.15028 18.1268c-.05808.0538-.17163.0288-.24867-.0563-.07966-.0849-.09459-.1985-.0357-.2531.0599-.0539.17002-.0287.24989.0563.07966.0859.09519.1986.03448.2531z"/><path d="m5.63057 18.8287c-.07462.0518-.19664.0032-.27207-.1051-.07462-.1083-.07462-.2382.00161-.2902.07563-.052.19584-.0052.27227.1023.07442.1101.07442.24-.00181.293z"/><path d="m6.28896 19.5055c-.06676.0736-.20895.0538-.31301-.0466-.10649-.0982-.13614-.2376-.06918-.3112.06756-.0738.21055-.053.31543.0466.10568.098.13795.2384.06676.3112z"/><path d="m7.19695 19.8988c-.02945.0954-.16639.1388-.30434.0982-.13774-.0417-.2279-.1534-.20006-.2498.02863-.096.16618-.1412.30514-.0979.13755.0416.2279.1525.19926.2495z"/><path d="m8.19328 19.9727c.00343.1004-.11354.1837-.25835.1855-.14561.0032-.26339-.078-.26501-.1769 0-.1014.11436-.1839.25997-.1863.14481-.0028.26339.0778.26339.1777z"/><path d="m9.12083 19.815c.01734.0981-.08329.1987-.22709.2255-.14138.0258-.27227-.0347-.29022-.1319-.01755-.1004.08491-.2011.22608-.2271.144-.025.27288.0339.29123.1335z"/></g></svg>