<svg fill="none" height="24" viewBox="0 0 24 24" width="24" xmlns="http://www.w3.org/2000/svg" xmlns:xlink="http://www.w3.org/1999/xlink"><clipPath id="a"><path d="m0 0h24v24h-24z"/></clipPath><g clip-path="url(#a)"><path d="m23.7459 12.27c0-.79-.07-1.54-.19-2.27h-11.3v4.51h6.47c-.29 1.48-1.14 2.73-2.4 3.58v3h3.86c2.26-2.09 3.56-5.17 3.56-8.82z" fill="#4285f4"/><path d="m12.2549 23.9991c3.24 0 5.95-1.08 7.93-2.91l-3.86-3c-1.08.72-2.45 1.16-4.07 1.16-3.12998 0-5.77998-2.11-6.72998-4.96h-3.98v3.09c1.97 3.92 6.02 6.62 10.70998 6.62z" fill="#34a853"/><path d="m5.52586 14.2891c-.25-.72-.38-1.49-.38-2.29s.14-1.57.38-2.28996v-3.09h-3.98c-.820002 1.62-1.290001 3.43996-1.290001 5.37996s.469999 3.76 1.290001 5.38z" fill="#fbbc05"/><path d="m12.2549 4.75c1.77 0 3.35.61 4.6 1.8l3.42-3.42c-2.07-1.94-4.78-3.13-8.02-3.13-4.68998 0-8.73998 2.7-10.70998 6.62l3.98 3.09c.95-2.85 3.6-4.96 6.72998-4.96z" fill="#ea4335"/></g></svg>