<svg width="118" height="20" viewBox="0 0 118 20" fill="none" xmlns="http://www.w3.org/2000/svg">
<path d="M92.8032 8.3939V11.8171H82.0482V16.3189H93.1789V20H78.3144C78.3379 16.1547 78.3379 12.3095 78.3379 8.3939H92.8032ZM12.7745 0.0468933C12.9859 0.0468933 13.1033 0.0937866 13.1972 0.304807C16.0856 6.77608 18.9974 13.2474 21.8858 19.6952C21.9093 19.7655 21.9327 19.8359 21.9797 19.9531H20.5003C19.7489 19.9531 19.0209 19.9297 18.2695 19.9531C17.9877 19.9531 17.8468 19.8828 17.7294 19.6014C16.0151 15.6858 14.3009 11.7468 12.5867 7.83118C12.07 6.65885 11.5534 5.46307 11.0133 4.2204C10.9429 4.38453 10.8959 4.47831 10.8255 4.59554C8.61811 9.58968 6.43423 14.5838 4.25035 19.578C4.13294 19.8359 4.01552 19.9297 3.71025 19.9297C2.71459 19.9109 1.73395 19.9222 0.744304 19.9034L0 19.8828C0.0704478 19.7655 0.140896 19.6483 0.211343 19.5311C3.07622 13.1536 5.94109 6.77608 8.80597 0.398593C8.92338 0.14068 9.0408 0.0468933 9.34607 0.0468933C10.4967 0.07034 11.6474 0.07034 12.7745 0.0468933ZM30.1986 0.117233C30.4334 0.117233 30.5508 0.187573 30.6683 0.375147C32.5938 3.02462 34.5194 5.65064 36.445 8.30012C36.5154 8.3939 36.5859 8.51114 36.7033 8.62837C36.7972 8.51114 36.8677 8.41735 36.9381 8.32356C38.8637 5.67409 40.7893 3.04807 42.7148 0.398593C42.8792 0.187573 43.0201 0.117233 43.2784 0.117233C44.4525 0.14068 45.6502 0.117233 46.8243 0.117233H47.2V19.9531H43.4897V5.69754C43.4663 5.67409 43.4428 5.67409 43.4193 5.65064C43.3489 5.74443 43.2784 5.83822 43.208 5.932C41.2119 8.58148 39.2159 11.2309 37.2199 13.8804C36.8677 14.3494 36.351 14.3494 36.0223 13.857C34.0967 11.2075 32.1477 8.58148 30.2221 5.932C30.1516 5.83822 30.0812 5.72098 29.9873 5.6272C29.9638 5.65064 29.9403 5.65064 29.9168 5.67409V19.9531H26.1831V0.14068C26.277 0.14068 26.3944 0.117233 26.4884 0.117233H30.1986ZM109.945 0C111.096 0 112.2 0.234467 113.233 0.726846C115.605 1.82884 117.037 4.2204 116.896 6.86987C116.849 7.71395 116.732 8.53458 116.427 9.30832C115.675 11.1841 114.243 12.2626 112.341 12.7784C112.2 12.8019 112.082 12.8488 111.895 12.8957C112.082 13.1067 112.223 13.2943 112.388 13.4584C114.172 15.4513 115.934 17.4443 117.718 19.4607C117.812 19.578 117.883 19.7421 118 19.9297H113.726C113.562 19.9297 113.374 19.8359 113.257 19.7186C111.472 17.6788 109.687 15.6624 107.926 13.5991C107.715 13.3646 107.503 13.2708 107.198 13.2708C106.165 13.2943 105.108 13.2708 104.051 13.2708V19.9062C102.76 19.8828 101.539 19.8828 100.271 19.8828V9.8476H100.693C103.629 9.8476 106.564 9.87104 109.523 9.87104C110.039 9.87104 110.58 9.82415 111.073 9.68347C112.505 9.26143 113.303 7.90152 113.139 6.23681C112.998 4.83001 111.895 3.70457 110.439 3.54045C110.133 3.49355 109.805 3.49355 109.499 3.49355H100.294V0.0234467C100.365 0.0234467 100.459 0 100.529 0H109.945ZM64.0605 0C65.2581 0 66.4322 0.21102 67.5359 0.7034C69.438 1.57093 70.4243 3.07151 70.6121 5.13482C70.8 7.17468 70.0251 8.67526 68.123 9.58968C68.17 9.63658 68.2169 9.66002 68.2404 9.68347C70.3069 10.4103 71.3636 12.755 71.2462 14.4197C71.1053 16.7175 70.0955 18.3822 67.9116 19.2263C67.2776 19.4607 66.5966 19.6483 65.9391 19.7421C65.2111 19.8593 64.4597 19.9062 63.7317 19.9062H54.3622V8.11254H54.7849C57.955 8.06565 61.1252 8.0422 64.2718 7.97186C64.718 7.94842 65.1877 7.85463 65.6104 7.6905C66.808 7.24502 67.2541 6.07268 66.6905 4.9238C66.2679 4.05627 65.4929 3.63423 64.5771 3.47011C64.2718 3.42321 63.9431 3.39977 63.6378 3.39977C60.679 3.37632 57.7437 3.37632 54.7849 3.35287H54.3622V0.0234467C54.4561 0.0234467 54.5266 0 54.6205 0H64.0605ZM63.8022 11.3013H58.3777C58.2603 11.3013 58.1664 11.3247 58.049 11.3247V16.3892C60.1859 16.3892 62.2523 16.4127 64.3423 16.3892C65.0468 16.3892 65.7043 16.2016 66.3383 15.8734C66.8784 15.592 67.2776 15.1934 67.442 14.6073C67.7003 13.7163 67.3715 12.8488 66.5497 12.2157C65.7512 11.6061 64.8119 11.3013 63.8022 11.3013ZM93.2024 0.117233V3.70457H78.3379V0.117233H93.2024Z" fill="white"/>
</svg>
