<svg width="86" height="28" viewBox="0 0 86 28" fill="none" xmlns="http://www.w3.org/2000/svg">
<g opacity="0.9">
<path d="M12.238 3.01215H6.0285C6.34565 2.2728 6.59603 1.46624 6.76296 0.60927L5.01028 0.374023C4.84336 1.2814 4.57629 2.17198 4.24244 3.01215H0.236328V15.9507H1.82208V14.7241H10.6522V15.9171H12.238V3.01215ZM1.82208 13.1782V9.44782H10.6522V13.1782H1.82208ZM1.82208 7.93552V4.52445H10.6522V7.93552H1.82208Z" fill="white"/>
<path d="M17.2456 1.2814V2.82731H23.4551V6.89372H18.0135V8.45643H23.4551V13.7495H16.8784V15.2954H31.6342V13.7495H25.0575V8.45643H30.5326V6.89372H25.0575V2.82731H31.3004V1.2814H17.2456ZM28.179 9.07815L26.9438 9.8511C27.9119 11.0946 28.6797 12.2372 29.2473 13.2622L30.5159 12.3716C29.965 11.4306 29.1805 10.3216 28.179 9.07815Z" fill="white"/>
<path d="M36.742 8.8261V10.3888H47.8256V8.8261H36.742ZM34.8391 13.6151V15.161H49.7285V13.6151H34.8391ZM35.4901 4.33961V5.86871H49.0775V4.33961H45.4053C46.0062 3.33141 46.557 2.20559 47.0578 0.945338L45.5054 0.390828C45.0214 1.80231 44.4538 3.11297 43.8028 4.33961H35.4901ZM38.9287 0.575664L37.4264 1.29821C38.0607 2.12157 38.6449 3.04575 39.2125 4.08756L40.6146 3.36502C40.0638 2.35682 39.4962 1.41583 38.9287 0.575664Z" fill="white"/>
<path d="M53.7513 1.33181V2.87772H56.6892V6.54085C56.6892 6.64167 56.6725 6.77609 56.6725 6.91052H52.8833V8.45643H56.5556C56.4221 9.64947 56.2051 10.6913 55.8879 11.565C55.4039 12.7749 54.4858 13.7831 53.1504 14.5728L54.0017 15.9171C55.4873 15.161 56.5556 14.0687 57.1899 12.6573C57.6907 11.5314 58.0078 10.1368 58.1748 8.45643H62.6483V15.7323H64.234V8.45643H67.7561V6.91052H64.234V2.87772H66.9047V1.33181H53.7513ZM58.2916 2.87772H62.6483V6.91052H58.2749C58.2749 6.7929 58.2916 6.67527 58.2916 6.54085V2.87772Z" fill="white"/>
<path d="M72.0459 0.710091L70.9776 1.73509C72.2462 2.67608 73.2478 3.53305 73.9488 4.33961L75.0338 3.2642C74.2159 2.42403 73.2144 1.56706 72.0459 0.710091ZM71.7455 4.82691L70.6772 5.85191C71.879 6.75929 72.7971 7.59946 73.4481 8.37241L74.5164 7.28019C73.7652 6.47363 72.8472 5.65027 71.7455 4.82691ZM73.3479 9.41422C72.6469 11.397 71.7955 13.3462 70.8274 15.245L72.313 15.9003C73.1977 14.0519 73.9989 12.0691 74.7167 9.95193L73.3479 9.41422ZM77.9883 3.71789V9.8511H80.7258V13.9511C80.7258 14.3544 80.5589 14.556 80.2251 14.556C79.8245 14.556 79.4239 14.5224 79.0066 14.4552L79.3404 15.9003H80.7425C81.7274 15.9003 82.2281 15.3626 82.2281 14.3208V9.8511H84.8989V3.71789H81.7775C81.9277 3.2978 82.0445 2.86092 82.1447 2.42403H85.7335V1.01255H75.5346V6.82651C75.4845 10.2712 74.9504 12.9597 73.9488 14.8921L75.1507 15.9675C76.3525 13.6655 76.9868 10.6241 77.0536 6.82651V2.42403H80.6424C80.5422 2.86092 80.4254 3.281 80.2752 3.71789H77.9883ZM83.5134 8.59086H79.3738V7.36421H83.5134V8.59086ZM79.3738 6.20478V4.94453H83.5134V6.20478H79.3738ZM78.2554 10.8761C77.9383 12.0859 77.4041 13.2286 76.653 14.2704L77.9216 15.0769C78.6727 13.9847 79.2569 12.6909 79.6575 11.1786L78.2554 10.8761ZM84.3313 10.7921L83.0127 11.2458C83.6136 12.3548 84.1644 13.6151 84.6652 15.0601L86.0006 14.472C85.5332 13.1614 84.9656 11.9347 84.3313 10.7921Z" fill="white"/>
</g>
<path d="M0.236328 21.6205H1.9969C2.75294 21.6205 3.32394 21.7215 3.70989 21.9235C4.09584 22.1256 4.28881 22.4817 4.28881 22.9919C4.28881 23.3 4.21215 23.5602 4.05883 23.7723C3.91079 23.9845 3.69667 24.1133 3.41646 24.1588V24.1966C3.60679 24.232 3.77862 24.2951 3.93194 24.3861C4.08526 24.477 4.20687 24.6083 4.29674 24.7801C4.38662 24.9518 4.43156 25.1791 4.43156 25.462C4.43156 25.952 4.24652 26.3359 3.87643 26.6137C3.50634 26.8915 2.99879 27.0304 2.35377 27.0304H0.236328V21.6205ZM1.43383 23.7648H2.13172C2.48066 23.7648 2.72122 23.7117 2.85339 23.6056C2.99085 23.4996 3.05959 23.3455 3.05959 23.1434C3.05959 22.9363 2.98028 22.7873 2.82167 22.6964C2.66306 22.6055 2.41193 22.56 2.06827 22.56H1.43383V23.7648ZM1.43383 24.674V26.0833H2.21895C2.57847 26.0833 2.8296 26.0177 2.97235 25.8863C3.1151 25.7499 3.18647 25.5706 3.18647 25.3483C3.18647 25.1463 3.11246 24.9847 2.96442 24.8634C2.82167 24.7371 2.55996 24.674 2.1793 24.674H1.43383Z" fill="white"/>
<path d="M9.6647 27.0304L9.25231 25.7424H7.19038L6.778 27.0304H5.48533L7.48381 21.5977H8.95096L10.9574 27.0304H9.6647ZM8.96682 24.7801L8.55443 23.5223C8.528 23.4364 8.49363 23.3278 8.45133 23.1965C8.40904 23.0651 8.36674 22.9313 8.32445 22.7949C8.28215 22.6585 8.24779 22.5398 8.22135 22.4388C8.19491 22.5398 8.15791 22.6661 8.11032 22.8176C8.06803 22.9641 8.02573 23.1056 7.98344 23.2419C7.94643 23.3733 7.91735 23.4667 7.8962 23.5223L7.49174 24.7801H8.96682Z" fill="white"/>
<path d="M14.4264 27.0304H11.849V26.3788L12.5389 26.0757V22.5752L11.849 22.2721V21.6205H14.4264V22.2721L13.7365 22.5752V26.0757L14.4264 26.3788V27.0304Z" fill="white"/>
<path d="M17.7863 23.8481L18.968 21.6205H20.2607L18.3811 24.924V27.0304H17.1915V24.9619L15.312 21.6205H16.6126L17.7863 23.8481Z" fill="white"/>
<path d="M26.2166 21.6205V25.121C26.2166 25.4948 26.1294 25.8333 25.9549 26.1364C25.7858 26.4344 25.5267 26.6718 25.1777 26.8486C24.8341 27.0203 24.3979 27.1062 23.8692 27.1062C23.1185 27.1062 22.5475 26.9244 22.1562 26.5607C21.765 26.1919 21.5694 25.707 21.5694 25.1059V21.6205H22.7669V24.9316C22.7669 25.3761 22.862 25.6893 23.0524 25.8712C23.2427 26.053 23.5256 26.1439 23.9009 26.1439C24.2922 26.1439 24.575 26.0454 24.7495 25.8484C24.9293 25.6514 25.0191 25.3433 25.0191 24.924V21.6205H26.2166Z" fill="white"/>
<path d="M28.2378 27.0304V21.6205H29.4353V26.0833H31.7352V27.0304H28.2378Z" fill="white"/>
<path d="M36.822 27.0304L36.4096 25.7424H34.3477L33.9353 27.0304H32.6426L34.6411 21.5977H36.1083L38.1147 27.0304H36.822ZM36.1241 24.7801L35.7117 23.5223C35.6853 23.4364 35.6509 23.3278 35.6086 23.1965C35.5663 23.0651 35.5241 22.9313 35.4818 22.7949C35.4395 22.6585 35.4051 22.5398 35.3787 22.4388C35.3522 22.5398 35.3152 22.6661 35.2676 22.8176C35.2253 22.9641 35.183 23.1056 35.1407 23.2419C35.1037 23.3733 35.0747 23.4667 35.0535 23.5223L34.6491 24.7801H36.1241Z" fill="white"/>
<path d="M44.4863 27.0304H42.9636L40.4972 22.9389H40.4655C40.4761 23.1965 40.4867 23.4541 40.4972 23.7117C40.5131 23.9693 40.5263 24.2269 40.5369 24.4846V27.0304H39.4663V21.6205H40.981L43.4395 25.6742H43.4632C43.458 25.4216 43.45 25.1716 43.4395 24.924C43.4289 24.6765 43.4183 24.429 43.4077 24.1815V21.6205H44.4863V27.0304Z" fill="white"/>
<path d="M54.3855 24.3179C54.3855 24.8786 54.2877 25.3686 54.092 25.7878C53.9017 26.202 53.6083 26.5253 53.2118 26.7577C52.8152 26.99 52.3077 27.1062 51.6891 27.1062C51.0758 27.1062 50.5683 26.99 50.1664 26.7577C49.7699 26.5253 49.4738 26.1995 49.2782 25.7802C49.0879 25.361 48.9927 24.871 48.9927 24.3103C48.9927 23.7496 49.0879 23.2621 49.2782 22.8479C49.4738 22.4337 49.7699 22.113 50.1664 21.8857C50.5683 21.6533 51.0784 21.5371 51.697 21.5371C52.3103 21.5371 52.8152 21.6533 53.2118 21.8857C53.6083 22.113 53.9017 22.4362 54.092 22.8555C54.2877 23.2697 54.3855 23.7572 54.3855 24.3179ZM50.2537 24.3179C50.2537 24.8836 50.3674 25.3307 50.5947 25.659C50.822 25.9823 51.1868 26.1439 51.6891 26.1439C52.2019 26.1439 52.5694 25.9823 52.7914 25.659C53.0135 25.3307 53.1245 24.8836 53.1245 24.3179C53.1245 23.7471 53.0135 23.3 52.7914 22.9767C52.5694 22.6535 52.2046 22.4918 51.697 22.4918C51.1895 22.4918 50.822 22.6535 50.5947 22.9767C50.3674 23.3 50.2537 23.7471 50.2537 24.3179Z" fill="white"/>
<path d="M58.001 21.6205C58.7306 21.6205 59.2619 21.772 59.595 22.0751C59.9334 22.3731 60.1026 22.7848 60.1026 23.3101C60.1026 23.6233 60.0338 23.9188 59.8964 24.1966C59.7589 24.4694 59.5289 24.6891 59.2064 24.8558C58.8892 25.0225 58.4557 25.1059 57.9058 25.1059H57.3903V27.0304H56.1928V21.6205H58.001ZM57.9375 22.56H57.3903V24.1663H57.7868C58.1252 24.1663 58.3922 24.1032 58.5878 23.9769C58.7887 23.8456 58.8892 23.6359 58.8892 23.348C58.8892 22.8227 58.572 22.56 57.9375 22.56Z" fill="white"/>
<path d="M65.0665 27.0304H61.8071V21.6205H65.0665V22.56H63.0046V23.7496H64.9237V24.6891H63.0046V26.0833H65.0665V27.0304Z" fill="white"/>
<path d="M71.8992 27.0304H70.3765L67.9101 22.9389H67.8784C67.889 23.1965 67.8996 23.4541 67.9101 23.7117C67.926 23.9693 67.9392 24.2269 67.9498 24.4846V27.0304H66.8792V21.6205H68.3939L70.8523 25.6742H70.8761C70.8708 25.4216 70.8629 25.1716 70.8523 24.924C70.8418 24.6765 70.8312 24.429 70.8206 24.1815V21.6205H71.8992V27.0304Z" fill="white"/>
<path d="M80.125 27.0304L79.7126 25.7424H77.6507L77.2383 27.0304H75.9456L77.9441 21.5977H79.4113L81.4177 27.0304H80.125ZM79.4271 24.7801L79.0147 23.5223C78.9883 23.4364 78.9539 23.3278 78.9117 23.1965C78.8694 23.0651 78.8271 22.9313 78.7848 22.7949C78.7425 22.6585 78.7081 22.5398 78.6817 22.4388C78.6552 22.5398 78.6182 22.6661 78.5706 22.8176C78.5284 22.9641 78.4861 23.1056 78.4438 23.2419C78.4067 23.3733 78.3777 23.4667 78.3565 23.5223L77.9521 24.7801H79.4271Z" fill="white"/>
<path d="M84.8867 27.0304H82.3093V26.3788L82.9993 26.0757V22.5752L82.3093 22.2721V21.6205H84.8867V22.2721L84.1968 22.5752V26.0757L84.8867 26.3788V27.0304Z" fill="white"/>
</svg>
