<svg width="144" height="28" viewBox="0 0 144 28" fill="none" xmlns="http://www.w3.org/2000/svg">
<g clip-path="url(#clip0_7_4151)">
<path opacity="0.95" d="M10.0286 27.9564C15.5672 27.9564 20.0571 23.373 20.0571 17.7189C20.0571 12.0649 15.5672 7.48145 10.0286 7.48145C4.48994 7.48145 0 12.0649 0 17.7189C0 23.373 4.48994 27.9564 10.0286 27.9564Z" fill="#4CE7FF"/>
<path opacity="0.95" d="M20.0571 28C27.6313 28 33.7713 21.732 33.7713 14C33.7713 6.26801 27.6313 0 20.0571 0C12.4829 0 6.34277 6.26801 6.34277 14C6.34277 21.732 12.4829 28 20.0571 28Z" fill="#0067C2"/>
<path opacity="0.95" d="M30.0857 27.9564C35.6243 27.9564 40.1143 23.373 40.1143 17.7189C40.1143 12.0649 35.6243 7.48145 30.0857 7.48145C24.5471 7.48145 20.0571 12.0649 20.0571 17.7189C20.0571 23.373 24.5471 27.9564 30.0857 27.9564Z" fill="#4CE7FF"/>
<path d="M74.4187 10.7013C73.4398 9.54458 71.9741 8.81133 70.5238 8.66258C69.1198 8.49108 67.733 8.50333 66.305 8.78158C64.8341 9.09658 63.4987 10.0153 62.6621 11.2876C62.2404 11.9211 61.937 12.6368 61.7758 13.3841C61.733 13.5731 61.7021 13.7638 61.6798 13.9563H62.9638C62.9793 13.8583 62.9775 13.7568 62.9998 13.6588C63.1267 13.0691 63.3667 12.5056 63.6992 12.0068C64.3592 11.0006 65.4118 10.2778 66.5724 10.0311C67.781 9.79308 69.113 9.77033 70.3713 9.93133C71.5935 10.0608 72.6907 10.6278 73.481 11.5448C74.273 12.4636 74.6758 13.6466 74.6433 14.9048V17.1588H66.329C65.9518 17.1623 65.6141 17.1483 65.1633 17.1798C64.7415 17.2288 64.3198 17.3198 63.9255 17.4878C63.1335 17.8133 62.441 18.3768 61.9524 19.0891C61.4638 19.8013 61.1792 20.6606 61.1552 21.5303C61.1415 21.9503 61.1501 22.2933 61.1501 22.6888C61.157 23.1228 61.2221 23.5568 61.3421 23.9751C61.8272 25.6551 63.341 26.9571 65.0501 27.1426C65.4941 27.1898 65.8644 27.1758 66.2295 27.1776H67.3421H69.5655C71.1941 27.1898 72.8295 26.5161 73.9867 25.3383C74.2301 25.0951 74.4461 24.8273 74.6467 24.5456V27.2371H75.8998V19.0156V14.9048C75.9358 13.4261 75.4198 11.8371 74.4187 10.7013ZM74.6381 19.0156V20.8408C74.6244 20.8408 74.6278 20.8408 74.6381 20.8426V21.4411L74.5764 21.8506C74.5044 22.1831 74.4067 22.5068 74.2815 22.8218C74.0227 23.4466 73.6438 24.0223 73.1673 24.4983C72.2175 25.4591 70.901 26.0068 69.5587 25.9981H67.3353H66.2227C65.8455 25.9981 65.4735 26.0051 65.1804 25.9718C63.9221 25.8371 62.7975 24.8711 62.441 23.6321C62.3535 23.3241 62.3055 23.0038 62.2987 22.6818C62.2987 22.3213 62.2918 21.9083 62.3038 21.5723C62.321 20.9283 62.5318 20.2966 62.8918 19.7698C63.2535 19.2431 63.7678 18.8266 64.3507 18.5851C64.9473 18.3278 65.5353 18.3296 66.3221 18.3418H74.6364V19.0156H74.6381Z" fill="#F5F7FA"/>
<path d="M108.809 20.8513V19.0156V14.9048C108.854 13.4261 108.338 11.8371 107.337 10.7013C106.358 9.54458 104.892 8.81133 103.442 8.66258C102.038 8.49108 100.651 8.50333 99.2228 8.78158C97.752 9.09658 96.4165 10.0153 95.58 11.2876C95.1583 11.9211 94.8548 12.6368 94.6937 13.3841C94.6508 13.5731 94.62 13.7638 94.5977 13.9563H95.8817C95.8971 13.8583 95.8954 13.7568 95.9177 13.6588C96.0446 13.0691 96.2845 12.5056 96.6171 12.0068C97.2771 11.0006 98.3297 10.2778 99.4903 10.0311C100.699 9.79308 102.031 9.77033 103.289 9.93133C104.511 10.0608 105.609 10.6278 106.399 11.5448C107.191 12.4636 107.594 13.6466 107.561 14.9048V17.1098H99.2468C98.868 17.1133 98.5337 17.0993 98.0777 17.1308C97.6508 17.1816 97.224 17.2726 96.8263 17.4423C96.0257 17.7713 95.3263 18.3401 94.8308 19.0611C94.3371 19.7803 94.0491 20.6501 94.0251 21.5286C94.0114 21.9521 94.02 22.2916 94.02 22.6906C94.0268 23.1298 94.092 23.5673 94.2137 23.9908C94.704 25.6901 96.2348 27.0043 97.9628 27.1933C98.4137 27.2423 98.784 27.2266 99.1474 27.2283H100.26H102.483C104.124 27.2406 105.771 26.5616 106.937 25.3751C107.167 25.1458 107.371 24.8921 107.563 24.6296V27.2388H108.816V20.8548C108.854 20.8548 108.881 20.8531 108.809 20.8513ZM107.556 19.0156V20.8408C107.462 20.8408 107.506 20.8426 107.556 20.8443V20.8461C107.553 20.8461 107.554 20.8461 107.551 20.8461V20.8531L107.549 20.8688L107.547 20.9003L107.544 20.9633L107.537 21.0893L107.523 21.3413L107.448 21.8401C107.376 22.1691 107.28 22.4893 107.155 22.8026C106.898 23.4221 106.522 23.9908 106.051 24.4633C105.11 25.4153 103.807 25.9561 102.477 25.9491H100.251H99.1388C98.7617 25.9491 98.388 25.9561 98.1034 25.9228C96.864 25.7898 95.7548 24.8378 95.4034 23.6163C95.3177 23.3118 95.2697 22.9968 95.2646 22.6801C95.2646 22.3213 95.2577 21.9048 95.2697 21.5723C95.2868 20.9371 95.4943 20.3158 95.8491 19.7961C96.2057 19.2763 96.7114 18.8668 97.2874 18.6288C97.8754 18.3751 98.4497 18.3768 99.24 18.3891H107.554V19.0156H107.556Z" fill="#F5F7FA"/>
<path d="M90.1026 18.8758C89.8369 18.7148 89.4941 18.5888 89.2404 18.5136L88.4741 18.2721L85.4089 17.3078L82.3438 16.3436C81.8586 16.1808 81.2501 16.0268 80.9175 15.8588C80.5421 15.6681 80.2112 15.3793 79.9729 15.0083C79.4878 14.2716 79.3489 13.2706 79.6026 12.4043C79.8581 11.5223 80.4701 10.8136 81.3204 10.3988C83.0278 9.57283 85.2581 9.60608 87.2004 9.97008C88.1501 10.1818 89.0552 10.6141 89.6312 11.2966C89.9175 11.6343 90.1181 12.0316 90.2141 12.4673C90.2569 12.6878 90.2826 12.9118 90.2878 13.1446L90.2895 13.9566H91.5426L91.5409 13.1306C91.5358 12.8156 91.5015 12.4988 91.4364 12.1838C91.2992 11.5538 90.9975 10.9483 90.5826 10.4636C89.7444 9.48183 88.5924 8.97783 87.4712 8.72233C86.3312 8.48783 85.2512 8.42308 84.1164 8.46508C82.9969 8.52633 81.8415 8.70658 80.7615 9.25608C79.6764 9.76883 78.7352 10.8206 78.4009 12.0473C78.0495 13.2776 78.2295 14.6356 78.9324 15.7206C79.2804 16.2631 79.7844 16.7163 80.3655 17.0086C81.0015 17.3043 81.4472 17.3848 81.9752 17.5668L85.0404 18.5311L88.1055 19.4953L88.8718 19.7368C89.1306 19.8173 89.2935 19.8786 89.4906 19.9923C89.8644 20.2023 90.1798 20.5173 90.4044 20.8901C90.6238 21.2646 90.7575 21.6933 90.7661 22.1291C90.7695 22.3513 90.7352 22.5963 90.7249 22.8291C90.6615 23.0478 90.6426 23.2841 90.5501 23.4888C90.4061 23.9176 90.1352 24.2763 89.8284 24.6053C89.4855 24.9011 89.1135 25.1863 88.6626 25.3683C86.9004 26.1331 84.6752 26.1856 82.7655 25.7708C81.8141 25.5328 80.9038 25.1041 80.3004 24.4216C79.6832 23.7286 79.4484 22.8868 79.4946 21.8281H78.2415C78.2278 22.3408 78.2586 23.0461 78.4506 23.6358C78.6324 24.2466 78.9564 24.8206 79.3781 25.2861C80.2266 26.2311 81.3615 26.7316 82.4706 27.0133C83.6021 27.2881 84.7181 27.3406 85.8392 27.2846C86.9569 27.2111 88.0969 27.0361 89.1769 26.5356C89.7221 26.3098 90.2295 25.9458 90.6924 25.5311C91.1278 25.0796 91.5135 24.5476 91.7226 23.9386C91.8478 23.6428 91.8872 23.3278 91.9644 23.0216C91.9849 22.7101 92.0226 22.4108 92.0192 22.0871C92.0038 21.4326 91.8066 20.7833 91.4758 20.2233C91.1398 19.6651 90.6666 19.1926 90.1026 18.8758Z" fill="#F5F7FA"/>
<path d="M57.9307 21.828C57.5896 23.0093 56.8902 24.082 55.913 24.8153C55.2187 25.356 54.3993 25.7183 53.5387 25.8723C52.6542 26.0438 51.7387 26.0543 50.8473 25.9248C49.0902 25.6675 47.4633 24.6595 46.4296 23.1843C45.9136 22.4493 45.5502 21.6075 45.3513 20.729C45.1679 19.8663 45.1147 18.8548 45.1062 17.9168C45.1113 16.9788 45.1679 15.9708 45.341 15.101C45.533 14.219 45.8964 13.379 46.4022 12.637C47.4273 11.1583 49.0456 10.1345 50.8027 9.86853C51.6925 9.73028 52.6079 9.73728 53.4959 9.90353C54.3547 10.0558 55.181 10.4058 55.877 10.943C56.873 11.6763 57.5844 12.7613 57.9307 13.9583H59.2336C58.8582 12.3553 57.9359 10.8835 56.6227 9.91578C55.7707 9.26128 54.7593 8.83078 53.7102 8.64528C52.6919 8.45628 51.641 8.44578 50.6159 8.60678C48.5262 8.92178 46.5976 10.1415 45.3804 11.9003C44.777 12.7823 44.345 13.7833 44.117 14.8333C43.9096 15.9043 43.865 16.8843 43.8547 17.922C43.8702 18.9598 43.9096 19.938 44.1307 21.0108C44.3656 22.0573 44.7993 23.06 45.413 23.9333C46.6387 25.6868 48.5793 26.8873 50.669 27.1918C51.6942 27.3405 52.7433 27.33 53.7633 27.1323C54.8124 26.9433 55.817 26.4988 56.6656 25.839C57.9564 24.8695 58.865 23.4153 59.2353 21.8298H57.9307V21.828Z" fill="#F5F7FA"/>
<path d="M141.672 17.794C141.36 17.626 141.032 17.4808 140.695 17.3898L139.958 17.1955L137.143 16.471L134.328 15.7465L133.64 15.568C133.51 15.5313 133.385 15.4805 133.267 15.421C133.035 15.2933 132.835 15.1183 132.691 14.91C132.398 14.497 132.348 13.9895 132.524 13.398C132.706 12.8433 133.121 12.3515 133.668 12.0715C133.903 11.9455 134.328 11.8125 134.72 11.7145C135.116 11.6165 135.521 11.5518 135.927 11.5203C136.742 11.4538 137.564 11.5238 138.356 11.7198C139.234 11.9368 139.694 12.1643 140.11 12.6438C140.302 12.873 140.45 13.1355 140.537 13.4138C140.576 13.5538 140.614 13.6955 140.624 13.839C140.631 13.8793 140.631 13.9195 140.631 13.9598H143.523C143.518 13.8145 143.518 13.6693 143.498 13.5258C143.465 13.1775 143.386 12.8363 143.285 12.5038C143.074 11.8423 142.73 11.2315 142.292 10.7118C141.85 10.1973 141.317 9.76678 140.727 9.45878C140.098 9.13853 139.577 8.99678 139.037 8.85328C137.948 8.58203 136.819 8.48753 135.703 8.57853C135.144 8.62228 134.59 8.71328 134.045 8.84628C133.502 8.98803 132.987 9.12628 132.356 9.44303C131.172 10.0503 130.208 11.1458 129.78 12.4723C129.574 13.1478 129.478 13.811 129.559 14.567C129.641 15.309 129.917 16.0213 130.332 16.618C130.747 17.2165 131.3 17.6995 131.924 18.0355C132.238 18.2 132.566 18.3313 132.903 18.4223L133.622 18.6095L136.436 19.334L139.251 20.0585L139.92 20.2335C140.05 20.265 140.168 20.3245 140.285 20.384C140.513 20.5118 140.705 20.6903 140.842 20.8985C140.978 21.1085 141.056 21.3395 141.077 21.5775C141.089 21.8208 141.06 22.148 140.955 22.4105C140.762 22.96 140.33 23.4448 139.774 23.7073C139.541 23.8245 139.08 23.9628 138.691 24.0555C138.288 24.15 137.876 24.2183 137.463 24.2533C136.637 24.3215 135.8 24.269 134.988 24.0993C134.606 24.0205 134.131 23.8805 133.846 23.7668C133.56 23.6513 133.306 23.4745 133.087 23.268C132.686 22.8795 132.459 22.3615 132.422 21.8278H132.406H129.523C129.557 23.1805 130.147 24.4965 131.088 25.4013C131.573 25.8703 132.14 26.25 132.754 26.5003C133.373 26.7418 133.836 26.8643 134.4 26.9885C135.485 27.216 136.599 27.2843 137.702 27.1933C138.254 27.1478 138.8 27.0585 139.34 26.9308C139.889 26.7908 140.371 26.6735 141.015 26.3725C142.214 25.8003 143.208 24.7328 143.671 23.4203C143.909 22.7588 144.002 22.0833 143.957 21.3413C143.899 20.594 143.643 19.8678 143.242 19.2553C142.839 18.641 142.294 18.1405 141.672 17.794Z" fill="#F5F7FA"/>
<path d="M119.491 27.3121C115.706 27.3121 112.522 24.5419 111.924 20.7234C111.624 18.8176 111.624 16.8961 111.922 14.9991C112.522 11.1824 115.706 8.41211 119.489 8.41211C123.274 8.41211 126.458 11.1824 127.058 15.0009C127.356 16.8996 127.356 18.8246 127.058 20.7234C126.458 24.5401 123.276 27.3121 119.491 27.3121ZM119.467 11.3644C117.11 11.3644 115.128 13.0899 114.754 15.4681C114.506 17.0519 114.506 18.6601 114.754 20.2474C115.13 22.6326 117.111 24.3599 119.469 24.3599C121.826 24.3599 123.807 22.6344 124.181 20.2561C124.43 18.6671 124.43 17.0571 124.181 15.4681C123.806 13.0899 121.824 11.3644 119.467 11.3644Z" fill="#F5F7FA"/>
</g>
<defs>
<clipPath id="clip0_7_4151">
<rect width="144" height="28" fill="white"/>
</clipPath>
</defs>
</svg>
