<?xml version="1.0" encoding="UTF-8"?>
<svg width="127px" height="37px" viewBox="0 0 127 37" version="1.1" xmlns="http://www.w3.org/2000/svg" xmlns:xlink="http://www.w3.org/1999/xlink">
    <title>COZ-rgb-black-on-white</title>
    <g id="Page-1" stroke="none" stroke-width="1" fill="none" fill-rule="evenodd">
        <g id="COZ-desktop" transform="translate(-510.000000, -34.000000)">
            <g id="HEADER" transform="translate(510.000000, 34.000000)">
                <g id="COZ-rgb-black-on-white">
                    <polyline id="Fill-1" fill="#131514" points="113.519489 9.63660988 113.519489 12.8686998 102.367439 24.0859197 113.519489 24.0859197 113.519489 27.5841997 97.6989488 27.5841997 97.6989488 24.5422997 108.999769 13.1364098 98.3116988 13.1364098 98.3118888 9.63660988 113.519489 9.63660988"></polyline>
                    <polygon id="Stroke-2" stroke="#131514" stroke-width="0.5" points="113.519489 9.63660988 113.519489 12.8686998 102.367439 24.0859197 113.519489 24.0859197 113.519489 27.5841997 97.6989488 27.5841997 97.6989488 24.5422997 108.999769 13.1364098 98.3116988 13.1364098 98.3118888 9.63660988"></polygon>
                    <path d="M81.060459,23.8183997 C78.331109,23.8183997 75.862059,21.3233197 75.862059,18.5941598 C75.862059,15.8649998 78.331109,13.3959498 81.060459,13.3959498 C83.7894289,13.3959498 86.2584789,15.8649998 86.2584789,18.5941598 C86.2584789,21.3233197 83.7894289,23.8183997 81.060459,23.8183997 Z M81.060459,9.52317988 C76.174039,9.52317988 71.9634491,13.7337698 71.9634491,18.6201898 C71.9634491,23.5064197 76.174039,27.7171997 81.060459,27.7171997 C85.9464989,27.7171997 90.1572789,23.5064197 90.1572789,18.6201898 C90.1572789,13.7337698 85.9464989,9.52317988 81.060459,9.52317988 L81.060459,9.52317988 Z" id="Fill-3" fill="#131514"></path>
                    <g id="Group-8">
                        <path d="M60.3293692,21.4532797 L64.6218492,21.4532797 C63.4394792,25.0919697 60.0466492,27.7171997 56.0625393,27.7171997 C51.1018294,27.7171997 47.0664194,23.6363797 47.0664194,18.6201898 C47.0664194,13.6038098 51.1018294,9.52317988 56.0625393,9.52317988 C60.0466492,9.52317988 63.4140192,12.1223798 64.5961992,15.7352298 L60.3037192,15.7352298 C59.5839993,14.1496798 57.8361893,13.1620598 56.0625393,13.1620598 C53.2351493,13.1620598 50.9733894,15.6311098 50.9733894,18.6201898 C50.9733894,21.6351097 53.2351493,24.0783197 56.0625393,24.0783197 C57.8618393,24.0783197 59.6096493,23.0126097 60.3293692,21.4532797" id="Fill-4" fill="#131514"></path>
                        <path d="M29.1553096,27.6250497 L21.8669097,27.6250497 L29.1114196,20.3807297 L32.7554296,24.0249297 L29.1553096,27.6250497 Z M10.9785799,31.2253596 L3.73406995,31.2692496 L11.0224699,23.9808497 L3.77795995,16.7367198 L7.37826991,13.1364098 L18.2228998,23.9808497 L10.9785799,31.2253596 Z M14.6225898,5.89189993 L18.2228998,9.49220988 L21.8669097,5.84819993 L25.5111097,9.49220988 L21.8669097,13.1364098 L25.4672197,16.7367198 L21.8669097,20.3368397 L11.0224699,9.49220988 L14.6225898,5.89189993 Z M0,36.6565095 L36.4978595,36.6565095 L36.4978595,0.158839998 L0,0.158839998 L0,36.6565095 Z" id="Fill-6" fill="#131514"></path>
                        <polygon id="Stroke-7" stroke="#131514" stroke-width="1.89999998" points="1.00186999 35.7199996 125.362568 35.7199996 125.362568 1.05886999 1.00186999 1.05886999"></polygon>
                    </g>
                </g>
            </g>
        </g>
    </g>
</svg>