<?xml version="1.0" encoding="utf-8"?>
<!-- Generator: Adobe Illustrator 25.3.1, SVG Export Plug-In . SVG Version: 6.00 Build 0)  -->
<svg version="1.1" id="GasZero__x28_Logotype_x29__1_"
	 xmlns="http://www.w3.org/2000/svg" xmlns:xlink="http://www.w3.org/1999/xlink" x="0px" y="0px" viewBox="0 0 627.2 114.2"
	 style="enable-background:new 0 0 627.2 114.2;" xml:space="preserve">
<style type="text/css">
	.st0{fill:#FFFFFF;}
</style>
<g id="logos_1_">
	<g id="GasZero_-_Style_01">
		<g>
			<path class="st0" d="M55.7,70.6l31.8,0.5c-0.6,2.3-1.4,4.4-2.4,6.3c-2.5,4.7-6,8.2-10.5,10.7c-4.6,2.5-10.1,3.7-16.6,3.7
				c-6.4,0-12-1.5-16.9-4.4c-4.9-2.9-8.8-7-11.6-12.2c-2.8-5.2-4.2-11.3-4.2-18.2c0-6.9,1.4-12.9,4.3-18.1c2.9-5.2,6.9-9.2,12-12.1
				c5.1-2.9,10.9-4.3,17.4-4.3c6.1,0,11.5,1.2,16.3,3.5c4.8,2.3,9,5.8,12.6,10.4l16.8-16.8C99.5,13.4,93.1,8.6,85.3,5.2
				C77.5,1.7,68.8,0,59.3,0c-8.3,0-16,1.4-23.2,4.3c-7.2,2.9-13.5,6.9-18.9,12.1c-5.4,5.2-9.6,11.2-12.6,18.1C1.5,41.4,0,48.9,0,57
				C0,65,1.5,72.5,4.5,79.5c3,7,7.1,13,12.3,18.2c5.2,5.2,11.4,9.2,18.4,12.2c7.1,2.9,14.6,4.4,22.7,4.4c11,0,20.7-2.3,29.1-6.9
				c8.4-4.6,15-11.4,19.8-20.5c4.8-9,7.1-20.2,7.1-33.5v-3.6H55.7V70.6z M182.6,42.6c-2.1-2-4.4-3.6-7.1-4.9c-4.1-2-8.8-3-13.9-3
				c-7,0-13.3,1.7-18.8,5.2c-5.5,3.5-9.8,8.2-13,14.1c-3.2,6-4.8,12.8-4.8,20.4c0,7.6,1.6,14.4,4.8,20.4c3.2,6,7.5,10.7,13,14.1
				c5.5,3.5,11.7,5.2,18.8,5.2c5.1,0,9.8-1,14-3c2.7-1.3,5-2.9,7.1-4.8v6.2h23.5V36.2h-23.5V42.6z M178.9,87.3
				c-3.1,3.4-7.3,5.1-12.4,5.1c-3.2,0-6.2-0.8-8.8-2.4c-2.6-1.6-4.7-3.7-6.1-6.4c-1.5-2.7-2.2-5.8-2.2-9.3c0-3.6,0.8-6.7,2.3-9.4
				c1.5-2.7,3.6-4.8,6.1-6.4c2.6-1.5,5.5-2.3,8.9-2.3c3.3,0,6.3,0.8,8.9,2.3c2.6,1.5,4.6,3.6,6,6.4c1.4,2.7,2.1,5.9,2.1,9.4
				C183.6,79.6,182,83.9,178.9,87.3z M250.1,54.7c1.4-0.8,3.4-1.2,6.1-1.2c2.8,0,5.7,0.6,8.7,1.7c3,1.2,5.7,3.1,8.1,6l13.7-13.8
				c-3.5-4.4-7.9-7.7-13.4-10c-5.5-2.2-11.5-3.4-18-3.4c-6.2,0-11.6,1-16.2,3.1c-4.6,2.1-8.2,4.9-10.7,8.6
				c-2.5,3.6-3.8,7.9-3.8,12.8c0,4.6,0.9,8.4,2.7,11.4c1.8,3,4.1,5.3,6.9,7c2.8,1.7,5.8,3,8.9,3.9c3.1,0.9,6.1,1.8,8.9,2.6
				c2.8,0.8,5.2,1.7,7,2.7c1.8,1,2.7,2.4,2.7,4.3c0,1.5-0.8,2.6-2.3,3.5c-1.5,0.8-3.7,1.3-6.5,1.3c-4.1,0-7.8-0.8-11.3-2.3
				c-3.5-1.5-6.4-3.6-8.9-6.4l-13.7,13.8c2.6,2.8,5.8,5.3,9.5,7.5c3.7,2.1,7.7,3.8,12.1,4.9c4.3,1.1,8.8,1.7,13.3,1.7
				c9.5,0,17.1-2.2,22.7-6.6c5.6-4.4,8.4-10.3,8.4-17.7c0-4.8-0.9-8.7-2.7-11.7c-1.8-3-4.1-5.4-6.9-7.1c-2.8-1.8-5.8-3.2-8.9-4.2
				c-3.1-1-6.1-1.9-8.9-2.7c-2.8-0.7-5.1-1.6-6.9-2.5c-1.8-0.9-2.7-2.2-2.7-3.8C248.1,56.6,248.7,55.5,250.1,54.7z M587.9,34.8
				c-21.7,0-39.2,17.6-39.2,39.2c0,21.7,17.6,39.2,39.2,39.2c21.7,0,39.2-17.6,39.2-39.2C627.2,52.4,609.6,34.8,587.9,34.8z
				 M529.1,34.7c-8.4,0-14.9,2.5-19.6,7.4v-5.8h-24v76.3h24V70.6c0-4.9,1.2-8.6,3.5-11.1c2.4-2.5,5.5-3.7,9.5-3.7
				c2,0,3.8,0.3,5.3,0.9c1.6,0.6,2.9,1.5,3.9,2.7l14.3-18c-2.1-2.3-4.5-4-7.3-5.1C536,35.2,532.8,34.7,529.1,34.7z M300.6,22.9h49.6
				l-52.7,72.3v17.3h84.1V91.3H330l53-72.5V1.7h-82.4V22.9z M452.2,39.4c-5.8-3.2-12.4-4.9-19.9-4.9c-7.7,0-14.7,1.7-20.9,5.2
				c-6.2,3.5-11.1,8.2-14.7,14.2c-3.6,6-5.4,12.8-5.4,20.5c0,7.6,1.8,14.5,5.5,20.6c3.7,6.1,8.7,10.8,15.1,14.2
				c6.4,3.4,13.8,5.1,22,5.1c6.4,0,12.2-1.1,17.6-3.3c5.3-2.2,9.9-5.5,13.7-9.9l-13.2-13.2c-2.3,2.6-5,4.6-8,5.9
				c-3,1.3-6.4,2-10.2,2c-4.1,0-7.6-0.9-10.6-2.6c-3-1.7-5.3-4.2-6.9-7.4c-0.5-1.1-1-2.2-1.3-3.4l54.6-0.1c0.4-2,0.7-3.7,0.9-5.3
				c0.2-1.5,0.2-3,0.2-4.3c0-7.4-1.6-14-4.9-19.8C462.5,47.1,458,42.6,452.2,39.4z M415,65.9c0.3-1.1,0.7-2.1,1.2-3.1
				c1.5-3.1,3.7-5.6,6.4-7.3c2.8-1.7,6-2.6,9.8-2.6c3.6,0,6.6,0.8,9,2.3c2.5,1.5,4.3,3.7,5.6,6.6c0.5,1.2,0.9,2.6,1.3,4L415,65.9z"
				/>
		</g>
	</g>
</g>
</svg>
