<svg width="108" height="38" xmlns="http://www.w3.org/2000/svg">
 <!-- Generator: Sketch 63 (92445) - https://sketch.com -->
 <title>Group复制 2</title>
 <desc>Created with Sketch.</desc>
 <defs>
  <radialGradient id="radialGradient-1" gradientTransform="translate(1.550927,-0.088427),scale(1.000000,0.792631),translate(-1.550927,0.088427)" r="200.192457%" fy="-8.84270166%" fx="155.092671%" cy="-8.84270166%" cx="155.092671%">
   <stop offset="0%" stop-color="#F7BFA4"/>
   <stop offset="1.130752%" stop-color="#F7BB9F"/>
   <stop offset="42.7%" stop-color="#E60012"/>
   <stop offset="66.28%" stop-color="#E50012"/>
   <stop offset="75.74%" stop-color="#E10011"/>
   <stop offset="82.68%" stop-color="#DA0010"/>
   <stop offset="88.38%" stop-color="#CF000E"/>
   <stop offset="93.31%" stop-color="#C00009"/>
   <stop offset="97.65%" stop-color="#AE0003"/>
   <stop offset="100%" stop-color="#A00000"/>
  </radialGradient>
  <radialGradient id="radialGradient-2" gradientTransform="translate(1.732768,-5.322396),scale(0.334419,1.000000),translate(-1.732768,5.322396)" r="693.121264%" fy="-532.239618%" fx="173.276814%" cy="-532.239618%" cx="173.276814%">
   <stop offset="0%" stop-color="#F7BFA4"/>
   <stop offset="1.130752%" stop-color="#F7BB9F"/>
   <stop offset="42.7%" stop-color="#E60012"/>
   <stop offset="66.28%" stop-color="#E50012"/>
   <stop offset="75.74%" stop-color="#E10011"/>
   <stop offset="82.68%" stop-color="#DA0010"/>
   <stop offset="88.38%" stop-color="#CF000E"/>
   <stop offset="93.31%" stop-color="#C00009"/>
   <stop offset="97.65%" stop-color="#AE0003"/>
   <stop offset="100%" stop-color="#A00000"/>
  </radialGradient>
  <radialGradient id="radialGradient-3" gradientTransform="translate(1.549108,-1.244569),scale(0.582812,1.000000),translate(-1.549108,1.244569)" r="304.432914%" fy="-124.456932%" fx="154.910809%" cy="-124.456932%" cx="154.910809%">
   <stop offset="0%" stop-color="#F7BFA4"/>
   <stop offset="1.130752%" stop-color="#F7BB9F"/>
   <stop offset="42.7%" stop-color="#E60012"/>
   <stop offset="66.28%" stop-color="#E50012"/>
   <stop offset="75.74%" stop-color="#E10011"/>
   <stop offset="82.68%" stop-color="#DA0010"/>
   <stop offset="88.38%" stop-color="#CF000E"/>
   <stop offset="93.31%" stop-color="#C00009"/>
   <stop offset="97.65%" stop-color="#AE0003"/>
   <stop offset="100%" stop-color="#A00000"/>
  </radialGradient>
  <radialGradient id="radialGradient-4" gradientTransform="translate(0.105868,-5.313307),scale(0.335532,1.000000),translate(-0.105868,5.313307)" r="692.203328%" fy="-531.33069%" fx="10.5868157%" cy="-531.33069%" cx="10.5868157%">
   <stop offset="0%" stop-color="#F7BFA4"/>
   <stop offset="1.130752%" stop-color="#F7BB9F"/>
   <stop offset="42.7%" stop-color="#E60012"/>
   <stop offset="66.28%" stop-color="#E50012"/>
   <stop offset="75.74%" stop-color="#E10011"/>
   <stop offset="82.68%" stop-color="#DA0010"/>
   <stop offset="88.38%" stop-color="#CF000E"/>
   <stop offset="93.31%" stop-color="#C00009"/>
   <stop offset="97.65%" stop-color="#AE0003"/>
   <stop offset="100%" stop-color="#A00000"/>
  </radialGradient>
  <radialGradient id="radialGradient-5" gradientTransform="translate(0.172855,-0.089892),scale(1.000000,0.792389),translate(-0.172855,0.089892)" r="200.714705%" fy="-8.98915778%" fx="17.285464%" cy="-8.98915778%" cx="17.285464%">
   <stop offset="0%" stop-color="#F7BFA4"/>
   <stop offset="1.130752%" stop-color="#F7BB9F"/>
   <stop offset="42.7%" stop-color="#E60012"/>
   <stop offset="66.28%" stop-color="#E50012"/>
   <stop offset="75.74%" stop-color="#E10011"/>
   <stop offset="82.68%" stop-color="#DA0010"/>
   <stop offset="88.38%" stop-color="#CF000E"/>
   <stop offset="93.31%" stop-color="#C00009"/>
   <stop offset="97.65%" stop-color="#AE0003"/>
   <stop offset="100%" stop-color="#A00000"/>
  </radialGradient>
  <radialGradient id="radialGradient-6" gradientTransform="translate(0.542265,0.162340),scale(1.000000,0.383413),translate(-0.542265,-0.162340)" r="335.683866%" fy="16.2340444%" fx="54.2264503%" cy="16.2340444%" cx="54.2264503%">
   <stop offset="0%" stop-color="#F7BFA4"/>
   <stop offset="1.130752%" stop-color="#F7BB9F"/>
   <stop offset="42.7%" stop-color="#E60012"/>
   <stop offset="66.28%" stop-color="#E50012"/>
   <stop offset="75.74%" stop-color="#E10011"/>
   <stop offset="82.68%" stop-color="#DA0010"/>
   <stop offset="88.38%" stop-color="#CF000E"/>
   <stop offset="93.31%" stop-color="#C00009"/>
   <stop offset="97.65%" stop-color="#AE0003"/>
   <stop offset="100%" stop-color="#A00000"/>
  </radialGradient>
  <radialGradient id="radialGradient-7" gradientTransform="translate(1.672265,0.165547),scale(1.000000,0.383353),translate(-1.672265,-0.165547)" r="335.64812%" fy="16.5546972%" fx="167.22654%" cy="16.5546972%" cx="167.22654%">
   <stop offset="0%" stop-color="#F7BFA4"/>
   <stop offset="1.130752%" stop-color="#F7BB9F"/>
   <stop offset="42.7%" stop-color="#E60012"/>
   <stop offset="66.28%" stop-color="#E50012"/>
   <stop offset="75.74%" stop-color="#E10011"/>
   <stop offset="82.68%" stop-color="#DA0010"/>
   <stop offset="88.38%" stop-color="#CF000E"/>
   <stop offset="93.31%" stop-color="#C00009"/>
   <stop offset="97.65%" stop-color="#AE0003"/>
   <stop offset="100%" stop-color="#A00000"/>
  </radialGradient>
  <radialGradient id="radialGradient-8" gradientTransform="translate(0.091848,-1.241907),scale(0.582934,1.000000),translate(-0.091848,1.241907)" r="304.513782%" fy="-124.190741%" fx="9.18476313%" cy="-124.190741%" cx="9.18476313%">
   <stop offset="0%" stop-color="#F7BFA4"/>
   <stop offset="1.130752%" stop-color="#F7BB9F"/>
   <stop offset="42.7%" stop-color="#E60012"/>
   <stop offset="66.28%" stop-color="#E50012"/>
   <stop offset="75.74%" stop-color="#E10011"/>
   <stop offset="82.68%" stop-color="#DA0010"/>
   <stop offset="88.38%" stop-color="#CF000E"/>
   <stop offset="93.31%" stop-color="#C00009"/>
   <stop offset="97.65%" stop-color="#AE0003"/>
   <stop offset="100%" stop-color="#A00000"/>
  </radialGradient>
 </defs>
 <g>
  <title>background</title>
  <rect fill="none" id="canvas_background" height="402" width="582" y="-1" x="-1"/>
 </g>
 <g>
  <title>Layer 1</title>
  <g fill-rule="evenodd" fill="none" id="页面-1">
   <g id="方案2备份">
    <path fill="#ffffff" id="Fill-170" d="m55.574721,15.376266c-0.20472,-0.6156 -0.45967,-1.2312 -0.76599,-1.8468c1.42887,-0.46189 2.70551,-0.89683 3.82919,-1.30843l0,-4.617l2.06776,0l0,3.69379c1.58183,-0.71769 3.18992,-1.66652 4.82463,-2.84724l1.22528,1.46214c-1.83792,1.28301 -3.85544,2.43716 -6.04991,3.46284l0,0.92321c-0.05156,0.92378 0.40811,1.36024 1.37844,1.30844l1.60827,0c0.81604,0.0518 1.32689,-0.30799 1.5316,-1.07749c0.10161,-0.4617 0.17828,-1.12778 0.22965,-2.0007c0.71443,0.25732 1.37863,0.46189 1.99127,0.6156c-0.15316,0.9234 -0.30632,1.71965 -0.45948,2.38554c-0.25628,1.28301 -1.20017,1.89861 -2.83356,1.8468l-2.83355,0c-1.83811,0.10361 -2.73177,-0.7695 -2.6804,-2.6163l0,-0.53855c-0.91915,0.35941 -1.94084,0.74407 -3.0632,1.15415l0,0zm-6.35643,6.15619l0,-1.92385l8.04119,0l0,-2.00069l2.06776,0l0,2.00069l8.11767,0l0,1.92385l-8.11767,0l0,4.23234l-2.06776,0l0,-4.23234l-8.04119,0zm0.61265,-6.69474c-0.15298,-0.66627 -0.40925,-1.38548 -0.76581,-2.15479c2.04132,-1.33329 3.77764,-3.12848 5.20745,-5.3865l1.99127,0.7695c-0.6642,0.97502 -1.35333,1.89861 -2.06776,2.77001l0,7.00292l-2.06757,0l0,-4.92518c-0.66419,0.6676 -1.42999,1.30844 -2.29758,1.92404l0,0z"/>
    <g id="Group">
     <rect height="37.647059" width="37.647059" y="-1.506014" x="0.216706" fill-rule="nonzero" id="Rectangle"/>
     <g id="华为logo上下排版">
      <polygon points="17.014169692993164,31.231605529785156 16.135568618774414,33.28467559814453 16.14451026916504,33.28467559814453 16.08176612854004,33.41913604736328 17.955514907836914,33.41913604736328 17.90171241760254,33.28467559814453 17.90171241760254,33.28467559814453 " id="Path"/>
      <polygon points="4.919992446899414,32.15503692626953 2.113870620727539,32.15503692626953 2.113870620727539,29.680639266967773 0.8676855564117432,29.680639266967773 0.8676855564117432,35.80390167236328 2.113870620727539,35.80390167236328 2.113870620727539,33.320533752441406 4.919992446899414,33.320533752441406 4.919992446899414,35.80390167236328 6.157205581665039,35.80390167236328 6.157205581665039,29.680639266967773 4.919992446899414,29.680639266967773 " fill="#000000" id="Path"/>
      <path fill="#000000" id="Path" d="m11.921881,33.186044c0,0.99515 -0.49309,1.5241 -1.38962,1.5241c-0.90549,0 -1.39858,-0.54688 -1.39858,-1.56892l0,-3.4606l-1.24617,0l0,3.50542c0,1.72134 0.95928,2.70752 2.62682,2.70752c1.68547,0 2.65372,-1.00411 2.65372,-2.76131l0,-3.45163l-1.24617,0l0,3.50542z"/>
      <polygon points="26.284252166748047,33.89429473876953 24.89463233947754,29.680639266967773 23.881540298461914,29.680639266967773 22.49192237854004,33.89429473876953 21.138193130493164,29.680639266967773 19.811321258544922,29.680639266967773 21.945049285888672,35.80390167236328 22.976055145263672,35.80390167236328 24.365671157836914,31.787452697753906 25.764263153076172,35.80390167236328 26.80423927307129,35.80390167236328 28.92899513244629,29.680639266967773 27.638010025024414,29.680639266967773 " fill="#000000" id="Path"/>
      <polygon points="31.161357879638672,33.168128967285156 33.42060089111328,33.168128967285156 33.42060089111328,32.056434631347656 31.161357879638672,32.056434631347656 31.161357879638672,30.80127716064453 34.44263458251953,30.80127716064453 34.44263458251953,29.680639266967773 29.933115005493164,29.680639266967773 29.933115005493164,35.80390167236328 34.559181213378906,35.80390167236328 34.559181213378906,34.68323516845703 31.161357879638672,34.68323516845703 " fill="#000000" id="Path"/>
      <rect height="6.114316" width="1.228242" y="29.680627" x="36.038464" fill="#000000" id="Rectangle"/>
      <path fill-rule="nonzero" fill="#000000" id="Shape" d="m17.578971,29.680624l-1.0848,0l-2.69855,6.12328l1.2641,0l0.51999,-1.18341l0.03586,-0.08965l2.80613,0l0.54688,1.27306l1.29997,0l-2.67165,-6.08742l-0.01793,-0.03586zm0.37654,3.73852l-1.88271,0l0.06276,-0.14344l0,0l0.87859,-2.05305l0.88757,2.05305l0,0l0.05379,0.14344z"/>
      <path fill="url(#radialGradient-1)" id="Path" d="m5.278611,13.238314c2.77924,2.69855 9.51216,6.10535 11.07211,6.87637c0.01793,0.00896 0.09862,0.03586 0.15241,-0.0269c0,0 0.06276,-0.05379 0.0269,-0.13448l0,0c-4.2854,-9.31492 -10.13973,-16.37955 -10.13973,-16.37955c0,0 -3.19163,3.01233 -2.95854,6.03363c0.11655,2.27718 1.84685,3.63093 1.84685,3.63093z"/>
      <path fill="url(#radialGradient-2)" id="Path" d="m15.454201,22.400824c-0.0269,-0.09862 -0.14345,-0.09862 -0.14345,-0.09862l0,0l-11.20659,0.38551c1.21928,2.16063 3.26336,3.83714 5.39709,3.31715c1.47031,-0.36758 4.80539,-2.68062 5.89915,-3.46059l0,0c0.08966,-0.08069 0.0538,-0.14345 0.0538,-0.14345z"/>
      <path fill="url(#radialGradient-3)" id="Path" d="m4.964831,21.011204c1.07583,0.4393 2.1427,0.4662 2.1427,0.4662c0.17034,0.02689 6.66119,0 8.40046,-0.00897c0.07172,0 0.11655,-0.07172 0.11655,-0.07172c0.05379,-0.08965 -0.04483,-0.17034 -0.04483,-0.17034l0,0c-4.91297,-3.30819 -14.45202,-8.38253 -14.45202,-8.38253c-0.86963,2.67165 0.30482,4.82332 0.30482,4.82332c1.21031,2.56406 3.53232,3.34404 3.53232,3.34404z"/>
      <path fill="url(#radialGradient-4)" id="Path" d="m33.949551,22.687714l-11.21555,-0.38551l0,0c0,0 -0.09862,0.00897 -0.12552,0.08966c0,0 -0.02689,0.09861 0.04483,0.15241l0,0c1.07583,0.76204 4.32126,3.03026 5.89018,3.46956c0,0 2.89579,0.97721 5.40606,-3.32612z"/>
      <path fill="url(#radialGradient-5)" id="Path" d="m21.550581,19.908484c0,0 -0.05379,0.10758 0.0269,0.1793c0,0 0.08068,0.05379 0.15241,0.00897l0,0c1.60478,-0.79791 8.28391,-4.17782 11.05418,-6.85844c0,0 1.74823,-1.39858 1.84684,-3.64886c0.19724,-3.12888 -2.95854,-6.0157 -2.95854,-6.0157c0,0 -5.83639,7.03774 -10.12179,16.33473l0,0z"/>
      <path fill="url(#radialGradient-6)" id="Path" d="m19.990621,19.074704c0.00897,0.09862 0.08966,0.12552 0.08966,0.12552c0.10758,0.04482 0.16137,-0.06276 0.16137,-0.06276l0,0c1.07583,-1.55099 5.91708,-8.69631 6.90326,-13.05344c0,0 0.53792,-2.10683 0.01793,-3.54128c0,0 -0.73515,-2.72544 -3.70266,-3.44266c0,0 -0.8517,-0.21517 -1.76615,-0.3407l0,0c0,-0.00895 -3.31716,4.24956 -1.70341,20.31532l0,0z"/>
      <path fill="url(#radialGradient-7)" id="Path" d="m17.821031,19.155394c0.07172,0.07172 0.13448,0.04483 0.13448,0.04483c0.11655,-0.03586 0.10758,-0.14345 0.10758,-0.14345l0,0c1.61375,-16.0568 -1.69444,-20.30634 -1.69444,-20.30634c-0.48412,0.04483 -1.80202,0.34068 -1.80202,0.34068c-2.9675,0.76205 -3.66679,3.44267 -3.66679,3.44267c-0.53792,1.68547 0.01793,3.54128 0.01793,3.54128c0.98618,4.37505 5.85432,11.5652 6.90326,13.08033z"/>
      <path fill="url(#radialGradient-8)" id="Path" d="m36.934991,12.825914c0,0 -9.52112,5.09227 -14.44306,8.40046l0,0c0,0 -0.08965,0.05379 -0.05379,0.16138c0,0 0.04483,0.08068 0.11655,0.08068l0,0c1.76616,0 8.43632,0.00897 8.60666,-0.01793c0,0 0.86067,-0.03586 1.92754,-0.4393c0,0 2.37579,-0.75308 3.60404,-3.4337c-0.00897,-0.00896 1.09376,-2.19649 0.24206,-4.75159z"/>
     </g>
    </g>
    <path fill="#ffffff" id="Fill-171" d="m78.275891,8.296426c-0.10045,2.09519 -0.19961,3.62799 -0.29896,4.59782l7.84775,0c-0.05032,0.86948 -0.12496,2.4019 -0.22431,4.59782c-0.10044,2.45235 -0.17509,4.13841 -0.2243,5.05778c-0.05013,2.45217 -1.27045,3.67844 -3.66225,3.67844c-1.14659,0.05027 -2.36709,0.07673 -3.66224,0.07673c-0.14929,-0.81789 -0.32457,-1.53298 -0.52307,-2.14565c1.19599,0.10281 2.31696,0.15326 3.36329,0.15326c1.5941,0.10281 2.3918,-0.68977 2.3918,-2.37582c0,-0.45959 0.02432,-1.22627 0.07464,-2.29872c0.09934,-2.1961 0.17399,-3.78049 0.22431,-4.75145l-5.75509,0c-0.3994,5.05778 -2.86584,9.01761 -7.39932,11.87816c-0.10045,-0.10299 -0.22412,-0.25625 -0.3736,-0.45978c-0.49874,-0.61304 -0.89685,-1.07301 -1.1958,-1.37935c4.23434,-2.55421 6.47666,-5.90081 6.7264,-10.03903l-6.27798,0l0,-1.99239l6.50229,0c0.14966,-1.4812 0.2243,-3.01362 0.2243,-4.59782l2.24214,0zm0.8222,8.73623c1.09536,1.02256 2.09266,1.9922 2.98952,2.91176l-1.56941,1.5328c-0.49892,-0.61304 -1.2216,-1.4298 -2.16767,-2.45236c-0.29895,-0.3566 -0.52307,-0.61304 -0.67255,-0.76611l1.42011,-1.22609zm-7.1752,-8.50662c0.29896,0.25625 0.74757,0.68977 1.34547,1.303c0.5979,0.56258 1.04633,0.9961 1.34528,1.30281l-1.64423,1.45569c-0.74756,-0.96983 -1.59521,-1.91547 -2.54127,-2.83542l1.49475,-1.22608z"/>
    <path fill="#ffffff" id="Fill-172" d="m90.267161,9.717076l14.99614,0l0,2.1111l-14.99614,0l0,-2.1111zm-1.61482,7.89807l0,-2.1111l18.37977,0l0,2.1111l-9.22848,0c-1.28199,1.82588 -2.87178,3.85907 -4.76785,6.09996c1.69201,0 4.63946,-0.10375 8.84369,-0.31261c-0.82059,-1.19912 -1.66641,-2.29353 -2.53782,-3.28477l1.769,-1.0946c0.76882,0.8871 1.94784,2.3458 3.53744,4.37937c0.81945,1.0435 1.40944,1.74585 1.76881,2.11111l-1.92261,1.25119l-1.15361,-1.5638c-1.7434,0.0511 -4.51202,0.18205 -8.30529,0.3909c-0.82078,0.05149 -1.43599,0.07849 -1.84581,0.07849c-0.97458,0.05091 -1.82059,0.15621 -2.53782,0.31261l-0.99981,-2.11149c0.66585,-0.3641 1.33264,-0.9384 1.99962,-1.7202c1.23041,-1.45909 2.33224,-2.97178 3.30664,-4.53616l-6.30587,0z"/>
   </g>
  </g>
 </g>
</svg>