<svg width="122" height="29" viewBox="0 0 122 29" fill="none" xmlns="http://www.w3.org/2000/svg"><path d="M95.985 14.9845C95.985 14.2555 95.985 13.5805 95.958 12.9594C95.931 12.3384 95.877 11.7444 95.796 11.2314C95.715 10.6914 95.553 10.2053 95.31 9.71932C95.094 9.2333 94.7429 8.80128 94.3379 8.36927C93.7439 7.77525 93.0959 7.34323 92.3669 7.01922C91.6378 6.72221 90.8008 6.5332 89.8558 6.5332C88.9107 6.5332 88.0737 6.69521 87.3447 7.01922C86.6157 7.31623 85.9406 7.77525 85.3466 8.36927C84.9146 8.80128 84.6176 9.2333 84.4016 9.71932C84.1856 10.2053 83.9966 10.6914 83.9156 11.2314C83.8346 11.7714 83.7806 12.3384 83.7536 12.9594C83.7266 13.5805 83.7266 14.2555 83.7266 14.9845C83.7266 15.7135 83.7266 16.3616 83.7536 17.0096C83.7806 17.6306 83.8346 18.2246 83.9156 18.7376C83.9966 19.2777 84.1586 19.7637 84.4016 20.2497C84.6176 20.7357 84.9686 21.1677 85.3466 21.5997C85.9406 22.1938 86.5887 22.6258 87.3447 22.9498C88.0737 23.2468 88.9107 23.4358 89.8558 23.4358C90.8008 23.4358 91.6108 23.2738 92.3669 22.9498C93.0959 22.6528 93.7709 22.1938 94.3379 21.5997C94.7699 21.1677 95.0669 20.7357 95.31 20.2497C95.526 19.7637 95.715 19.2777 95.796 18.7376C95.877 18.1976 95.958 17.6306 95.958 17.0096C95.985 16.3346 95.985 15.7135 95.985 14.9845ZM92.7719 14.9845C92.7719 15.7675 92.7719 16.4426 92.7449 16.9826C92.7179 17.5226 92.6909 17.9276 92.6099 18.2786C92.5559 18.6026 92.4749 18.8996 92.3669 19.0887C92.2589 19.3047 92.1509 19.5207 91.9619 19.6827C91.7458 19.9527 91.4218 20.1687 91.0978 20.3307C90.7468 20.4927 90.3418 20.5467 89.8828 20.5737C89.4238 20.5737 89.0457 20.4927 88.6677 20.3307C88.3167 20.1687 88.0197 19.9797 87.7767 19.6827C87.6147 19.5207 87.5067 19.3317 87.3717 19.0887C87.2637 18.8726 87.1827 18.6026 87.1287 18.2786C87.0747 17.9546 87.0207 17.5226 87.0207 16.9826C86.9937 16.4426 86.9937 15.7945 86.9937 14.9845C86.9937 14.2015 86.9937 13.5265 87.0207 12.9864C87.0477 12.4464 87.0747 12.0414 87.1287 11.6904C87.1827 11.3394 87.2637 11.0694 87.3717 10.8804C87.4797 10.6644 87.5877 10.4483 87.7767 10.2863C87.9927 10.0163 88.3167 9.80032 88.6677 9.63831C89.0187 9.47631 89.4238 9.42231 89.8828 9.39531C90.3418 9.39531 90.7198 9.47631 91.0978 9.63831C91.4218 9.80032 91.7458 9.98933 91.9619 10.2863C92.1239 10.4483 92.2319 10.6374 92.3669 10.8804C92.4749 11.0964 92.5559 11.3664 92.6099 11.6904C92.6639 12.0144 92.7179 12.4464 92.7449 12.9864C92.7449 13.5265 92.7719 14.2015 92.7719 14.9845Z" fill="#01BC8D"/><path d="M121.772 6.96532C121.772 6.80332 121.637 6.69531 121.502 6.69531H118.855C118.693 6.69531 118.585 6.83032 118.585 6.96532V16.8477L112.078 6.77632C112.024 6.72231 111.997 6.69531 111.916 6.69531H109.432C109.297 6.69531 109.162 6.83032 109.162 6.96532C109.162 12.3115 109.162 17.6577 109.162 22.9499C109.162 23.1119 109.297 23.2199 109.432 23.2199H112.078C112.24 23.2199 112.348 23.0849 112.348 22.9499V13.0405L118.855 23.1389C118.909 23.1929 118.936 23.2199 119.017 23.2199H121.502C121.664 23.2199 121.772 23.0849 121.772 22.9499V6.96532Z" fill="#01BC8D"/><path d="M103.87 6.96532C103.87 6.80332 103.735 6.69531 103.6 6.69531H100.954C100.792 6.69531 100.684 6.83032 100.684 6.96532V22.9499C100.684 23.1119 100.819 23.2199 100.954 23.2199H103.6C103.762 23.2199 103.87 23.0849 103.87 22.9499V6.96532Z" fill="#01BC8D"/><path d="M71.9546 14.9845C71.9546 14.2015 71.9546 13.5265 71.9816 12.9864C72.0086 12.4464 72.0356 12.0414 72.0896 11.6904C72.3326 10.2593 73.4397 9.42231 74.8437 9.42231C75.7617 9.42231 76.5718 9.74632 77.1118 10.5293C77.3278 10.8534 77.5168 11.2584 77.6248 11.7174C77.6248 11.7714 77.6518 11.7984 77.7058 11.7984H80.8379C80.8919 11.7984 80.8919 11.7714 80.8919 11.7174C80.5679 9.80032 79.5149 8.01826 77.6788 7.15423C76.8418 6.74921 75.8697 6.5332 74.7897 6.5332C73.0346 6.5332 71.5226 7.15423 70.3076 8.34227C69.6055 9.0443 69.1735 9.88132 68.9575 10.8264C68.7685 11.7444 68.6875 13.1214 68.6875 14.9305C68.6875 16.7396 68.7685 18.1166 68.9575 19.0346C69.1465 19.9797 69.6325 20.8167 70.3076 21.5187C71.5226 22.7338 73.0076 23.3278 74.7897 23.3278C75.8427 23.3278 76.8148 23.1388 77.6788 22.7068C79.4879 21.8428 80.5679 20.1147 80.8919 18.1436C80.8919 18.0896 80.8919 18.0626 80.8379 18.0626H77.7058C77.6518 18.0626 77.6248 18.0896 77.6248 18.1436C77.5168 18.6026 77.3548 18.9806 77.1118 19.3317C76.5718 20.0877 75.7617 20.4117 74.8437 20.4387C73.4397 20.4387 72.3596 19.6017 72.0896 18.1706C72.0356 17.8466 71.9816 17.4146 71.9816 16.8746C71.9546 16.4426 71.9546 15.7675 71.9546 14.9845Z" fill="#01BC8D"/><path d="M38.7974 6.96532C38.7974 6.80332 38.6624 6.69531 38.5274 6.69531H35.8813C35.7193 6.69531 35.6113 6.83032 35.6113 6.96532V22.9499C35.6113 23.1119 35.7463 23.2199 35.8813 23.2199H38.5274C38.6894 23.2199 38.7974 23.0849 38.7974 22.9499V18.2517L40.9575 15.6866L45.3587 23.1659C45.3857 23.2199 45.4397 23.2469 45.5207 23.2469H48.7608C48.8958 23.2469 48.9228 23.1659 48.8688 23.0309L43.1176 13.2835L48.4098 6.93832C48.5178 6.80331 48.4638 6.69531 48.3018 6.69531H44.7376C44.6836 6.69531 44.6566 6.69531 44.6296 6.74931L38.7974 13.6886V6.96532Z" fill="#01BC8D"/><path d="M58.2377 20.5197C56.7256 20.5197 55.3756 19.1156 55.3756 17.4685V6.99218C55.3756 6.83017 55.2406 6.72217 55.1055 6.72217H52.4595C52.2975 6.72217 52.1895 6.85717 52.1895 6.99218V17.4415C52.1895 21.1137 54.9435 23.4358 58.2917 23.4358C61.6398 23.4358 64.3939 21.1137 64.3939 17.4415V6.99218C64.3939 6.83017 64.2589 6.72217 64.1239 6.72217H61.4778C61.3158 6.72217 61.2078 6.85717 61.2078 6.99218V17.4685C61.0728 19.1156 59.7227 20.5197 58.2377 20.5197Z" fill="#01BC8D"/><path d="M8.71879 14.9844L17.0081 23.2737L22.2462 18.0355C23.1643 17.1175 24.6763 17.1175 25.5944 18.0355C26.5124 18.9535 26.5124 20.4656 25.5944 21.3836L18.6821 28.2959C17.7641 29.2139 16.252 29.2139 15.334 28.2959L5.39767 18.3325V24.2727C5.39767 25.5688 4.34464 26.6488 3.02159 26.6488C1.69854 26.6488 0.645508 25.5958 0.645508 24.2727V5.75005C0.645508 4.427 1.69854 3.37396 3.02159 3.37396C4.34464 3.37396 5.39767 4.427 5.39767 5.75005V11.6363L15.361 1.6729C16.279 0.754867 17.7911 0.754867 18.7091 1.6729L25.6214 8.58515C26.5394 9.50318 26.5394 11.0152 25.6214 11.9333C24.7033 12.8513 23.1913 12.8513 22.2733 11.9333L17.0351 6.69508L8.71879 14.9844ZM17.0351 12.6083C15.712 12.6083 14.659 13.6613 14.659 14.9844C14.659 16.3074 15.712 17.3605 17.0351 17.3605C18.3581 17.3605 19.4111 16.3074 19.4111 14.9844C19.3841 13.6613 18.3311 12.6083 17.0351 12.6083Z" fill="#01BC8D"/></svg>