<svg width="150" height="39" viewBox="0 0 150 39" fill="none" xmlns="http://www.w3.org/2000/svg">
<path d="M13.7768 21.6728H8.24035V38.0224H5.53649V21.6728H0V18.8845H13.7768V21.6728Z" fill="white"/>
<path fill-rule="evenodd" clip-rule="evenodd" d="M22.1457 38.0228H29.0985V35.3612H22.1457C20.6007 35.2345 19.3131 34.0938 19.3131 32.5729H30.5148V29.7846C30.5148 26.7428 28.0685 24.3347 24.9784 24.3347H22.1457C19.0556 24.3347 16.6093 26.7428 16.6093 29.7846V32.5729C16.6093 35.6147 19.0556 38.0228 22.1457 38.0228ZM24.8497 27.1233C26.3948 27.1233 27.6823 28.2639 27.6823 29.7848H19.1844C19.3132 28.3907 20.472 27.1233 22.0171 27.1233H24.8497Z" fill="white"/>
<path d="M35.9228 24.3347V25.4754C36.5666 24.7149 37.4679 24.3347 38.7554 24.3347H42.8756C45.7082 24.3347 46.9958 25.7289 46.9958 28.3904V29.7846H44.1631V28.3904C44.2919 27.7567 43.7769 27.123 43.1331 26.9963C43.0043 26.9963 42.8756 26.9963 42.7468 26.9963H38.6267C36.8241 26.9963 35.794 27.8835 35.794 29.6578V38.0228H32.9614V24.3347H35.9228Z" fill="white"/>
<path d="M63.6051 38.0228H60.7725V28.5172C60.9012 27.8835 60.3862 27.2498 59.7424 27.123C59.6137 27.123 59.4849 27.123 59.3562 27.123H57.9398V38.0228H55.3647V27.123H52.5321V38.0228H49.8282V24.3347H60.9012C62.7038 24.3347 63.7338 25.2219 63.7338 27.123V38.0228H63.6051Z" fill="white"/>
<path fill-rule="evenodd" clip-rule="evenodd" d="M74.2922 21.2926C74.5497 21.0391 74.6785 20.6589 74.6785 20.2787C74.6785 19.5182 74.1635 18.8845 73.3909 18.8845C72.6184 18.8845 71.9746 19.5182 71.9746 20.2787C71.9746 20.6589 72.1034 21.0391 72.3609 21.2926C72.8759 21.7996 73.7772 21.7996 74.2922 21.2926ZM69.2706 38.0222H77.511V35.2339H74.6784V24.3342H69.2706V27.1225H72.1032V35.2339H69.2706V38.0222Z" fill="white"/>
<path d="M85.8798 24.3343V24.968C86.7811 24.461 87.6824 24.2076 88.7124 24.3343H91.4163C94.5064 24.3343 96.9528 26.7424 96.9528 29.7842V38.0223H94.2489V29.7842C94.2489 28.2633 92.9614 27.1226 91.4163 27.1226H88.5837C87.0386 27.1226 85.8798 28.39 85.7511 29.7842V38.0223H82.9185V24.3343H85.8798Z" fill="white"/>
<path fill-rule="evenodd" clip-rule="evenodd" d="M103.906 38.0225H113.434V29.9111C113.434 26.8693 110.987 24.4612 107.897 24.4612H100.944V27.2495H107.897C109.442 27.2495 110.73 28.3902 110.73 29.9111H103.906C101.202 29.9111 99.7856 31.3052 99.7856 33.9668C99.7856 36.6283 101.202 38.0225 103.906 38.0225ZM102.361 32.5722H110.73V35.3605H102.361V32.5722Z" fill="white"/>
<path d="M128.755 38.0224H117.682V35.2341H121.803V21.6728H117.682V18.8845H124.635V35.2341H128.755V38.0224Z" fill="white"/>
<path d="M136.352 31.3048C136.352 33.2059 137.897 34.7268 139.828 34.7268H143.305C145.236 34.7268 146.781 33.2059 146.781 31.3048C146.781 29.4037 145.236 27.8828 143.305 27.8828H139.828V24.4608H143.305C145.236 24.4608 146.781 22.9399 146.781 21.1655C146.781 20.2783 146.395 19.3911 145.751 18.7574C145.107 18.1237 144.206 17.7435 143.305 17.7435H139.828C137.897 17.7435 136.352 19.2644 136.352 21.1655H132.876C132.876 17.49 135.966 14.4482 139.7 14.4482H143.176C146.91 14.4482 150 17.49 150 21.1655C150 23.1934 148.97 24.841 147.039 26.2352C148.97 27.6293 150 29.277 150 31.3048C150 34.9803 146.91 38.0221 143.176 38.0221H139.7C135.966 38.0221 132.876 34.9803 132.876 31.3048H136.352Z" fill="white"/>
<path d="M49.9572 11.1532L66.0516 0L66.1803 8.49166L49.9572 19.6449V11.1532Z" fill="#FEFE54"/>
</svg>
