<?xml version="1.0" encoding="UTF-8"?>
<svg width="134px" height="37px" viewBox="0 0 134 37" version="1.1" xmlns="http://www.w3.org/2000/svg" xmlns:xlink="http://www.w3.org/1999/xlink">
    <title>tintin_color _horizontal</title>
    <defs>
        <linearGradient x1="6.28669846%" y1="94.7678959%" x2="93.7104278%" y2="5.23210412%" id="linearGradient-1">
            <stop stop-color="#5F23F0" offset="17%"></stop>
            <stop stop-color="#AE348F" offset="59%"></stop>
            <stop stop-color="#E64145" offset="86%"></stop>
        </linearGradient>
    </defs>
    <g id="页面-1" stroke="none" stroke-width="1" fill="none" fill-rule="evenodd">
        <g id="课程详情" transform="translate(-81.000000, -2320.000000)" fill-rule="nonzero">
            <g id="编组-18" transform="translate(0.000000, 2023.500000)">
                <g id="tintin_color-_horizontal" transform="translate(81.000000, 297.000000)">
                    <rect id="矩形" fill="url(#linearGradient-1)" x="0" y="0" width="35.8842917" height="36" rx="6.9032538"></rect>
                    <path d="M32.0991865,15.263167 C32.068712,14.9388229 31.9108699,14.6399663 31.6604786,14.4325223 C31.4100873,14.2250783 31.08772,14.1260913 30.7644881,14.157397 C30.5569144,14.1823861 25.5751473,14.6780043 22.8351753,9.13041215 C22.6965469,8.83707406 22.444582,8.61320842 22.1375746,8.51060814 C21.8305671,8.40800786 21.4951181,8.43556285 21.2088359,8.58689805 C20.6118721,8.91974837 20.3829222,9.66577536 20.6899018,10.2778308 C21.6021879,12.1218221 22.7158205,13.44 23.8720056,14.3812581 C23.8317014,14.4400067 23.7969549,14.5024035 23.7682188,14.5676356 C23.7464236,14.6165727 21.5886957,19.4478091 15.5576438,19.0365293 C13.807798,18.845987 10.9588499,17.9432538 8.99935484,14.327115 C8.84936209,14.0398059 8.58898561,13.8263551 8.27845722,13.7361393 C7.96792883,13.6459234 7.6341505,13.6867582 7.3543338,13.8491974 C6.76939833,14.2035241 6.5662856,14.9570973 6.89352034,15.558872 C7.87326788,17.3664208 9.03464236,18.6387852 10.2240393,19.5342299 L7.39065919,24.892321 C7.06797612,25.496937 7.27870876,26.2492885 7.86807854,26.5967896 C8.04475469,26.6981768 8.24470868,26.7516459 8.44824684,26.7519306 C8.89437182,26.7487378 9.30216044,26.4983072 9.50791024,26.1011714 L12.3329874,20.7576573 C13.2693646,21.1578337 14.2593922,21.4174532 15.2711921,21.5281562 C15.3055007,21.5346592 15.3401534,21.5391785 15.374979,21.541692 L15.4237588,21.541692 C15.7797475,21.5760521 16.1025245,21.5885466 16.3806732,21.5885466 C16.7469396,21.5923004 17.1129652,21.5682841 17.4756241,21.5167028 L17.4860028,21.5167028 C18.4869489,21.4238161 19.4698171,21.1896628 20.4055259,20.8211714 L23.1693689,26.2177874 C23.3719754,26.6232256 23.7842281,26.8803062 24.2362973,26.8831239 C24.4345499,26.8831239 24.6295684,26.8327203 24.8029734,26.7363124 C25.3964613,26.395677 25.6166593,25.6461513 25.3021879,25.0370499 L22.5456101,19.6560521 C23.9816612,18.6313223 25.1452109,17.268815 25.9342496,15.6879826 C27.3054037,16.3380956 28.8016569,16.679605 30.3182048,16.68859 C30.5608721,16.6905184 30.8034472,16.6783505 31.0447125,16.6521475 C31.713833,16.5532044 32.1819416,15.9365995 32.0991865,15.263167 L32.0991865,15.263167 Z" id="路径" fill="#FFFFFF"></path>
                    <g id="编组" transform="translate(46.000000, 5.000000)" fill="#FFFFFF">
                        <path d="M35.2680002,6.08740184 L35.2680002,6.07545237 C35.2311528,6.07545237 35.1943054,6.07545237 35.157458,6.07545237 C35.1206106,6.07545237 35.0837632,6.07545237 35.0469157,6.07545237 L35.0469157,6.08740184 C30.8950704,6.20658469 27.5897371,9.67075715 27.5886641,13.9040628 L27.5886641,25 L31.7256238,25 L31.7256238,13.8187095 C31.7256238,11.8859957 33.2628582,10.3192216 35.1591329,10.3192216 C37.0554076,10.3192216 38.5926419,11.8859957 38.5926419,13.8187095 L38.5926419,24.9931717 L42.7296016,24.9931717 L42.7296016,13.8972346 C42.7248535,9.6652917 39.4185622,6.20469657 35.2680002,6.08740184 L35.2680002,6.08740184 Z" id="路径"></path>
                        <polygon id="路径" points="16.9849832 1.08057357 0 1.08057357 0 5.04779788 6.30928227 5.04779788 6.30928227 24.9931717 10.7008241 24.9931717 10.7008241 5.04779788 16.9849832 5.04779788"></polygon>
                        <polygon id="矩形" transform="translate(21.723226, 15.535166) rotate(-90.000000) translate(-21.723226, -15.535166) " points="12.2652195 13.3393947 31.1812318 13.3393947 31.1812318 17.7309365 12.2652195 17.7309365"></polygon>
                        <ellipse id="椭圆形" cx="21.7232257" cy="2.35916695" rx="2.31468758" ry="2.35916695"></ellipse>
                        <path d="M80.5383986,6.08740184 L80.5383986,6.07545237 C80.5015512,6.07545237 80.4663786,6.07545237 80.4278563,6.07545237 C80.389334,6.07545237 80.3558364,6.07545237 80.3173141,6.07545237 L80.3173141,6.08740184 C76.1651935,6.20656622 72.8593671,9.67047754 72.8573876,13.9040628 L72.8573876,25 L76.9943473,25 L76.9943473,13.8187095 C76.9943473,11.8859957 78.5315816,10.3192216 80.4278563,10.3192216 C82.324131,10.3192216 83.8613654,11.8859957 83.8613654,13.8187095 L83.8613654,24.9931717 L88,24.9931717 L88,13.8972346 C87.9943722,9.66565675 84.6885792,6.20558309 80.5383986,6.08740184 L80.5383986,6.08740184 Z" id="路径"></path>
                        <polygon id="路径" points="62.2503569 1.08057357 45.2636988 1.08057357 45.2636988 5.04779788 51.5729811 5.04779788 51.5729811 24.9931717 55.9645229 24.9931717 55.9645229 5.04779788 62.2503569 5.04779788"></polygon>
                        <polygon id="矩形" transform="translate(66.986924, 15.535166) rotate(-90.000000) translate(-66.986924, -15.535166) " points="57.5289184 13.3393947 76.4449306 13.3393947 76.4449306 17.7309365 57.5289184 17.7309365"></polygon>
                        <ellipse id="椭圆形" cx="66.9869245" cy="2.35916695" rx="2.31468758" ry="2.35916695"></ellipse>
                    </g>
                </g>
            </g>
        </g>
    </g>
</svg>