<svg width="108" height="108" viewBox="0 0 108 108" fill="none" xmlns="http://www.w3.org/2000/svg">
<g clip-path="url(#clip0_220_18280)">
<path d="M51.4266 8.24794C44.0016 8.81747 39.5297 11.8972 37.2094 18.0565C35.986 21.3472 35.2688 28.2026 35.6906 32.9698C36.4922 42.4409 42.293 50.3511 50.0133 52.4604C51.8696 52.9878 56.1305 52.9878 57.9867 52.4604C65.707 50.3511 71.5078 42.4409 72.3094 32.9698C72.7313 28.2026 72.0141 21.3472 70.7906 18.0565C68.5547 12.1081 63.9774 8.81747 57.2695 8.33232C56.3414 8.26904 55.1602 8.18466 54.6328 8.14247C54.1055 8.10028 52.6711 8.16357 51.4266 8.24794Z" fill="url(#paint0_radial_220_18280)"/>
<path d="M25.8397 12.6776C19.7014 13.2471 15.6514 16.5166 14.2592 22.0432C13.4577 25.2916 13.1413 32.1049 13.6897 34.6994C14.9131 40.5213 18.2249 45.3518 22.4436 47.5034C26.0085 49.3174 30.2694 49.3807 33.8764 47.6721L35.1842 47.0393L34.0663 44.8666C32.7585 42.3776 31.8725 39.8463 31.1764 36.7033C30.7756 34.7627 30.7124 33.8768 30.7124 29.7424C30.7124 23.2033 31.3663 19.1322 33.0327 15.2932C33.4335 14.3651 33.7921 13.5213 33.8131 13.3947C33.9397 12.8463 28.8983 12.4033 25.8397 12.6776Z" fill="url(#paint1_radial_220_18280)"/>
<path d="M77.3084 12.6776C75.199 12.8885 74.1232 13.1417 74.1865 13.4159C74.2076 13.5213 74.5662 14.3651 74.967 15.2932C76.6334 19.1323 77.2873 23.2034 77.2873 29.7424C77.2873 33.8768 77.224 34.7627 76.8232 36.7034C76.1271 39.8463 75.2412 42.3776 73.9334 44.8666L72.8154 47.0393L74.1232 47.6721C77.7303 49.3807 81.9912 49.3174 85.556 47.5034C89.7748 45.3518 93.0865 40.5213 94.3099 34.6995C94.6474 33.1385 94.6474 27.5698 94.3099 25.1018C93.4029 18.626 90.7451 14.9557 85.8514 13.4159C84.5857 13.0151 79.8396 12.3401 79.3123 12.4667C79.249 12.4878 78.3631 12.5932 77.3084 12.6776Z" fill="url(#paint2_radial_220_18280)"/>
<path d="M17.2968 50.9625C8.83818 52.9031 4.74599 55.3078 2.59443 59.5687C1.07568 62.564 0.506152 65.7492 0.168652 73.1109L-0.0844727 78.5953L0.506152 79.3758C1.7085 80.9578 5.25224 83.1726 8.22646 84.2062C9.91396 84.7968 13.9851 85.8515 14.1116 85.7461C14.1538 85.6828 14.2804 83.8476 14.3858 81.675C14.5757 77.0343 14.8499 74.3133 15.4194 71.3179C16.9804 63.1968 20.5874 58.05 27.1897 54.464L28.7296 53.6203L27.4007 53.4726C24.5319 53.1773 22.296 52.3547 20.8194 51.0469C20.4186 50.7094 19.9546 50.414 19.8069 50.4351C19.6382 50.4351 18.5202 50.6672 17.2968 50.9625Z" fill="url(#paint3_radial_220_18280)"/>
<path d="M87.3492 50.9203C86.2101 52.1437 83.4679 53.1773 80.5992 53.4726L79.2703 53.6203L80.8101 54.464C87.4124 58.05 91.0195 63.1968 92.5804 71.3179C93.1499 74.3133 93.4242 77.0343 93.614 81.675C93.7195 83.8476 93.846 85.6828 93.8882 85.7461C94.0148 85.8515 98.0859 84.7968 99.7734 84.2062C102.748 83.1726 106.291 80.9578 107.494 79.3758L108.084 78.5953L107.831 73.1109C107.388 63.4078 106.334 59.7164 103.148 56.5312C100.765 54.1687 97.9171 52.7976 92.7914 51.4898C88.1085 50.3086 87.9398 50.2875 87.3492 50.9203Z" fill="url(#paint4_radial_220_18280)"/>
<path d="M41.1326 55.2446C27.4639 58.1555 22.317 62.2688 20.3342 71.9298C19.6381 75.3891 19.4271 77.7938 19.2584 84.2063L19.1318 89.8384L20.4818 91.1884C26.6412 97.3266 40.4154 100.427 58.7037 99.7313C72.4147 99.2251 83.1725 95.9977 87.7287 90.9985L88.8045 89.8173V86.5899C88.8045 79.5657 88.1506 73.111 87.0959 69.5251C85.3873 63.7876 81.928 60.1805 75.7686 57.7758C73.5115 56.911 67.2256 55.2024 65.2428 54.9282C64.1881 54.8016 64.1037 54.8227 63.2389 55.5821C62.0576 56.5735 59.7584 57.6915 57.9022 58.1344C55.9404 58.5985 52.0592 58.5985 50.0975 58.1344C48.2623 57.6915 45.942 56.5946 44.7818 55.6032C43.7904 54.7383 43.6217 54.7173 41.1326 55.2446Z" fill="url(#paint5_radial_220_18280)"/>
</g>
<defs>
<radialGradient id="paint0_radial_220_18280" cx="0" cy="0" r="1" gradientUnits="userSpaceOnUse" gradientTransform="translate(70.8687 53.9155) rotate(-125.91) scale(57.8126 64.8334)">
<stop stop-color="#241771" stop-opacity="0.17"/>
<stop offset="0.506484" stop-color="#652BB0" stop-opacity="0.49"/>
<stop offset="1" stop-color="#EFE8FF"/>
</radialGradient>
<radialGradient id="paint1_radial_220_18280" cx="0" cy="0" r="1" gradientUnits="userSpaceOnUse" gradientTransform="translate(34.2617 49.7705) rotate(-117.775) scale(42.9705 41.8256)">
<stop stop-color="#241771" stop-opacity="0.17"/>
<stop offset="0.506484" stop-color="#652BB0" stop-opacity="0.49"/>
<stop offset="1" stop-color="#EFE8FF"/>
</radialGradient>
<radialGradient id="paint2_radial_220_18280" cx="0" cy="0" r="1" gradientUnits="userSpaceOnUse" gradientTransform="translate(93.6414 49.7739) rotate(-117.659) scale(43.0938 41.829)">
<stop stop-color="#241771" stop-opacity="0.17"/>
<stop offset="0.506484" stop-color="#652BB0" stop-opacity="0.49"/>
<stop offset="1" stop-color="#EFE8FF"/>
</radialGradient>
<radialGradient id="paint3_radial_220_18280" cx="0" cy="0" r="1" gradientUnits="userSpaceOnUse" gradientTransform="translate(27.5084 86.5901) rotate(-125.633) scale(45.4943 50.8551)">
<stop stop-color="#241771" stop-opacity="0.17"/>
<stop offset="0.506484" stop-color="#652BB0" stop-opacity="0.49"/>
<stop offset="1" stop-color="#EFE8FF"/>
</radialGradient>
<radialGradient id="paint4_radial_220_18280" cx="0" cy="0" r="1" gradientUnits="userSpaceOnUse" gradientTransform="translate(106.863 86.5884) rotate(-125.689) scale(45.4328 50.8197)">
<stop stop-color="#241771" stop-opacity="0.17"/>
<stop offset="0.506484" stop-color="#652BB0" stop-opacity="0.49"/>
<stop offset="1" stop-color="#EFE8FF"/>
</radialGradient>
<radialGradient id="paint5_radial_220_18280" cx="0" cy="0" r="1" gradientUnits="userSpaceOnUse" gradientTransform="translate(85.8518 100.893) rotate(-143.707) scale(79.5154 89.5559)">
<stop stop-color="#241771" stop-opacity="0.17"/>
<stop offset="0.506484" stop-color="#652BB0" stop-opacity="0.49"/>
<stop offset="1" stop-color="#EFE8FF"/>
</radialGradient>
<clipPath id="clip0_220_18280">
<rect width="108" height="108" fill="white"/>
</clipPath>
</defs>
</svg>
