<svg width="80" height="80" viewBox="0 0 80 80" fill="none" xmlns="http://www.w3.org/2000/svg">
<path d="M14.5349 8L14.3801 27.008L15.8863 28.3926L14.3519 29.959L14.3097 34.5603L17.6459 37.4133L14.2815 39.0217L14 72L17.9274 71.972L19.7574 67.9861C19.7574 67.9861 23.0796 70.979 23.1359 70.7693C23.1781 70.5595 34.6789 69.4546 34.6789 69.4546L35.9459 71.8322L66 71.5664L65.9859 56.6996L62.7623 54.0843L65.9718 52.6438L65.9296 13.074L61.1012 8.13147L22.1787 8.02378L20.8132 11.716L19.2648 8.01538L14.5349 8ZM41.8863 9.21676C42.2067 9.21128 42.5622 9.35931 42.8979 9.63804C43.2337 9.91678 43.5311 10.3108 43.7444 10.7594C43.8722 11.0285 43.9662 11.3101 44.0212 11.5881C44.0762 11.866 44.091 12.1349 44.0649 12.3793C44.0387 12.6236 43.9721 12.8387 43.8688 13.0121C43.7655 13.1856 43.6276 13.314 43.4629 13.3901C43.2563 13.4862 43.0131 13.497 42.7552 13.4216C42.4973 13.3462 42.2326 13.1869 41.9848 12.9579L38.7753 14.1579L38.0574 13.3873L40.9713 11.0922C40.8898 10.6774 40.8984 10.2861 40.9961 9.96727C41.0937 9.64844 41.276 9.41612 41.5203 9.29927C41.6322 9.24663 41.7553 9.21888 41.8863 9.21676ZM18.2794 17.2753H19.9686L21.1511 22.8262L22.3194 17.2753H24.0227L25.2052 22.8262L26.3877 17.2753H28.0628L26.444 24.9101H24.4169L23.164 19.1061L21.9394 24.9101H19.9123L18.2794 17.2753ZM30.5122 17.2753H32.6237L35.1576 24.9101H33.3839L32.9475 23.5255H30.1884L29.752 24.9101H27.9783L30.5122 17.2753ZM36.0585 17.2753H38.0292L40.5068 22.5046V17.2753H42.1819V24.9101H40.2112L37.7195 19.6655V24.9101H36.0585V17.2753ZM43.0969 17.2753H49.4034V18.7564H47.137V24.9101H45.3774V18.7564H43.0969V17.2753ZM50.3184 17.2753H55.0763V18.7564H52.078V20.183H54.8933V21.6654H52.078V23.4276H55.1749V24.9101H50.3184V17.2753ZM56.7233 17.2753H58.5815C59.6232 17.2753 60.3974 17.3578 60.9042 17.5257C61.4109 17.6893 61.8473 17.969 62.2133 18.3648C62.5371 18.7005 62.7764 19.1061 62.9312 19.5536C63.0861 20.0011 63.1705 20.5186 63.1705 21.078C63.1705 21.6654 63.0861 22.1689 62.9312 22.6304C62.7764 23.078 62.5371 23.4696 62.2133 23.8192C61.8473 24.2108 61.4109 24.4905 60.8901 24.6584C60.3833 24.8262 59.6091 24.9101 58.5815 24.9101H56.7233V17.2753ZM58.497 18.7564V23.4276H59.1164C59.8484 23.4276 60.3974 23.2178 60.7775 22.8262C61.1576 22.4207 61.3405 21.8472 61.3405 21.078C61.3405 20.3228 61.1576 19.7494 60.7775 19.3578C60.3974 18.9662 59.8484 18.7564 59.1164 18.7564H58.497ZM31.5679 19.0641L30.6248 22.099H32.497L31.5679 19.0641ZM57.4976 27.5115L57.4272 56.2801L22.0097 56.2101L22.4884 28.98L22.5165 27.7632L57.4976 27.5115ZM54.9637 30.0569L24.994 30.2527L24.5999 53.6927L30.3714 53.7067C31.0049 51.5389 31.9903 49.2732 36.5371 48.546C36.0227 47.9083 35.6114 47.1278 35.3301 46.2554C35.0487 45.383 34.9036 44.4384 34.9042 43.4831C34.909 43.1409 34.9325 42.7996 34.9746 42.4622L27.9783 42.5181L27.9502 40.0007L34.6508 39.9448C35.3546 38.0427 35.3265 35.9169 35.3406 33.7211C38.9302 34.6302 41.1121 34.5742 43.843 33.7211C43.8148 35.791 43.9134 37.735 44.7439 39.8469L51.346 39.7909L51.3741 42.3083L44.6594 42.3643C44.7052 42.7339 44.7288 43.1081 44.7298 43.4831C44.7291 44.4537 44.578 45.4128 44.2866 46.2958C43.9952 47.1788 43.5703 47.9652 43.0406 48.6019C46.6865 49.3571 48.7417 51.469 49.347 53.7486L54.8933 53.7626L54.9637 30.0569ZM25.4867 59.1192L54.5273 59.231V61.7485L25.4867 61.6366V59.1192ZM41.3514 64.6855L54.5414 64.7974L54.5133 67.3148L41.3232 67.2029L41.3514 64.6855Z" fill="url(#paint0_linear_539_45145)"/>
<defs>
<linearGradient id="paint0_linear_539_45145" x1="14" y1="8" x2="60.8" y2="75.6" gradientUnits="userSpaceOnUse">
<stop stop-color="#F62584"/>
<stop offset="1" stop-color="#480CA7"/>
</linearGradient>
</defs>
</svg>
