<svg width="16" height="16" viewBox="0 0 16 16" fill="none" xmlns="http://www.w3.org/2000/svg">
<path fill-rule="evenodd" clip-rule="evenodd" d="M8 0.72998C3.99438 0.72998 0.75 3.97436 0.75 7.97998C0.75 11.1881 2.82531 13.8978 5.70719 14.8584C6.06969 14.9219 6.20563 14.7044 6.20563 14.514C6.20563 14.3419 6.19656 13.7709 6.19656 13.1637C4.375 13.499 3.90375 12.7197 3.75875 12.3119C3.67719 12.1034 3.32375 11.46 3.01563 11.2878C2.76188 11.1519 2.39937 10.8165 3.00656 10.8075C3.5775 10.7984 3.98531 11.3331 4.12125 11.5506C4.77375 12.6472 5.81594 12.339 6.23281 12.1487C6.29625 11.6775 6.48656 11.3603 6.695 11.179C5.08188 10.9978 3.39625 10.3725 3.39625 7.59935C3.39625 6.81092 3.67719 6.15842 4.13938 5.65092C4.06688 5.46967 3.81313 4.72654 4.21188 3.72967C4.21188 3.72967 4.81906 3.53936 6.20563 4.47279C6.78563 4.30967 7.40188 4.22811 8.01813 4.22811C8.63438 4.22811 9.25063 4.30967 9.83063 4.47279C11.2172 3.53029 11.8244 3.72967 11.8244 3.72967C12.2231 4.72654 11.9694 5.46967 11.8969 5.65092C12.3591 6.15842 12.64 6.80185 12.64 7.59935C12.64 10.3815 10.9453 10.9978 9.33219 11.179C9.595 11.4056 9.82156 11.8406 9.82156 12.5203C9.82156 13.49 9.8125 14.2694 9.8125 14.514C9.8125 14.7044 9.94844 14.9309 10.3109 14.8584C11.7502 14.3725 13.0008 13.4475 13.8868 12.2136C14.7728 10.9797 15.2496 9.49903 15.25 7.97998C15.25 3.97436 12.0056 0.72998 8 0.72998Z" fill="black"/>
</svg>
